<svg id="container" width="670.828125" xmlns="http://www.w3.org/2000/svg" class="classDiagram" height="1332" viewBox="0 0 670.828125 1332" role="graphics-document document" aria-roledescription="class"><style>#container{font-family:"Open Sans","trebuchet ms",verdana,arial,sans-serif;font-size:16px;fill:#ffffff;}@keyframes edge-animation-frame{from{stroke-dashoffset:0;}}@keyframes dash{to{stroke-dashoffset:0;}}#container .edge-animation-slow{stroke-dasharray:9,5!important;stroke-dashoffset:900;animation:dash 50s linear infinite;stroke-linecap:round;}#container .edge-animation-fast{stroke-dasharray:9,5!important;stroke-dashoffset:900;animation:dash 20s linear infinite;stroke-linecap:round;}#container .error-icon{fill:hsl(21.6279069767, 79.6296296296%, 26.1764705882%);}#container .error-text{fill:rgb(135.0972222224, 203.0833333335, 241.4027777778);stroke:rgb(135.0972222224, 203.0833333335, 241.4027777778);}#container .edge-thickness-normal{stroke-width:1px;}#container .edge-thickness-thick{stroke-width:3.5px;}#container .edge-pattern-solid{stroke-dasharray:0;}#container .edge-thickness-invisible{stroke-width:0;fill:none;}#container .edge-pattern-dashed{stroke-dasharray:3;}#container .edge-pattern-dotted{stroke-dasharray:2;}#container .marker{fill:#1ac5da;stroke:#1ac5da;}#container .marker.cross{stroke:#1ac5da;}#container svg{font-family:"Open Sans","trebuchet ms",verdana,arial,sans-serif;font-size:16px;}#container p{margin:0;}#container g.classGroup text{fill:#1ac5da;stroke:none;font-family:"Open Sans","trebuchet ms",verdana,arial,sans-serif;font-size:10px;}#container g.classGroup text .title{font-weight:bolder;}#container .cluster-label text{fill:rgb(135.0972222224, 203.0833333335, 241.4027777778);}#container .cluster-label span{color:rgb(135.0972222224, 203.0833333335, 241.4027777778);}#container .cluster-label span p{background-color:transparent;}#container .cluster rect{fill:hsl(21.6279069767, 79.6296296296%, 26.1764705882%);stroke:hsl(21.6279069767, 39.6296296296%, 16.1764705882%);stroke-width:1px;}#container .cluster text{fill:rgb(135.0972222224, 203.0833333335, 241.4027777778);}#container .cluster span{color:rgb(135.0972222224, 203.0833333335, 241.4027777778);}#container .nodeLabel,#container .edgeLabel{color:#ffffff;}#container .noteLabel .nodeLabel,#container .noteLabel .edgeLabel{color:#ffffff;}#container .edgeLabel .label rect{fill:#0b4261;}#container .label text{fill:#ffffff;}#container .labelBkg{background:#0b4261;}#container .edgeLabel .label span{background:#0b4261;}#container .classTitle{font-weight:bolder;}#container .node rect,#container .node circle,#container .node ellipse,#container .node polygon,#container .node path{fill:#0b4261;stroke:#1ac5da;stroke-width:1;}#container .divider{stroke:#1ac5da;stroke-width:1;}#container g.clickable{cursor:pointer;}#container g.classGroup rect{fill:#0b4261;stroke:#1ac5da;}#container g.classGroup line{stroke:#1ac5da;stroke-width:1;}#container .classLabel .box{stroke:none;stroke-width:0;fill:#0b4261;opacity:0.5;}#container .classLabel .label{fill:#1ac5da;font-size:10px;}#container .relation{stroke:#1ac5da;stroke-width:1;fill:none;}#container .dashed-line{stroke-dasharray:3;}#container .dotted-line{stroke-dasharray:1 2;}#container [id$="-compositionStart"],#container .composition{fill:#1ac5da!important;stroke:#1ac5da!important;stroke-width:1;}#container [id$="-compositionEnd"],#container .composition{fill:#1ac5da!important;stroke:#1ac5da!important;stroke-width:1;}#container [id$="-dependencyStart"],#container .dependency{fill:#1ac5da!important;stroke:#1ac5da!important;stroke-width:1;}#container [id$="-dependencyEnd"],#container .dependency{fill:#1ac5da!important;stroke:#1ac5da!important;stroke-width:1;}#container [id$="-extensionStart"],#container .extension{fill:transparent!important;stroke:#1ac5da!important;stroke-width:1;}#container [id$="-extensionEnd"],#container .extension{fill:transparent!important;stroke:#1ac5da!important;stroke-width:1;}#container [id$="-aggregationStart"],#container .aggregation{fill:transparent!important;stroke:#1ac5da!important;stroke-width:1;}#container [id$="-aggregationEnd"],#container .aggregation{fill:transparent!important;stroke:#1ac5da!important;stroke-width:1;}#container [id$="-lollipopStart"],#container .lollipop{fill:#0b4261!important;stroke:#1ac5da!important;stroke-width:1;}#container [id$="-lollipopEnd"],#container .lollipop{fill:#0b4261!important;stroke:#1ac5da!important;stroke-width:1;}#container .edgeTerminals{font-size:11px;line-height:initial;}#container .classTitleText{text-anchor:middle;font-size:18px;fill:#ffffff;}#container .edgeLabel[data-look="neo"]{background-color:#082f45;text-align:center;}#container .edgeLabel[data-look="neo"] p{background-color:#082f45;}#container .edgeLabel[data-look="neo"] rect{opacity:0.5;background-color:#082f45;fill:#082f45;}#container .label-icon{display:inline-block;height:1em;overflow:visible;vertical-align:-0.125em;}#container .node .label-icon path{fill:currentColor;stroke:revert;stroke-width:revert;}#container .node .neo-node{stroke:#1ac5da;}#container [data-look="neo"].node rect,#container [data-look="neo"].cluster rect,#container [data-look="neo"].node polygon{stroke:url(#container-gradient);filter:drop-shadow( 1px 2px 2px rgba(185,185,185,1));}#container [data-look="neo"].swimlane.cluster rect{filter:none;}#container [data-look="neo"].node path{stroke:url(#container-gradient);stroke-width:1px;}#container [data-look="neo"].node .outer-path{filter:drop-shadow( 1px 2px 2px rgba(185,185,185,1));}#container [data-look="neo"].node .neo-line path{stroke:#1ac5da;filter:none;}#container [data-look="neo"].node circle{stroke:url(#container-gradient);filter:drop-shadow( 1px 2px 2px rgba(185,185,185,1));}#container [data-look="neo"].node circle .state-start{fill:#000000;}#container [data-look="neo"].icon-shape .icon{fill:url(#container-gradient);filter:drop-shadow( 1px 2px 2px rgba(185,185,185,1));}#container [data-look="neo"].icon-shape .icon-neo path{stroke:url(#container-gradient);filter:drop-shadow( 1px 2px 2px rgba(185,185,185,1));}#container :root{--mermaid-font-family:"Open Sans","trebuchet ms",verdana,arial,sans-serif;}</style><g><defs><marker id="container_class-aggregationStart" class="marker aggregation class" refX="18" refY="7" markerWidth="190" markerHeight="240" orient="auto"><path d="M 18,7 L9,13 L1,7 L9,1 Z"></path></marker></defs><defs><marker id="container_class-aggregationEnd" class="marker aggregation class" refX="1" refY="7" markerWidth="20" markerHeight="28" orient="auto"><path d="M 18,7 L9,13 L1,7 L9,1 Z"></path></marker></defs><defs><marker id="container_class-aggregationStart-margin" class="marker aggregation class" refX="15" refY="7" markerWidth="190" markerHeight="240" orient="auto" markerUnits="userSpaceOnUse"><path d="M 18,7 L9,13 L1,7 L9,1 Z" style="stroke-width: 2;"></path></marker></defs><defs><marker id="container_class-aggregationEnd-margin" class="marker aggregation class" refX="1" refY="7" markerWidth="20" markerHeight="28" orient="auto" markerUnits="userSpaceOnUse"><path d="M 18,7 L9,13 L1,7 L9,1 Z" style="stroke-width: 2;"></path></marker></defs><defs><marker id="container_class-extensionStart" class="marker extension class" refX="18" refY="7" markerWidth="20" markerHeight="28" orient="auto" markerUnits="userSpaceOnUse"><path d="M 1,7 L18,13 V 1 Z"></path></marker></defs><defs><marker id="container_class-extensionEnd" class="marker extension class" refX="1" refY="7" markerWidth="20" markerHeight="28" orient="auto"><path d="M 1,1 V 13 L18,7 Z"></path></marker></defs><marker id="container_class-extensionStart-margin" class="marker extension class" refX="18" refY="7" markerWidth="20" markerHeight="28" orient="auto" markerUnits="userSpaceOnUse" viewBox="0 0 20 14"><polygon points="10,7 18,13 18,1" style="stroke-width: 2; stroke-dasharray: 0;"></polygon></marker><defs><marker id="container_class-extensionEnd-margin" class="marker extension class" refX="9" refY="7" markerWidth="20" markerHeight="28" orient="auto" markerUnits="userSpaceOnUse" viewBox="0 0 20 14"><polygon points="10,1 10,13 18,7" style="stroke-width: 2; stroke-dasharray: 0;"></polygon></marker></defs><defs><marker id="container_class-compositionStart" class="marker composition class" refX="18" refY="7" markerWidth="190" markerHeight="240" orient="auto"><path d="M 18,7 L9,13 L1,7 L9,1 Z"></path></marker></defs><defs><marker id="container_class-compositionEnd" class="marker composition class" refX="1" refY="7" markerWidth="20" markerHeight="28" orient="auto"><path d="M 18,7 L9,13 L1,7 L9,1 Z"></path></marker></defs><defs><marker id="container_class-compositionStart-margin" class="marker composition class" refX="15" refY="7" markerWidth="190" markerHeight="240" orient="auto" markerUnits="userSpaceOnUse"><path viewBox="0 0 15 15" d="M 18,7 L9,13 L1,7 L9,1 Z" style="stroke-width: 0;"></path></marker></defs><defs><marker id="container_class-compositionEnd-margin" class="marker composition class" refX="3.5" refY="7" markerWidth="20" markerHeight="28" orient="auto" markerUnits="userSpaceOnUse"><path d="M 18,7 L9,13 L1,7 L9,1 Z" style="stroke-width: 0;"></path></marker></defs><defs><marker id="container_class-dependencyStart" class="marker dependency class" refX="6" refY="7" markerWidth="190" markerHeight="240" orient="auto"><path d="M 5,7 L9,13 L1,7 L9,1 Z"></path></marker></defs><defs><marker id="container_class-dependencyEnd" class="marker dependency class" refX="13" refY="7" markerWidth="20" markerHeight="28" orient="auto"><path d="M 18,7 L9,13 L14,7 L9,1 Z"></path></marker></defs><defs><marker id="container_class-dependencyStart-margin" class="marker dependency class" refX="4" refY="7" markerWidth="190" markerHeight="240" orient="auto" markerUnits="userSpaceOnUse"><path d="M 5,7 L9,13 L1,7 L9,1 Z" style="stroke-width: 0;"></path></marker></defs><defs><marker id="container_class-dependencyEnd-margin" class="marker dependency class" refX="16" refY="7" markerWidth="20" markerHeight="28" orient="auto" markerUnits="userSpaceOnUse"><path d="M 18,7 L9,13 L14,7 L9,1 Z" style="stroke-width: 0;"></path></marker></defs><defs><marker id="container_class-lollipopStart" class="marker lollipop class" refX="13" refY="7" markerWidth="190" markerHeight="240" orient="auto"><circle fill="transparent" cx="7" cy="7" r="6"></circle></marker></defs><defs><marker id="container_class-lollipopEnd" class="marker lollipop class" refX="1" refY="7" markerWidth="190" markerHeight="240" orient="auto"><circle fill="transparent" cx="7" cy="7" r="6"></circle></marker></defs><defs><marker id="container_class-lollipopStart-margin" class="marker lollipop class" refX="13" refY="7" markerWidth="190" markerHeight="240" orient="auto" markerUnits="userSpaceOnUse"><circle fill="transparent" cx="7" cy="7" r="6" stroke-width="2"></circle></marker></defs><defs><marker id="container_class-lollipopEnd-margin" class="marker lollipop class" refX="1" refY="7" markerWidth="190" markerHeight="240" orient="auto" markerUnits="userSpaceOnUse"><circle fill="transparent" cx="7" cy="7" r="6" stroke-width="2"></circle></marker></defs><g class="root"><g class="clusters"></g><g class="edgePaths"><path d="M125.942,622.5L146.631,530.083C167.32,437.667,208.699,252.833,234.384,160.417C260.068,68,270.057,68,275.052,68L280.047,68" id="container-id_5 Pluggable integrations_5a Query synthesis_1" class="edge-thickness-normal edge-pattern-solid relation" style=";;;" data-edge="true" data-et="edge" data-id="id_5 Pluggable integrations_5a Query synthesis_1" data-points="W3sieCI6MTI1Ljk0MTY0NTI3NDUxODAyLCJ5Ijo2MjIuNX0seyJ4IjoyNTAuMDc4MTI1LCJ5Ijo2OH0seyJ4IjoyODYuMDQ2ODc1LCJ5Ijo2OH1d" data-look="classic" marker-end="url(#container_class-dependencyEnd)"></path><path d="M129.689,622.5L149.754,558.417C169.819,494.333,209.949,366.167,251.271,302.083C292.594,238,335.109,238,356.367,238L377.625,238" id="container-id_5 Pluggable integrations_5b Beach distance_2" class="edge-thickness-normal edge-pattern-solid relation" style=";;;" data-edge="true" data-et="edge" data-id="id_5 Pluggable integrations_5b Beach distance_2" data-points="W3sieCI6MTI5LjY4OTQ1MDgzNTI4NzIzLCJ5Ijo2MjIuNX0seyJ4IjoyNTAuMDc4MTI1LCJ5IjoyMzh9LHsieCI6MzgzLjYyNSwieSI6MjM4fV0=" data-look="classic" marker-end="url(#container_class-dependencyEnd)"></path><path d="M138.405,622.5L157.017,586.75C175.629,551,212.854,479.5,244.138,443.75C275.422,408,300.766,408,313.438,408L326.109,408" id="container-id_5 Pluggable integrations_5c Agentic tool access_3" class="edge-thickness-normal edge-pattern-solid relation" style=";;;" data-edge="true" data-et="edge" data-id="id_5 Pluggable integrations_5c Agentic tool access_3" data-points="W3sieCI6MTM4LjQwNTEwNzgyMTYzNzQyLCJ5Ijo2MjIuNX0seyJ4IjoyNTAuMDc4MTI1LCJ5Ijo0MDh9LHsieCI6MzMyLjEwOTM3NSwieSI6NDA4fV0=" data-look="classic" marker-end="url(#container_class-dependencyEnd)"></path><path d="M181.379,622.5L192.829,615.083C204.279,607.667,227.178,592.833,257.159,585.417C287.139,578,324.201,578,342.731,578L361.262,578" id="container-id_5 Pluggable integrations_5d Sighting reports_4" class="edge-thickness-normal edge-pattern-solid relation" style=";;;" data-edge="true" data-et="edge" data-id="id_5 Pluggable integrations_5d Sighting reports_4" data-points="W3sieCI6MTgxLjM3ODgzODUxMTU2MDY3LCJ5Ijo2MjIuNX0seyJ4IjoyNTAuMDc4MTI1LCJ5Ijo1Nzh9LHsieCI6MzY3LjI2MTcxODc1LCJ5Ijo1Nzh9XQ==" data-look="classic" marker-end="url(#container_class-dependencyEnd)"></path><path d="M181.379,706.5L192.829,713.917C204.279,721.333,227.178,736.167,250.846,743.583C274.514,751,298.951,751,311.169,751L323.387,751" id="container-id_5 Pluggable integrations_5e Photo analysis_5" class="edge-thickness-normal edge-pattern-solid relation" style=";;;" data-edge="true" data-et="edge" data-id="id_5 Pluggable integrations_5e Photo analysis_5" data-points="W3sieCI6MTgxLjM3ODgzODUxMTU2MDY3LCJ5Ijo3MDYuNX0seyJ4IjoyNTAuMDc4MTI1LCJ5Ijo3NTF9LHsieCI6MzI5LjM4NjcxODc1LCJ5Ijo3NTF9XQ==" data-look="classic" marker-end="url(#container_class-dependencyEnd)"></path><path d="M138.152,706.5L156.807,742.75C175.461,779,212.77,851.5,242.351,887.75C271.932,924,293.786,924,304.714,924L315.641,924" id="container-id_5 Pluggable integrations_5f Observability_6" class="edge-thickness-normal edge-pattern-solid relation" style=";;;" data-edge="true" data-et="edge" data-id="id_5 Pluggable integrations_5f Observability_6" data-points="W3sieCI6MTM4LjE1MjMyMTE3MDUyMDIyLCJ5Ijo3MDYuNX0seyJ4IjoyNTAuMDc4MTI1LCJ5Ijo5MjR9LHsieCI6MzIxLjY0MDYyNSwieSI6OTI0fV0=" data-look="classic" marker-end="url(#container_class-dependencyEnd)"></path><path d="M129.598,706.5L149.678,771.083C169.758,835.667,209.918,964.833,235.159,1029.417C260.4,1094,270.721,1094,275.882,1094L281.043,1094" id="container-id_5 Pluggable integrations_5g Bathing-water quality_7" class="edge-thickness-normal edge-pattern-solid relation" style=";;;" data-edge="true" data-et="edge" data-id="id_5 Pluggable integrations_5g Bathing-water quality_7" data-points="W3sieCI6MTI5LjU5NzU5NzEzMzI5NDUzLCJ5Ijo3MDYuNX0seyJ4IjoyNTAuMDc4MTI1LCJ5IjoxMDk0fSx7IngiOjI4Ny4wNDI5Njg3NSwieSI6MTA5NH1d" data-look="classic" marker-end="url(#container_class-dependencyEnd)"></path><path d="M125.895,706.5L146.592,799.417C167.289,892.333,208.684,1078.167,232.548,1171.083C256.411,1264,262.745,1264,265.911,1264L269.078,1264" id="container-id_5 Pluggable integrations_5h Ocean knowledge_8" class="edge-thickness-normal edge-pattern-solid relation" style=";;;" data-edge="true" data-et="edge" data-id="id_5 Pluggable integrations_5h Ocean knowledge_8" data-points="W3sieCI6MTI1Ljg5NDU5MzE1MDU0MjEyLCJ5Ijo3MDYuNX0seyJ4IjoyNTAuMDc4MTI1LCJ5IjoxMjY0fSx7IngiOjI3NS4wNzgxMjUsInkiOjEyNjR9XQ==" data-look="classic" marker-end="url(#container_class-dependencyEnd)"></path></g><g class="edgeLabels"><g class="edgeLabel"><g class="label" data-id="id_5 Pluggable integrations_5a Query synthesis_1" transform="translate(0, 0)"><foreignObject width="0" height="0"><div xmlns="http://www.w3.org/1999/xhtml" class="labelBkg" style="display: table-cell; white-space: nowrap; line-height: 1.5; max-width: 200px; text-align: center;"><span class="edgeLabel"></span></div></foreignObject></g></g><g class="edgeLabel"><g class="label" data-id="id_5 Pluggable integrations_5b Beach distance_2" transform="translate(0, 0)"><foreignObject width="0" height="0"><div xmlns="http://www.w3.org/1999/xhtml" class="labelBkg" style="display: table-cell; white-space: nowrap; line-height: 1.5; max-width: 200px; text-align: center;"><span class="edgeLabel"></span></div></foreignObject></g></g><g class="edgeLabel"><g class="label" data-id="id_5 Pluggable integrations_5c Agentic tool access_3" transform="translate(0, 0)"><foreignObject width="0" height="0"><div xmlns="http://www.w3.org/1999/xhtml" class="labelBkg" style="display: table-cell; white-space: nowrap; line-height: 1.5; max-width: 200px; text-align: center;"><span class="edgeLabel"></span></div></foreignObject></g></g><g class="edgeLabel"><g class="label" data-id="id_5 Pluggable integrations_5d Sighting reports_4" transform="translate(0, 0)"><foreignObject width="0" height="0"><div xmlns="http://www.w3.org/1999/xhtml" class="labelBkg" style="display: table-cell; white-space: nowrap; line-height: 1.5; max-width: 200px; text-align: center;"><span class="edgeLabel"></span></div></foreignObject></g></g><g class="edgeLabel"><g class="label" data-id="id_5 Pluggable integrations_5e Photo analysis_5" transform="translate(0, 0)"><foreignObject width="0" height="0"><div xmlns="http://www.w3.org/1999/xhtml" class="labelBkg" style="display: table-cell; white-space: nowrap; line-height: 1.5; max-width: 200px; text-align: center;"><span class="edgeLabel"></span></div></foreignObject></g></g><g class="edgeLabel"><g class="label" data-id="id_5 Pluggable integrations_5f Observability_6" transform="translate(0, 0)"><foreignObject width="0" height="0"><div xmlns="http://www.w3.org/1999/xhtml" class="labelBkg" style="display: table-cell; white-space: nowrap; line-height: 1.5; max-width: 200px; text-align: center;"><span class="edgeLabel"></span></div></foreignObject></g></g><g class="edgeLabel"><g class="label" data-id="id_5 Pluggable integrations_5g Bathing-water quality_7" transform="translate(0, 0)"><foreignObject width="0" height="0"><div xmlns="http://www.w3.org/1999/xhtml" class="labelBkg" style="display: table-cell; white-space: nowrap; line-height: 1.5; max-width: 200px; text-align: center;"><span class="edgeLabel"></span></div></foreignObject></g></g><g class="edgeLabel"><g class="label" data-id="id_5 Pluggable integrations_5h Ocean knowledge_8" transform="translate(0, 0)"><foreignObject width="0" height="0"><div xmlns="http://www.w3.org/1999/xhtml" class="labelBkg" style="display: table-cell; white-space: nowrap; line-height: 1.5; max-width: 200px; text-align: center;"><span class="edgeLabel"></span></div></foreignObject></g></g></g><g class="nodes"><g class="node default" id="container-classId-5 Pluggable integrations-0" data-look="classic" transform="translate(116.5390625, 664.5)"><g class="basic label-container outer-path"><path d="M-108.5390625 -42 L108.5390625 -42 L108.5390625 42 L-108.5390625 42" stroke="none" stroke-width="0" fill="#0b4261" style=""></path><path d="M-108.5390625 -42 C-46.07942231973941 -42, 16.380217860521185 -42, 108.5390625 -42 M-108.5390625 -42 C-24.720473849626245 -42, 59.09811480074751 -42, 108.5390625 -42 M108.5390625 -42 C108.5390625 -18.020572942823463, 108.5390625 5.958854114353073, 108.5390625 42 M108.5390625 -42 C108.5390625 -16.550905549230887, 108.5390625 8.898188901538227, 108.5390625 42 M108.5390625 42 C34.54651600930502 42, -39.446030481389954 42, -108.5390625 42 M108.5390625 42 C57.398835800492826 42, 6.258609100985652 42, -108.5390625 42 M-108.5390625 42 C-108.5390625 23.90494877825561, -108.5390625 5.809897556511217, -108.5390625 -42 M-108.5390625 42 C-108.5390625 19.58715050917197, -108.5390625 -2.8256989816560605, -108.5390625 -42" stroke="#1ac5da" stroke-width="1.3" fill="none" stroke-dasharray="0 0" style=""></path></g><g class="annotation-group text" transform="translate(0, -18)"></g><g class="label-group text" transform="translate(-96.5390625, -18)"><g class="label" style="font-weight: bolder" transform="translate(0,-12)"><foreignObject width="193.078125" height="24"><div xmlns="http://www.w3.org/1999/xhtml" style="display: table-cell; white-space: nowrap; line-height: 1.5; max-width: 229px; text-align: center;"><span class="nodeLabel markdown-node-label" style=""><p>5 Pluggable integrations</p></span></div></foreignObject></g></g><g class="members-group text" transform="translate(-96.5390625, 30)"></g><g class="methods-group text" transform="translate(-96.5390625, 60)"></g><g class="divider" style=""><path d="M-108.5390625 6 C-33.50660809856063 6.0003456472383, 41.52584630287873 6.000691294476598, 108.5390625 6.001 M-108.5390625 6 C-58.048320983764455 6.00023259248953, -7.55757946752891 6.00046518497906, 108.5390625 6.001" stroke="#1ac5da" stroke-width="1.3" fill="none" stroke-dasharray="0 0" style=""></path></g><g class="divider" style=""><path d="M-108.5390625 24 C-21.919126307325953 24.000399026554117, 64.7008098853481 24.000798053108234, 108.5390625 24.001 M-108.5390625 24 C-38.42589718913392 24.00032298586194, 31.68726812173216 24.000645971723877, 108.5390625 24.001" stroke="#1ac5da" stroke-width="1.3" fill="none" stroke-dasharray="0 0" style=""></path></g></g><g class="node default" id="container-classId-5a Query synthesis-1" data-look="classic" transform="translate(468.953125, 68)"><g class="basic label-container outer-path"><path d="M-182.90625 -60 L182.90625 -60 L182.90625 60 L-182.90625 60" stroke="none" stroke-width="0" fill="#0b4261" style=""></path><path d="M-182.90625 -60 C-75.89562312610545 -60, 31.115003747789103 -60, 182.90625 -60 M-182.90625 -60 C-102.64769399313845 -60, -22.389137986276893 -60, 182.90625 -60 M182.90625 -60 C182.90625 -21.018936691553243, 182.90625 17.962126616893514, 182.90625 60 M182.90625 -60 C182.90625 -32.757021674831286, 182.90625 -5.514043349662572, 182.90625 60 M182.90625 60 C109.36213794828947 60, 35.818025896578945 60, -182.90625 60 M182.90625 60 C37.960662683211496 60, -106.98492463357701 60, -182.90625 60 M-182.90625 60 C-182.90625 14.153749386649302, -182.90625 -31.692501226701395, -182.90625 -60 M-182.90625 60 C-182.90625 35.79435929513475, -182.90625 11.588718590269494, -182.90625 -60" stroke="#1ac5da" stroke-width="1.3" fill="none" stroke-dasharray="0 0" style=""></path></g><g class="annotation-group text" transform="translate(0, -36)"></g><g class="label-group text" transform="translate(-75.734375, -36)"><g class="label" style="font-weight: bolder" transform="translate(0,-12)"><foreignObject width="151.46875" height="24"><div xmlns="http://www.w3.org/1999/xhtml" style="display: table-cell; white-space: nowrap; line-height: 1.5; max-width: 191px; text-align: center;"><span class="nodeLabel markdown-node-label" style=""><p>5a Query synthesis</p></span></div></foreignObject></g></g><g class="members-group text" transform="translate(-170.90625, 12)"><g class="label" style="" transform="translate(0,-12)"><foreignObject width="266.078125" height="24"><div xmlns="http://www.w3.org/1999/xhtml" style="display: table-cell; white-space: nowrap; line-height: 1.5; max-width: 316px; text-align: center;"><span class="nodeLabel markdown-node-label" style=""><p>Ollama-compatible chat completion</p></span></div></foreignObject></g></g><g class="methods-group text" transform="translate(-170.90625, 60)"></g><g class="divider" style=""><path d="M-182.90625 -12 C-43.338684644650385 -11.999618472399508, 96.22888071069923 -11.999236944799014, 182.90625 -11.999 M-182.90625 -12 C-91.31962842140817 -11.999749635068298, 0.2669931571836628 -11.999499270136594, 182.90625 -11.999" stroke="#1ac5da" stroke-width="1.3" fill="none" stroke-dasharray="0 0" style=""></path></g><g class="divider" style=""><path d="M-182.90625 36 C-79.44321893376099 36.00028283077004, 24.019812132478023 36.00056566154009, 182.90625 36.001 M-182.90625 36 C-63.347791258670014 36.00032682988892, 56.21066748265997 36.00065365977784, 182.90625 36.001" stroke="#1ac5da" stroke-width="1.3" fill="none" stroke-dasharray="0 0" style=""></path></g></g><g class="node default" id="container-classId-5b Beach distance-2" data-look="classic" transform="translate(468.953125, 238)"><g class="basic label-container outer-path"><path d="M-85.328125 -60 L85.328125 -60 L85.328125 60 L-85.328125 60" stroke="none" stroke-width="0" fill="#0b4261" style=""></path><path d="M-85.328125 -60 C-47.863153222351364 -60, -10.398181444702729 -60, 85.328125 -60 M-85.328125 -60 C-46.162831739262714 -60, -6.997538478525428 -60, 85.328125 -60 M85.328125 -60 C85.328125 -35.81999331347648, 85.328125 -11.639986626952961, 85.328125 60 M85.328125 -60 C85.328125 -29.708065058786723, 85.328125 0.5838698824265549, 85.328125 60 M85.328125 60 C46.73485446238418 60, 8.141583924768355 60, -85.328125 60 M85.328125 60 C32.42539097557641 60, -20.477343048847175 60, -85.328125 60 M-85.328125 60 C-85.328125 17.379158665518027, -85.328125 -25.241682668963946, -85.328125 -60 M-85.328125 60 C-85.328125 28.737519779713065, -85.328125 -2.524960440573871, -85.328125 -60" stroke="#1ac5da" stroke-width="1.3" fill="none" stroke-dasharray="0 0" style=""></path></g><g class="annotation-group text" transform="translate(0, -36)"></g><g class="label-group text" transform="translate(-71.984375, -36)"><g class="label" style="font-weight: bolder" transform="translate(0,-12)"><foreignObject width="143.96875" height="24"><div xmlns="http://www.w3.org/1999/xhtml" style="display: table-cell; white-space: nowrap; line-height: 1.5; max-width: 185px; text-align: center;"><span class="nodeLabel markdown-node-label" style=""><p>5b Beach distance</p></span></div></foreignObject></g></g><g class="members-group text" transform="translate(-73.328125, 12)"><g class="label" style="" transform="translate(0,-12)"><foreignObject width="74.671875" height="24"><div xmlns="http://www.w3.org/1999/xhtml" style="display: table-cell; white-space: nowrap; line-height: 1.5; max-width: 125px; text-align: center;"><span class="nodeLabel markdown-node-label" style=""><p>Haversine</p></span></div></foreignObject></g></g><g class="methods-group text" transform="translate(-73.328125, 60)"></g><g class="divider" style=""><path d="M-85.328125 -12 C-20.577987780651156 -11.999620581506864, 44.17214943869769 -11.999241163013727, 85.328125 -11.999 M-85.328125 -12 C-18.909512288724642 -11.999610804686549, 47.509100422550716 -11.999221609373096, 85.328125 -11.999" stroke="#1ac5da" stroke-width="1.3" fill="none" stroke-dasharray="0 0" style=""></path></g><g class="divider" style=""><path d="M-85.328125 36 C-45.44639095019955 36.00023369629914, -5.5646569003991 36.000467392598274, 85.328125 36.001 M-85.328125 36 C-50.85746315712413 36.000201988862656, -16.38680131424826 36.00040397772531, 85.328125 36.001" stroke="#1ac5da" stroke-width="1.3" fill="none" stroke-dasharray="0 0" style=""></path></g></g><g class="node default" id="container-classId-5c Agentic tool access-3" data-look="classic" transform="translate(468.953125, 408)"><g class="basic label-container outer-path"><path d="M-136.84375 -60 L136.84375 -60 L136.84375 60 L-136.84375 60" stroke="none" stroke-width="0" fill="#0b4261" style=""></path><path d="M-136.84375 -60 C-50.608531443784585 -60, 35.62668711243083 -60, 136.84375 -60 M-136.84375 -60 C-49.88797192961054 -60, 37.06780614077891 -60, 136.84375 -60 M136.84375 -60 C136.84375 -15.543022285387252, 136.84375 28.913955429225496, 136.84375 60 M136.84375 -60 C136.84375 -13.796584654700268, 136.84375 32.40683069059946, 136.84375 60 M136.84375 60 C36.56836147414393 60, -63.707027051712146 60, -136.84375 60 M136.84375 60 C45.63380260655204 60, -45.576144786895924 60, -136.84375 60 M-136.84375 60 C-136.84375 24.67678602849613, -136.84375 -10.646427943007737, -136.84375 -60 M-136.84375 60 C-136.84375 24.529471805899213, -136.84375 -10.941056388201574, -136.84375 -60" stroke="#1ac5da" stroke-width="1.3" fill="none" stroke-dasharray="0 0" style=""></path></g><g class="annotation-group text" transform="translate(0, -36)"></g><g class="label-group text" transform="translate(-86.53125, -36)"><g class="label" style="font-weight: bolder" transform="translate(0,-12)"><foreignObject width="173.0625" height="24"><div xmlns="http://www.w3.org/1999/xhtml" style="display: table-cell; white-space: nowrap; line-height: 1.5; max-width: 212px; text-align: center;"><span class="nodeLabel markdown-node-label" style=""><p>5c Agentic tool access</p></span></div></foreignObject></g></g><g class="members-group text" transform="translate(-124.84375, 12)"><g class="label" style="" transform="translate(0,-12)"><foreignObject width="163.15625" height="24"><div xmlns="http://www.w3.org/1999/xhtml" style="display: table-cell; white-space: nowrap; line-height: 1.5; max-width: 213px; text-align: center;"><span class="nodeLabel markdown-node-label" style=""><p>MCP server over stdio</p></span></div></foreignObject></g></g><g class="methods-group text" transform="translate(-124.84375, 60)"></g><g class="divider" style=""><path d="M-136.84375 -12 C-37.97161128050537 -11.999638740758275, 60.90052743898926 -11.99927748151655, 136.84375 -11.999 M-136.84375 -12 C-36.184447650331066 -11.999632210815804, 64.47485469933787 -11.999264421631608, 136.84375 -11.999" stroke="#1ac5da" stroke-width="1.3" fill="none" stroke-dasharray="0 0" style=""></path></g><g class="divider" style=""><path d="M-136.84375 36 C-54.70366610420986 36.00030012362237, 27.436417791580283 36.000600247244726, 136.84375 36.001 M-136.84375 36 C-63.96166603122592 36.00026629672151, 8.920417937548166 36.00053259344302, 136.84375 36.001" stroke="#1ac5da" stroke-width="1.3" fill="none" stroke-dasharray="0 0" style=""></path></g></g><g class="node default" id="container-classId-5d Sighting reports-4" data-look="classic" transform="translate(468.953125, 578)"><g class="basic label-container outer-path"><path d="M-101.69140625 -60 L101.69140625 -60 L101.69140625 60 L-101.69140625 60" stroke="none" stroke-width="0" fill="#0b4261" style=""></path><path d="M-101.69140625 -60 C-47.440605851769284 -60, 6.810194546461432 -60, 101.69140625 -60 M-101.69140625 -60 C-60.970913011798224 -60, -20.250419773596448 -60, 101.69140625 -60 M101.69140625 -60 C101.69140625 -30.51405885113363, 101.69140625 -1.0281177022672594, 101.69140625 60 M101.69140625 -60 C101.69140625 -21.27355118446652, 101.69140625 17.45289763106696, 101.69140625 60 M101.69140625 60 C52.87601437655533 60, 4.060622503110665 60, -101.69140625 60 M101.69140625 60 C57.34750875055507 60, 13.003611251110144 60, -101.69140625 60 M-101.69140625 60 C-101.69140625 26.51314680189452, -101.69140625 -6.973706396210957, -101.69140625 -60 M-101.69140625 60 C-101.69140625 28.66425010480223, -101.69140625 -2.6714997903955435, -101.69140625 -60" stroke="#1ac5da" stroke-width="1.3" fill="none" stroke-dasharray="0 0" style=""></path></g><g class="annotation-group text" transform="translate(0, -36)"></g><g class="label-group text" transform="translate(-75.5703125, -36)"><g class="label" style="font-weight: bolder" transform="translate(0,-12)"><foreignObject width="151.140625" height="24"><div xmlns="http://www.w3.org/1999/xhtml" style="display: table-cell; white-space: nowrap; line-height: 1.5; max-width: 192px; text-align: center;"><span class="nodeLabel markdown-node-label" style=""><p>5d Sighting reports</p></span></div></foreignObject></g></g><g class="members-group text" transform="translate(-89.69140625, 12)"><g class="label" style="" transform="translate(0,-12)"><foreignObject width="103.8125" height="24"><div xmlns="http://www.w3.org/1999/xhtml" style="display: table-cell; white-space: nowrap; line-height: 1.5; max-width: 156px; text-align: center;"><span class="nodeLabel markdown-node-label" style=""><p>JSON-lines file</p></span></div></foreignObject></g></g><g class="methods-group text" transform="translate(-89.69140625, 60)"></g><g class="divider" style=""><path d="M-101.69140625 -12 C-33.5280289806185 -11.999664851830735, 34.635348288763 -11.99932970366147, 101.69140625 -11.999 M-101.69140625 -12 C-25.0894239779562 -11.99962336059114, 51.5125582940876 -11.999246721182283, 101.69140625 -11.999" stroke="#1ac5da" stroke-width="1.3" fill="none" stroke-dasharray="0 0" style=""></path></g><g class="divider" style=""><path d="M-101.69140625 36 C-46.529494064928365 36.00027122209348, 8.63241812014327 36.00054244418697, 101.69140625 36.001 M-101.69140625 36 C-32.91545425988171 36.0003381600989, 35.860497730236574 36.000676320197805, 101.69140625 36.001" stroke="#1ac5da" stroke-width="1.3" fill="none" stroke-dasharray="0 0" style=""></path></g></g><g class="node default" id="container-classId-5e Photo analysis-5" data-look="classic" transform="translate(468.953125, 751)"><g class="basic label-container outer-path"><path d="M-139.56640625 -63 L139.56640625 -63 L139.56640625 63 L-139.56640625 63" stroke="none" stroke-width="0" fill="#0b4261" style=""></path><path d="M-139.56640625 -63 C-75.50698659575792 -63, -11.447566941515845 -63, 139.56640625 -63 M-139.56640625 -63 C-76.18403527458912 -63, -12.801664299178242 -63, 139.56640625 -63 M139.56640625 -63 C139.56640625 -31.017092535688526, 139.56640625 0.9658149286229474, 139.56640625 63 M139.56640625 -63 C139.56640625 -36.230429510777924, 139.56640625 -9.460859021555855, 139.56640625 63 M139.56640625 63 C51.73411602153983 63, -36.09817420692033 63, -139.56640625 63 M139.56640625 63 C63.423159170481654 63, -12.720087909036693 63, -139.56640625 63 M-139.56640625 63 C-139.56640625 28.353583886773606, -139.56640625 -6.292832226452788, -139.56640625 -63 M-139.56640625 63 C-139.56640625 14.777064863062712, -139.56640625 -33.445870273874576, -139.56640625 -63" stroke="#1ac5da" stroke-width="1.3" fill="none" stroke-dasharray="0 0" style=""></path></g><g class="annotation-group text" transform="translate(0, -39)"></g><g class="label-group text" transform="translate(-69.4296875, -39)"><g class="label" style="font-weight: bolder" transform="translate(0,-12)"><foreignObject width="138.859375" height="24"><div xmlns="http://www.w3.org/1999/xhtml" style="display: table-cell; white-space: nowrap; line-height: 1.5; max-width: 180px; text-align: center;"><span class="nodeLabel markdown-node-label" style=""><p>5e Photo analysis</p></span></div></foreignObject></g></g><g class="members-group text" transform="translate(-127.56640625, 9)"></g><g class="methods-group text" transform="translate(-127.56640625, 39)"><g class="label" style="" transform="translate(0,-12)"><foreignObject width="185.703125" height="24"><div xmlns="http://www.w3.org/1999/xhtml" style="display: table-cell; white-space: nowrap; line-height: 1.5; max-width: 236px; text-align: center;"><span class="nodeLabel markdown-node-label" style=""><p>Multimodal Ollama(llava)</p></span></div></foreignObject></g></g><g class="divider" style=""><path d="M-139.56640625 -15 C-63.49043539024122 -14.999727456008562, 12.585535469517566 -14.999454912017127, 139.56640625 -14.999 M-139.56640625 -15 C-78.30178396743872 -14.999780518020316, -17.037161684877432 -14.99956103604063, 139.56640625 -14.999" stroke="#1ac5da" stroke-width="1.3" fill="none" stroke-dasharray="0 0" style=""></path></g><g class="divider" style=""><path d="M-139.56640625 9 C-60.21893000097843 9.00028426423801, 19.128546248043136 9.00056852847602, 139.56640625 9.001 M-139.56640625 9 C-33.046811107503245 9.00038160900608, 73.47278403499351 9.00076321801216, 139.56640625 9.001" stroke="#1ac5da" stroke-width="1.3" fill="none" stroke-dasharray="0 0" style=""></path></g></g><g class="node default" id="container-classId-5f Observability-6" data-look="classic" transform="translate(468.953125, 924)"><g class="basic label-container outer-path"><path d="M-147.3125 -60 L147.3125 -60 L147.3125 60 L-147.3125 60" stroke="none" stroke-width="0" fill="#0b4261" style=""></path><path d="M-147.3125 -60 C-50.180356832455374 -60, 46.95178633508925 -60, 147.3125 -60 M-147.3125 -60 C-38.33248102079138 -60, 70.64753795841725 -60, 147.3125 -60 M147.3125 -60 C147.3125 -31.619943694832195, 147.3125 -3.239887389664389, 147.3125 60 M147.3125 -60 C147.3125 -33.6838625697455, 147.3125 -7.367725139490993, 147.3125 60 M147.3125 60 C34.266426045326455 60, -78.77964790934709 60, -147.3125 60 M147.3125 60 C85.1063777601481 60, 22.900255520296213 60, -147.3125 60 M-147.3125 60 C-147.3125 27.852237829642057, -147.3125 -4.295524340715886, -147.3125 -60 M-147.3125 60 C-147.3125 15.125060387079785, -147.3125 -29.74987922584043, -147.3125 -60" stroke="#1ac5da" stroke-width="1.3" fill="none" stroke-dasharray="0 0" style=""></path></g><g class="annotation-group text" transform="translate(0, -36)"></g><g class="label-group text" transform="translate(-63.3125, -36)"><g class="label" style="font-weight: bolder" transform="translate(0,-12)"><foreignObject width="126.625" height="24"><div xmlns="http://www.w3.org/1999/xhtml" style="display: table-cell; white-space: nowrap; line-height: 1.5; max-width: 168px; text-align: center;"><span class="nodeLabel markdown-node-label" style=""><p>5f Observability</p></span></div></foreignObject></g></g><g class="members-group text" transform="translate(-135.3125, 12)"><g class="label" style="" transform="translate(0,-12)"><foreignObject width="207.3125" height="24"><div xmlns="http://www.w3.org/1999/xhtml" style="display: table-cell; white-space: nowrap; line-height: 1.5; max-width: 258px; text-align: center;"><span class="nodeLabel markdown-node-label" style=""><p>Off, or OTLP to local MLflow</p></span></div></foreignObject></g></g><g class="methods-group text" transform="translate(-135.3125, 60)"></g><g class="divider" style=""><path d="M-147.3125 -12 C-65.02226614573684 -11.99972069500601, 17.267967708526328 -11.99944139001202, 147.3125 -11.999 M-147.3125 -12 C-41.711187713277795 -11.99964157382338, 63.89012457344441 -11.99928314764676, 147.3125 -11.999" stroke="#1ac5da" stroke-width="1.3" fill="none" stroke-dasharray="0 0" style=""></path></g><g class="divider" style=""><path d="M-147.3125 36 C-56.62916519704572 36.00030779239645, 34.054169605908555 36.00061558479289, 147.3125 36.001 M-147.3125 36 C-50.25094676198309 36.000329440995294, 46.810606476033826 36.00065888199058, 147.3125 36.001" stroke="#1ac5da" stroke-width="1.3" fill="none" stroke-dasharray="0 0" style=""></path></g></g><g class="node default" id="container-classId-5g Bathing-water quality-7" data-look="classic" transform="translate(468.953125, 1094)"><g class="basic label-container outer-path"><path d="M-181.91015625 -60 L181.91015625 -60 L181.91015625 60 L-181.91015625 60" stroke="none" stroke-width="0" fill="#0b4261" style=""></path><path d="M-181.91015625 -60 C-68.54495208116417 -60, 44.82025208767166 -60, 181.91015625 -60 M-181.91015625 -60 C-100.49874187975651 -60, -19.087327509513017 -60, 181.91015625 -60 M181.91015625 -60 C181.91015625 -35.72795580792638, 181.91015625 -11.455911615852756, 181.91015625 60 M181.91015625 -60 C181.91015625 -30.861162959627396, 181.91015625 -1.7223259192547928, 181.91015625 60 M181.91015625 60 C47.98674468338359 60, -85.93666688323282 60, -181.91015625 60 M181.91015625 60 C52.21240632951282 60, -77.48534359097437 60, -181.91015625 60 M-181.91015625 60 C-181.91015625 19.145861905493604, -181.91015625 -21.708276189012793, -181.91015625 -60 M-181.91015625 60 C-181.91015625 17.87582318952034, -181.91015625 -24.24835362095932, -181.91015625 -60" stroke="#1ac5da" stroke-width="1.3" fill="none" stroke-dasharray="0 0" style=""></path></g><g class="annotation-group text" transform="translate(0, -36)"></g><g class="label-group text" transform="translate(-98.5546875, -36)"><g class="label" style="font-weight: bolder" transform="translate(0,-12)"><foreignObject width="197.109375" height="24"><div xmlns="http://www.w3.org/1999/xhtml" style="display: table-cell; white-space: nowrap; line-height: 1.5; max-width: 232px; text-align: center;"><span class="nodeLabel markdown-node-label" style=""><p>5g Bathing-water quality</p></span></div></foreignObject></g></g><g class="members-group text" transform="translate(-169.91015625, 12)"><g class="label" style="" transform="translate(0,-12)"><foreignObject width="241.265625" height="24"><div xmlns="http://www.w3.org/1999/xhtml" style="display: table-cell; white-space: nowrap; line-height: 1.5; max-width: 291px; text-align: center;"><span class="nodeLabel markdown-node-label" style=""><p>IMA/SC feed, auto-selected in SC</p></span></div></foreignObject></g></g><g class="methods-group text" transform="translate(-169.91015625, 60)"></g><g class="divider" style=""><path d="M-181.91015625 -12 C-41.35948608555887 -11.999613681080096, 99.19118407888226 -11.999227362160191, 181.91015625 -11.999 M-181.91015625 -12 C-107.7554185930834 -11.999796177576927, -33.60068093616681 -11.999592355153855, 181.91015625 -11.999" stroke="#1ac5da" stroke-width="1.3" fill="none" stroke-dasharray="0 0" style=""></path></g><g class="divider" style=""><path d="M-181.91015625 36 C-92.23178283777327 36.000246490837185, -2.5534094255465334 36.00049298167436, 181.91015625 36.001 M-181.91015625 36 C-39.672164147621515 36.00039095670916, 102.56582795475697 36.00078191341833, 181.91015625 36.001" stroke="#1ac5da" stroke-width="1.3" fill="none" stroke-dasharray="0 0" style=""></path></g></g><g class="node default" id="container-classId-5h Ocean knowledge-8" data-look="classic" transform="translate(468.953125, 1264)"><g class="basic label-container outer-path"><path d="M-193.875 -60 L193.875 -60 L193.875 60 L-193.875 60" stroke="none" stroke-width="0" fill="#0b4261" style=""></path><path d="M-193.875 -60 C-67.70618758166499 -60, 58.46262483667002 -60, 193.875 -60 M-193.875 -60 C-77.1978386899297 -60, 39.47932262014061 -60, 193.875 -60 M193.875 -60 C193.875 -24.392350551254175, 193.875 11.21529889749165, 193.875 60 M193.875 -60 C193.875 -24.796845975844192, 193.875 10.406308048311615, 193.875 60 M193.875 60 C68.08757959710925 60, -57.69984080578149 60, -193.875 60 M193.875 60 C40.18890256771434 60, -113.49719486457133 60, -193.875 60 M-193.875 60 C-193.875 21.803914512782555, -193.875 -16.39217097443489, -193.875 -60 M-193.875 60 C-193.875 34.916257084253836, -193.875 9.832514168507672, -193.875 -60" stroke="#1ac5da" stroke-width="1.3" fill="none" stroke-dasharray="0 0" style=""></path></g><g class="annotation-group text" transform="translate(0, -36)"></g><g class="label-group text" transform="translate(-82.78125, -36)"><g class="label" style="font-weight: bolder" transform="translate(0,-12)"><foreignObject width="165.5625" height="24"><div xmlns="http://www.w3.org/1999/xhtml" style="display: table-cell; white-space: nowrap; line-height: 1.5; max-width: 206px; text-align: center;"><span class="nodeLabel markdown-node-label" style=""><p>5h Ocean knowledge</p></span></div></foreignObject></g></g><g class="members-group text" transform="translate(-181.875, 12)"><g class="label" style="" transform="translate(0,-12)"><foreignObject width="280.96875" height="24"><div xmlns="http://www.w3.org/1999/xhtml" style="display: table-cell; white-space: nowrap; line-height: 1.5; max-width: 331px; text-align: center;"><span class="nodeLabel markdown-node-label" style=""><p>Local RAG over knowledge markdown</p></span></div></foreignObject></g></g><g class="methods-group text" transform="translate(-181.875, 60)"></g><g class="divider" style=""><path d="M-193.875 -12 C-79.52860309522369 -11.999705102780387, 34.817793809552626 -11.999410205560775, 193.875 -11.999 M-193.875 -12 C-80.79579624453581 -11.999708370847825, 32.283407510928384 -11.999416741695653, 193.875 -11.999" stroke="#1ac5da" stroke-width="1.3" fill="none" stroke-dasharray="0 0" style=""></path></g><g class="divider" style=""><path d="M-193.875 36 C-101.3120606491807 36.00023871808988, -8.749121298361388 36.00047743617976, 193.875 36.001 M-193.875 36 C-67.09113616494433 36.00032697321427, 59.69272767011134 36.00065394642855, 193.875 36.001" stroke="#1ac5da" stroke-width="1.3" fill="none" stroke-dasharray="0 0" style=""></path></g></g></g></g></g><defs><filter id="container-drop-shadow" height="130%" width="130%"><feDropShadow dx="4" dy="4" stdDeviation="0" flood-opacity="0.06" flood-color="#000000"></feDropShadow></filter></defs><defs><filter id="container-drop-shadow-small" height="150%" width="150%"><feDropShadow dx="2" dy="2" stdDeviation="0" flood-opacity="0.06" flood-color="#000000"></feDropShadow></filter></defs><linearGradient id="container-gradient" gradientUnits="objectBoundingBox" x1="0%" y1="0%" x2="100%" y2="0%"><stop offset="0%" stop-color="#1ac5da" stop-opacity="1"></stop><stop offset="100%" stop-color="hsl(81.6279069767, 39.6296296296%, 11.1764705882%)" stop-opacity="1"></stop></linearGradient></svg>