<svg id="container" width="670.828125" xmlns="http://www.w3.org/2000/svg" class="classDiagram" height="1332" viewBox="0 0 670.828125 1332" role="graphics-document document" aria-roledescription="class"><style>#container{font-family:"Open Sans","trebuchet ms",verdana,arial,sans-serif;font-size:16px;fill:#ffffff;}@keyframes edge-animation-frame{from{stroke-dashoffset:0;}}@keyframes dash{to{stroke-dashoffset:0;}}#container .edge-animation-slow{stroke-dasharray:9,5!important;stroke-dashoffset:900;animation:dash 50s linear infinite;stroke-linecap:round;}#container .edge-animation-fast{stroke-dasharray:9,5!important;stroke-dashoffset:900;animation:dash 20s linear infinite;stroke-linecap:round;}#container .error-icon{fill:hsl(21.6279069767, 79.6296296296%, 26.1764705882%);}#container .error-text{fill:rgb(135.0972222224, 203.0833333335, 241.4027777778);stroke:rgb(135.0972222224, 203.0833333335, 241.4027777778);}#container .edge-thickness-normal{stroke-width:1px;}#container .edge-thickness-thick{stroke-width:3.5px;}#container .edge-pattern-solid{stroke-dasharray:0;}#container .edge-thickness-invisible{stroke-width:0;fill:none;}#container .edge-pattern-dashed{stroke-dasharray:3;}#container .edge-pattern-dotted{stroke-dasharray:2;}#container .marker{fill:#1ac5da;stroke:#1ac5da;}#container .marker.cross{stroke:#1ac5da;}#container svg{font-family:"Open Sans","trebuchet ms",verdana,arial,sans-serif;font-size:16px;}#container p{margin:0;}#container g.classGroup text{fill:#1ac5da;stroke:none;font-family:"Open Sans","trebuchet ms",verdana,arial,sans-serif;font-size:10px;}#container g.classGroup text .title{font-weight:bolder;}#container .cluster-label text{fill:rgb(135.0972222224, 203.0833333335, 241.4027777778);}#container .cluster-label span{color:rgb(135.0972222224, 203.0833333335, 241.4027777778);}#container .cluster-label span p{background-color:transparent;}#container .cluster rect{fill:hsl(21.6279069767, 79.6296296296%, 26.1764705882%);stroke:hsl(21.6279069767, 39.6296296296%, 16.1764705882%);stroke-width:1px;}#container .cluster text{fill:rgb(135.0972222224, 203.0833333335, 241.4027777778);}#container .cluster span{color:rgb(135.0972222224, 203.0833333335, 241.4027777778);}#container .nodeLabel,#container .edgeLabel{color:#ffffff;}#container .noteLabel .nodeLabel,#container .noteLabel .edgeLabel{color:#ffffff;}#container .edgeLabel .label rect{fill:#0b4261;}#container .label text{fill:#ffffff;}#container .labelBkg{background:#0b4261;}#container .edgeLabel .label span{background:#0b4261;}#container .classTitle{font-weight:bolder;}#container .node rect,#container .node circle,#container .node ellipse,#container .node polygon,#container .node path{fill:#0b4261;stroke:#1ac5da;stroke-width:1;}#container .divider{stroke:#1ac5da;stroke-width:1;}#container g.clickable{cursor:pointer;}#container g.classGroup rect{fill:#0b4261;stroke:#1ac5da;}#container g.classGroup line{stroke:#1ac5da;stroke-width:1;}#container .classLabel .box{stroke:none;stroke-width:0;fill:#0b4261;opacity:0.5;}#container .classLabel .label{fill:#1ac5da;font-size:10px;}#container .relation{stroke:#1ac5da;stroke-width:1;fill:none;}#container .dashed-line{stroke-dasharray:3;}#container .dotted-line{stroke-dasharray:1 2;}#container [id$="-compositionStart"],#container .composition{fill:#1ac5da!important;stroke:#1ac5da!important;stroke-width:1;}#container [id$="-compositionEnd"],#container .composition{fill:#1ac5da!important;stroke:#1ac5da!important;stroke-width:1;}#container [id$="-dependencyStart"],#container .dependency{fill:#1ac5da!important;stroke:#1ac5da!important;stroke-width:1;}#container [id$="-dependencyEnd"],#container .dependency{fill:#1ac5da!important;stroke:#1ac5da!important;stroke-width:1;}#container [id$="-extensionStart"],#container .extension{fill:transparent!important;stroke:#1ac5da!important;stroke-width:1;}#container [id$="-extensionEnd"],#container .extension{fill:transparent!important;stroke:#1ac5da!important;stroke-width:1;}#container [id$="-aggregationStart"],#container .aggregation{fill:transparent!important;stroke:#1ac5da!important;stroke-width:1;}#container [id$="-aggregationEnd"],#container .aggregation{fill:transparent!important;stroke:#1ac5da!important;stroke-width:1;}#container [id$="-lollipopStart"],#container .lollipop{fill:#0b4261!important;stroke:#1ac5da!important;stroke-width:1;}#container [id$="-lollipopEnd"],#container .lollipop{fill:#0b4261!important;stroke:#1ac5da!important;stroke-width:1;}#container .edgeTerminals{font-size:11px;line-height:initial;}#container .classTitleText{text-anchor:middle;font-size:18px;fill:#ffffff;}#container .edgeLabel[data-look="neo"]{background-color:#082f45;text-align:center;}#container .edgeLabel[data-look="neo"] p{background-color:#082f45;}#container .edgeLabel[data-look="neo"] rect{opacity:0.5;background-color:#082f45;fill:#082f45;}#container .label-icon{display:inline-block;height:1em;overflow:visible;vertical-align:-0.125em;}#container .node .label-icon path{fill:currentColor;stroke:revert;stroke-width:revert;}#container .node .neo-node{stroke:#1ac5da;}#container [data-look="neo"].node rect,#container [data-look="neo"].cluster rect,#container [data-look="neo"].node polygon{stroke:url(#container-gradient);filter:drop-shadow( 1px 2px 2px rgba(185,185,185,1));}#container [data-look="neo"].swimlane.cluster rect{filter:none;}#container [data-look="neo"].node path{stroke:url(#container-gradient);stroke-width:1px;}#container [data-look="neo"].node .outer-path{filter:drop-shadow( 1px 2px 2px rgba(185,185,185,1));}#container [data-look="neo"].node .neo-line path{stroke:#1ac5da;filter:none;}#container [data-look="neo"].node circle{stroke:url(#container-gradient);filter:drop-shadow( 1px 2px 2px rgba(185,185,185,1));}#container [data-look="neo"].node circle .state-start{fill:#000000;}#container [data-look="neo"].icon-shape .icon{fill:url(#container-gradient);filter:drop-shadow( 1px 2px 2px rgba(185,185,185,1));}#container [data-look="neo"].icon-shape .icon-neo path{stroke:url(#container-gradient);filter:drop-shadow( 1px 2px 2px rgba(185,185,185,1));}#container :root{--mermaid-font-family:"Open Sans","trebuchet ms",verdana,arial,sans-serif;}</style><g><defs><marker id="container_class-aggregationStart" class="marker aggregation class" refX="18" refY="7" markerWidth="190" markerHeight="240" orient="auto"><path d="M 18,7 L9,13 L1,7 L9,1 Z"></path></marker></defs><defs><marker id="container_class-aggregationEnd" class="marker aggregation class" refX="1" refY="7" markerWidth="20" markerHeight="28" orient="auto"><path d="M 18,7 L9,13 L1,7 L9,1 Z"></path></marker></defs><defs><marker id="container_class-aggregationStart-margin" class="marker aggregation class" refX="15" refY="7" markerWidth="190" markerHeight="240" orient="auto" markerUnits="userSpaceOnUse"><path d="M 18,7 L9,13 L1,7 L9,1 Z" style="stroke-width: 2;"></path></marker></defs><defs><marker id="container_class-aggregationEnd-margin" class="marker aggregation class" refX="1" refY="7" markerWidth="20" markerHeight="28" orient="auto" markerUnits="userSpaceOnUse"><path d="M 18,7 L9,13 L1,7 L9,1 Z" style="stroke-width: 2;"></path></marker></defs><defs><marker id="container_class-extensionStart" class="marker extension class" refX="18" refY="7" markerWidth="20" markerHeight="28" orient="auto" markerUnits="userSpaceOnUse"><path d="M 1,7 L18,13 V 1 Z"></path></marker></defs><defs><marker id="container_class-extensionEnd" class="marker extension class" refX="1" refY="7" markerWidth="20" markerHeight="28" orient="auto"><path d="M 1,1 V 13 L18,7 Z"></path></marker></defs><marker id="container_class-extensionStart-margin" class="marker extension class" refX="18" refY="7" markerWidth="20" markerHeight="28" orient="auto" markerUnits="userSpaceOnUse" viewBox="0 0 20 14"><polygon points="10,7 18,13 18,1" style="stroke-width: 2; stroke-dasharray: 0;"></polygon></marker><defs><marker id="container_class-extensionEnd-margin" class="marker extension class" refX="9" refY="7" markerWidth="20" markerHeight="28" orient="auto" markerUnits="userSpaceOnUse" viewBox="0 0 20 14"><polygon points="10,1 10,13 18,7" style="stroke-width: 2; stroke-dasharray: 0;"></polygon></marker></defs><defs><marker id="container_class-compositionStart" class="marker composition class" refX="18" refY="7" markerWidth="190" markerHeight="240" orient="auto"><path d="M 18,7 L9,13 L1,7 L9,1 Z"></path></marker></defs><defs><marker id="container_class-compositionEnd" class="marker composition class" refX="1" refY="7" markerWidth="20" markerHeight="28" orient="auto"><path d="M 18,7 L9,13 L1,7 L9,1 Z"></path></marker></defs><defs><marker id="container_class-compositionStart-margin" class="marker composition class" refX="15" refY="7" markerWidth="190" markerHeight="240" orient="auto" markerUnits="userSpaceOnUse"><path viewBox="0 0 15 15" d="M 18,7 L9,13 L1,7 L9,1 Z" style="stroke-width: 0;"></path></marker></defs><defs><marker id="container_class-compositionEnd-margin" class="marker composition class" refX="3.5" refY="7" markerWidth="20" markerHeight="28" orient="auto" markerUnits="userSpaceOnUse"><path d="M 18,7 L9,13 L1,7 L9,1 Z" style="stroke-width: 0;"></path></marker></defs><defs><marker id="container_class-dependencyStart" class="marker dependency class" refX="6" refY="7" markerWidth="190" markerHeight="240" orient="auto"><path d="M 5,7 L9,13 L1,7 L9,1 Z"></path></marker></defs><defs><marker id="container_class-dependencyEnd" class="marker dependency class" refX="13" refY="7" markerWidth="20" markerHeight="28" orient="auto"><path d="M 18,7 L9,13 L14,7 L9,1 Z"></path></marker></defs><defs><marker id="container_class-dependencyStart-margin" class="marker dependency class" refX="4" refY="7" markerWidth="190" markerHeight="240" orient="auto" markerUnits="userSpaceOnUse"><path d="M 5,7 L9,13 L1,7 L9,1 Z" style="stroke-width: 0;"></path></marker></defs><defs><marker id="container_class-dependencyEnd-margin" class="marker dependency class" refX="16" refY="7" markerWidth="20" markerHeight="28" orient="auto" markerUnits="userSpaceOnUse"><path d="M 18,7 L9,13 L14,7 L9,1 Z" style="stroke-width: 0;"></path></marker></defs><defs><marker id="container_class-lollipopStart" class="marker lollipop class" refX="13" refY="7" markerWidth="190" markerHeight="240" orient="auto"><circle fill="transparent" cx="7" cy="7" r="6"></circle></marker></defs><defs><marker id="container_class-lollipopEnd" class="marker lollipop class" refX="1" refY="7" markerWidth="190" markerHeight="240" orient="auto"><circle fill="transparent" cx="7" cy="7" r="6"></circle></marker></defs><defs><marker id="container_class-lollipopStart-margin" class="marker lollipop class" refX="13" refY="7" markerWidth="190" markerHeight="240" orient="auto" markerUnits="userSpaceOnUse"><circle fill="transparent" cx="7" cy="7" r="6" stroke-width="2"></circle></marker></defs><defs><marker id="container_class-lollipopEnd-margin" class="marker lollipop class" refX="1" refY="7" markerWidth="190" markerHeight="240" orient="auto" markerUnits="userSpaceOnUse"><circle fill="transparent" cx="7" cy="7" r="6" stroke-width="2"></circle></marker></defs><g class="root"><g class="clusters"></g><g class="edgePaths"><path d="M125.942,622.5L146.631,530.083C167.32,437.667,208.699,252.833,234.384,160.417C260.068,68,270.057,68,275.052,68L280.047,68" id="container-id_5 Pluggable integrations_5a Query synthesis_1" class="edge-thickness-normal edge-pattern-solid relation" style=";;;" data-edge="true" data-et="edge" data-id="id_5 Pluggable integrations_5a Query synthesis_1" data-points="W3sieCI6MTI1Ljk0MTY0NTI3NDUxODAyLCJ5Ijo2MjIuNX0seyJ4IjoyNTAuMDc4MTI1LCJ5Ijo2OH0seyJ4IjoyODYuMDQ2ODc1LCJ5Ijo2OH1d" data-look="classic" marker-end="url(#container_class-dependencyEnd)"></path><path d="M129.689,622.5L149.754,558.417C169.819,494.333,209.949,366.167,251.271,302.083C292.594,238,335.109,238,356.367,238L377.625,238" id="container-id_5 Pluggable integrations_5b Beach distance_2" class="edge-thickness-normal edge-pattern-solid relation" style=";;;" data-edge="true" data-et="edge" data-id="id_5 Pluggable integrations_5b Beach distance_2" data-points="W3sieCI6MTI5LjY4OTQ1MDgzNTI4NzIzLCJ5Ijo2MjIuNX0seyJ4IjoyNTAuMDc4MTI1LCJ5IjoyMzh9LHsieCI6MzgzLjYyNSwieSI6MjM4fV0=" data-look="classic" marker-end="url(#container_class-dependencyEnd)"></path><path d="M138.405,622.5L157.017,586.75C175.629,551,212.854,479.5,244.138,443.75C275.422,408,300.766,408,313.438,408L326.109,408" id="container-id_5 Pluggable integrations_5c Agentic tool access_3" class="edge-thickness-normal edge-pattern-solid relation" style=";;;" data-edge="true" data-et="edge" data-id="id_5 Pluggable integrations_5c Agentic tool access_3" data-points="W3sieCI6MTM4LjQwNTEwNzgyMTYzNzQyLCJ5Ijo2MjIuNX0seyJ4IjoyNTAuMDc4MTI1LCJ5Ijo0MDh9LHsieCI6MzMyLjEwOTM3NSwieSI6NDA4fV0=" data-look="classic" marker-end="url(#container_class-dependencyEnd)"></path><path d="M181.379,622.5L192.829,615.083C204.279,607.667,227.178,592.833,257.159,585.417C287.139,578,324.201,578,342.731,578L361.262,578" id="container-id_5 Pluggable integrations_5d Sighting reports_4" class="edge-thickness-normal edge-pattern-solid relation" style=";;;" data-edge="true" data-et="edge" data-id="id_5 Pluggable integrations_5d Sighting reports_4" data-points="W3sieCI6MTgxLjM3ODgzODUxMTU2MDY3LCJ5Ijo2MjIuNX0seyJ4IjoyNTAuMDc4MTI1LCJ5Ijo1Nzh9LHsieCI6MzY3LjI2MTcxODc1LCJ5Ijo1Nzh9XQ==" data-look="classic" marker-end="url(#container_class-dependencyEnd)"></path><path d="M181.379,706.5L192.829,713.917C204.279,721.333,227.178,736.167,250.846,743.583C274.514,751,298.951,751,311.169,751L323.387,751" id="container-id_5 Pluggable integrations_5e Photo analysis_5" class="edge-thickness-normal edge-pattern-solid relation" style=";;;" data-edge="true" data-et="edge" data-id="id_5 Pluggable integrations_5e Photo analysis_5" data-points="W3sieCI6MTgxLjM3ODgzODUxMTU2MDY3LCJ5Ijo3MDYuNX0seyJ4IjoyNTAuMDc4MTI1LCJ5Ijo3NTF9LHsieCI6MzI5LjM4NjcxODc1LCJ5Ijo3NTF9XQ==" data-look="classic" marker-end="url(#container_class-dependencyEnd)"></path><path d="M138.152,706.5L156.807,742.75C175.461,779,212.77,851.5,242.351,887.75C271.932,924,293.786,924,304.714,924L315.641,924" id="container-id_5 Pluggable integrations_5f Observability_6" class="edge-thickness-normal edge-pattern-solid relation" style=";;;" data-edge="true" data-et="edge" data-id="id_5 Pluggable integrations_5f Observability_6" data-points="W3sieCI6MTM4LjE1MjMyMTE3MDUyMDIyLCJ5Ijo3MDYuNX0seyJ4IjoyNTAuMDc4MTI1LCJ5Ijo5MjR9LHsieCI6MzIxLjY0MDYyNSwieSI6OTI0fV0=" data-look="classic" marker-end="url(#container_class-dependencyEnd)"></path><path d="M129.598,706.5L149.678,771.083C169.758,835.667,209.918,964.833,235.159,1029.417C260.4,1094,270.721,1094,275.882,1094L281.043,1094" id="container-id_5 Pluggable integrations_5g Bathing-water quality_7" class="edge-thickness-normal edge-pattern-solid relation" style=";;;" data-edge="true" data-et="edge" data-id="id_5 Pluggable integrations_5g Bathing-water quality_7" data-points="W3sieCI6MTI5LjU5NzU5NzEzMzI5NDUzLCJ5Ijo3MDYuNX0seyJ4IjoyNTAuMDc4MTI1LCJ5IjoxMDk0fSx7IngiOjI4Ny4wNDI5Njg3NSwieSI6MTA5NH1d" data-look="classic" marker-end="url(#container_class-dependencyEnd)"></path><path d="M125.895,706.5L146.592,799.417C167.289,892.333,208.684,1078.167,232.548,1171.083C256.411,1264,262.745,1264,265.911,1264L269.078,1264" id="container-id_5 Pluggable integrations_5h Ocean knowledge_8" class="edge-thickness-normal edge-pattern-solid relation" style=";;;" data-edge="true" data-et="edge" data-id="id_5 Pluggable integrations_5h Ocean knowledge_8" data-points="W3sieCI6MTI1Ljg5NDU5MzE1MDU0MjEyLCJ5Ijo3MDYuNX0seyJ4IjoyNTAuMDc4MTI1LCJ5IjoxMjY0fSx7IngiOjI3NS4wNzgxMjUsInkiOjEyNjR9XQ==" data-look="classic" marker-end="url(#container_class-dependencyEnd)"></path></g><g class="edgeLabels"><g class="edgeLabel"><g class="label" data-id="id_5 Pluggable integrations_5a Query synthesis_1" transform="translate(0, 0)"><foreignObject width="0" height="0"><div xmlns="http://www.w3.org/1999/xhtml" class="labelBkg" style="display: table-cell; white-space: nowrap; line-height: 1.5; max-width: 200px; text-align: center;"><span class="edgeLabel"></span></div></foreignObject></g></g><g class="edgeLabel"><g class="label" data-id="id_5 Pluggable integrations_5b Beach distance_2" transform="translate(0, 0)"><foreignObject width="0" height="0"><div xmlns="http://www.w3.org/1999/xhtml" class="labelBkg" style="display: table-cell; white-space: nowrap; line-height: 1.5; max-width: 200px; text-align: center;"><span class="edgeLabel"></span></div></foreignObject></g></g><g class="edgeLabel"><g class="label" data-id="id_5 Pluggable integrations_5c Agentic tool access_3" transform="translate(0, 0)"><foreignObject width="0" height="0"><div xmlns="http://www.w3.org/1999/xhtml" class="labelBkg" style="display: table-cell; white-space: nowrap; line-height: 1.5; max-width: 200px; text-align: center;"><span class="edgeLabel"></span></div></foreignObject></g></g><g class="edgeLabel"><g class="label" data-id="id_5 Pluggable integrations_5d Sighting reports_4" transform="translate(0, 0)"><foreignObject width="0" height="0"><div xmlns="http://www.w3.org/1999/xhtml" class="labelBkg" style="display: table-cell; white-space: nowrap; line-height: 1.5; max-width: 200px; text-align: center;"><span class="edgeLabel"></span></div></foreignObject></g></g><g class="edgeLabel"><g class="label" data-id="id_5 Pluggable integrations_5e Photo analysis_5" transform="translate(0, 0)"><foreignObject width="0" height="0"><div xmlns="http://www.w3.org/1999/xhtml" class="labelBkg" style="display: table-cell; white-space: nowrap; line-height: 1.5; max-width: 200px; text-align: center;"><span class="edgeLabel"></span></div></foreignObject></g></g><g class="edgeLabel"><g class="label" data-id="id_5 Pluggable integrations_5f Observability_6" transform="translate(0, 0)"><foreignObject width="0" height="0"><div xmlns="http://www.w3.org/1999/xhtml" class="labelBkg" style="display: table-cell; white-space: nowrap; line-height: 1.5; max-width: 200px; text-align: center;"><span class="edgeLabel"></span></div></foreignObject></g></g><g class="edgeLabel"><g class="label" data-id="id_5 Pluggable integrations_5g Bathing-water quality_7" transform="translate(0, 0)"><foreignObject width="0" height="0"><div xmlns="http://www.w3.org/1999/xhtml" class="labelBkg" style="display: table-cell; white-space: nowrap; line-height: 1.5; max-width: 200px; text-align: center;"><span class="edgeLabel"></span></div></foreignObject></g></g><g class="edgeLabel"><g class="label" data-id="id_5 Pluggable integrations_5h Ocean knowledge_8" transform="translate(0, 0)"><foreignObject width="0" height="0"><div xmlns="http://www.w3.org/1999/xhtml" class="labelBkg" style="display: table-cell; white-space: nowrap; line-height: 1.5; max-width: 200px; text-align: center;"><span class="edgeLabel"></span></div></foreignObject></g></g></g><g class="nodes"><g class="node default" id="container-classId-5 Pluggable integrations-0" data-look="classic" transform="translate(116.5390625, 664.5)"><g class="basic label-container outer-path"><path d="M-108.5390625 -42 L108.5390625 -42 L108.5390625 42 L-108.5390625 42" stroke="none" stroke-width="0" fill="#0b4261" style=""></path><path d="M-108.5390625 -42 C-55.67741869282683 -42, -2.815774885653667 -42, 108.5390625 -42 M-108.5390625 -42 C-60.34791593313047 -42, -12.156769366260946 -42, 108.5390625 -42 M108.5390625 -42 C108.5390625 -14.05368556325918, 108.5390625 13.892628873481641, 108.5390625 42 M108.5390625 -42 C108.5390625 -23.42742385983224, 108.5390625 -4.854847719664477, 108.5390625 42 M108.5390625 42 C28.54304321525781 42, -51.45297606948438 42, -108.5390625 42 M108.5390625 42 C22.54176347615902 42, -63.45553554768196 42, -108.5390625 42 M-108.5390625 42 C-108.5390625 21.913529816750287, -108.5390625 1.8270596335005749, -108.5390625 -42 M-108.5390625 42 C-108.5390625 20.003806451408202, -108.5390625 -1.9923870971835953, -108.5390625 -42" stroke="#1ac5da" stroke-width="1.3" fill="none" stroke-dasharray="0 0" style=""></path></g><g class="annotation-group text" transform="translate(0, -18)"></g><g class="label-group text" transform="translate(-96.5390625, -18)"><g class="label" style="font-weight: bolder" transform="translate(0,-12)"><foreignObject width="193.078125" height="24"><div xmlns="http://www.w3.org/1999/xhtml" style="display: table-cell; white-space: nowrap; line-height: 1.5; max-width: 229px; text-align: center;"><span class="nodeLabel markdown-node-label" style=""><p>5 Pluggable integrations</p></span></div></foreignObject></g></g><g class="members-group text" transform="translate(-96.5390625, 30)"></g><g class="methods-group text" transform="translate(-96.5390625, 60)"></g><g class="divider" style=""><path d="M-108.5390625 6 C-39.81527768384139 6.000316585491127, 28.908507132317226 6.000633170982256, 108.5390625 6.001 M-108.5390625 6 C-44.6443431346814 6.000294339742272, 19.2503762306372 6.000588679484544, 108.5390625 6.001" stroke="#1ac5da" stroke-width="1.3" fill="none" stroke-dasharray="0 0" style=""></path></g><g class="divider" style=""><path d="M-108.5390625 24 C-25.2636714037603 24.000383619450815, 58.0117196924794 24.00076723890163, 108.5390625 24.001 M-108.5390625 24 C-30.97307297325169 24.00035731831352, 46.59291655349662 24.000714636627038, 108.5390625 24.001" stroke="#1ac5da" stroke-width="1.3" fill="none" stroke-dasharray="0 0" style=""></path></g></g><g class="node default" id="container-classId-5a Query synthesis-1" data-look="classic" transform="translate(468.953125, 68)"><g class="basic label-container outer-path"><path d="M-182.90625 -60 L182.90625 -60 L182.90625 60 L-182.90625 60" stroke="none" stroke-width="0" fill="#0b4261" style=""></path><path d="M-182.90625 -60 C-76.71893960964393 -60, 29.46837078071215 -60, 182.90625 -60 M-182.90625 -60 C-96.0089661300708 -60, -9.111682260141606 -60, 182.90625 -60 M182.90625 -60 C182.90625 -32.48183699143925, 182.90625 -4.963673982878504, 182.90625 60 M182.90625 -60 C182.90625 -24.966360629530023, 182.90625 10.067278740939955, 182.90625 60 M182.90625 60 C37.12534469435579 60, -108.65556061128842 60, -182.90625 60 M182.90625 60 C49.99732299822074 60, -82.91160400355852 60, -182.90625 60 M-182.90625 60 C-182.90625 32.663131280508836, -182.90625 5.326262561017664, -182.90625 -60 M-182.90625 60 C-182.90625 21.02738827794704, -182.90625 -17.94522344410592, -182.90625 -60" stroke="#1ac5da" stroke-width="1.3" fill="none" stroke-dasharray="0 0" style=""></path></g><g class="annotation-group text" transform="translate(0, -36)"></g><g class="label-group text" transform="translate(-75.734375, -36)"><g class="label" style="font-weight: bolder" transform="translate(0,-12)"><foreignObject width="151.46875" height="24"><div xmlns="http://www.w3.org/1999/xhtml" style="display: table-cell; white-space: nowrap; line-height: 1.5; max-width: 191px; text-align: center;"><span class="nodeLabel markdown-node-label" style=""><p>5a Query synthesis</p></span></div></foreignObject></g></g><g class="members-group text" transform="translate(-170.90625, 12)"><g class="label" style="" transform="translate(0,-12)"><foreignObject width="266.078125" height="24"><div xmlns="http://www.w3.org/1999/xhtml" style="display: table-cell; white-space: nowrap; line-height: 1.5; max-width: 316px; text-align: center;"><span class="nodeLabel markdown-node-label" style=""><p>Ollama-compatible chat completion</p></span></div></foreignObject></g></g><g class="methods-group text" transform="translate(-170.90625, 60)"></g><g class="divider" style=""><path d="M-182.90625 -12 C-69.08669000122875 -11.999688858199217, 44.73286999754251 -11.999377716398435, 182.90625 -11.999 M-182.90625 -12 C-108.02955383721142 -11.999795314003315, -33.15285767442285 -11.999590628006628, 182.90625 -11.999" stroke="#1ac5da" stroke-width="1.3" fill="none" stroke-dasharray="0 0" style=""></path></g><g class="divider" style=""><path d="M-182.90625 36 C-96.12232335482383 36.00023723608856, -9.338396709647668 36.00047447217711, 182.90625 36.001 M-182.90625 36 C-50.17788922058409 36.00036283167136, 82.55047155883182 36.00072566334272, 182.90625 36.001" stroke="#1ac5da" stroke-width="1.3" fill="none" stroke-dasharray="0 0" style=""></path></g></g><g class="node default" id="container-classId-5b Beach distance-2" data-look="classic" transform="translate(468.953125, 238)"><g class="basic label-container outer-path"><path d="M-85.328125 -60 L85.328125 -60 L85.328125 60 L-85.328125 60" stroke="none" stroke-width="0" fill="#0b4261" style=""></path><path d="M-85.328125 -60 C-50.669866465188775 -60, -16.01160793037755 -60, 85.328125 -60 M-85.328125 -60 C-46.55215093691041 -60, -7.776176873820816 -60, 85.328125 -60 M85.328125 -60 C85.328125 -28.105178583897406, 85.328125 3.789642832205189, 85.328125 60 M85.328125 -60 C85.328125 -30.55742264371358, 85.328125 -1.1148452874271584, 85.328125 60 M85.328125 60 C42.12009576816264 60, -1.087933463674716 60, -85.328125 60 M85.328125 60 C33.48457132969214 60, -18.358982340615725 60, -85.328125 60 M-85.328125 60 C-85.328125 31.010999048372657, -85.328125 2.021998096745314, -85.328125 -60 M-85.328125 60 C-85.328125 26.646629794407332, -85.328125 -6.706740411185336, -85.328125 -60" stroke="#1ac5da" stroke-width="1.3" fill="none" stroke-dasharray="0 0" style=""></path></g><g class="annotation-group text" transform="translate(0, -36)"></g><g class="label-group text" transform="translate(-71.984375, -36)"><g class="label" style="font-weight: bolder" transform="translate(0,-12)"><foreignObject width="143.96875" height="24"><div xmlns="http://www.w3.org/1999/xhtml" style="display: table-cell; white-space: nowrap; line-height: 1.5; max-width: 185px; text-align: center;"><span class="nodeLabel markdown-node-label" style=""><p>5b Beach distance</p></span></div></foreignObject></g></g><g class="members-group text" transform="translate(-73.328125, 12)"><g class="label" style="" transform="translate(0,-12)"><foreignObject width="74.671875" height="24"><div xmlns="http://www.w3.org/1999/xhtml" style="display: table-cell; white-space: nowrap; line-height: 1.5; max-width: 125px; text-align: center;"><span class="nodeLabel markdown-node-label" style=""><p>Haversine</p></span></div></foreignObject></g></g><g class="methods-group text" transform="translate(-73.328125, 60)"></g><g class="divider" style=""><path d="M-85.328125 -12 C-30.040219948804875 -11.999676027657639, 25.24768510239025 -11.999352055315276, 85.328125 -11.999 M-85.328125 -12 C-46.647649360339805 -11.999773342753988, -7.967173720679611 -11.999546685507978, 85.328125 -11.999" stroke="#1ac5da" stroke-width="1.3" fill="none" stroke-dasharray="0 0" style=""></path></g><g class="divider" style=""><path d="M-85.328125 36 C-37.16362080415555 36.000282231117794, 11.000883391688902 36.00056446223559, 85.328125 36.001 M-85.328125 36 C-48.16595408414933 36.00021776038625, -11.003783168298654 36.0004355207725, 85.328125 36.001" stroke="#1ac5da" stroke-width="1.3" fill="none" stroke-dasharray="0 0" style=""></path></g></g><g class="node default" id="container-classId-5c Agentic tool access-3" data-look="classic" transform="translate(468.953125, 408)"><g class="basic label-container outer-path"><path d="M-136.84375 -60 L136.84375 -60 L136.84375 60 L-136.84375 60" stroke="none" stroke-width="0" fill="#0b4261" style=""></path><path d="M-136.84375 -60 C-27.5103860002405 -60, 81.822977999519 -60, 136.84375 -60 M-136.84375 -60 C-31.05061458154863 -60, 74.74252083690274 -60, 136.84375 -60 M136.84375 -60 C136.84375 -33.69648292107598, 136.84375 -7.392965842151966, 136.84375 60 M136.84375 -60 C136.84375 -13.561428015388927, 136.84375 32.877143969222146, 136.84375 60 M136.84375 60 C44.685336044852704 60, -47.47307791029459 60, -136.84375 60 M136.84375 60 C32.34909172645487 60, -72.14556654709025 60, -136.84375 60 M-136.84375 60 C-136.84375 26.285987162125046, -136.84375 -7.4280256757499075, -136.84375 -60 M-136.84375 60 C-136.84375 28.396153109828685, -136.84375 -3.2076937803426304, -136.84375 -60" stroke="#1ac5da" stroke-width="1.3" fill="none" stroke-dasharray="0 0" style=""></path></g><g class="annotation-group text" transform="translate(0, -36)"></g><g class="label-group text" transform="translate(-86.53125, -36)"><g class="label" style="font-weight: bolder" transform="translate(0,-12)"><foreignObject width="173.0625" height="24"><div xmlns="http://www.w3.org/1999/xhtml" style="display: table-cell; white-space: nowrap; line-height: 1.5; max-width: 212px; text-align: center;"><span class="nodeLabel markdown-node-label" style=""><p>5c Agentic tool access</p></span></div></foreignObject></g></g><g class="members-group text" transform="translate(-124.84375, 12)"><g class="label" style="" transform="translate(0,-12)"><foreignObject width="163.15625" height="24"><div xmlns="http://www.w3.org/1999/xhtml" style="display: table-cell; white-space: nowrap; line-height: 1.5; max-width: 213px; text-align: center;"><span class="nodeLabel markdown-node-label" style=""><p>MCP server over stdio</p></span></div></foreignObject></g></g><g class="methods-group text" transform="translate(-124.84375, 60)"></g><g class="divider" style=""><path d="M-136.84375 -12 C-72.23530806162218 -11.999763933530255, -7.626866123244355 -11.99952786706051, 136.84375 -11.999 M-136.84375 -12 C-77.65578270373747 -11.999783738872633, -18.467815407474944 -11.999567477745266, 136.84375 -11.999" stroke="#1ac5da" stroke-width="1.3" fill="none" stroke-dasharray="0 0" style=""></path></g><g class="divider" style=""><path d="M-136.84375 36 C-64.9404895258337 36.00026272029404, 6.962770948332604 36.00052544058807, 136.84375 36.001 M-136.84375 36 C-32.17257121919869 36.00038244778728, 72.49860756160263 36.000764895574555, 136.84375 36.001" stroke="#1ac5da" stroke-width="1.3" fill="none" stroke-dasharray="0 0" style=""></path></g></g><g class="node default" id="container-classId-5d Sighting reports-4" data-look="classic" transform="translate(468.953125, 578)"><g class="basic label-container outer-path"><path d="M-101.69140625 -60 L101.69140625 -60 L101.69140625 60 L-101.69140625 60" stroke="none" stroke-width="0" fill="#0b4261" style=""></path><path d="M-101.69140625 -60 C-55.222603440030404 -60, -8.753800630060809 -60, 101.69140625 -60 M-101.69140625 -60 C-36.72168654565154 -60, 28.248033158696927 -60, 101.69140625 -60 M101.69140625 -60 C101.69140625 -34.76075164012336, 101.69140625 -9.521503280246726, 101.69140625 60 M101.69140625 -60 C101.69140625 -22.0574029313566, 101.69140625 15.885194137286803, 101.69140625 60 M101.69140625 60 C53.638202059021474 60, 5.584997868042947 60, -101.69140625 60 M101.69140625 60 C38.51826872396272 60, -24.65486880207456 60, -101.69140625 60 M-101.69140625 60 C-101.69140625 31.473406182466185, -101.69140625 2.94681236493237, -101.69140625 -60 M-101.69140625 60 C-101.69140625 30.080225422384537, -101.69140625 0.16045084476907334, -101.69140625 -60" stroke="#1ac5da" stroke-width="1.3" fill="none" stroke-dasharray="0 0" style=""></path></g><g class="annotation-group text" transform="translate(0, -36)"></g><g class="label-group text" transform="translate(-75.5703125, -36)"><g class="label" style="font-weight: bolder" transform="translate(0,-12)"><foreignObject width="151.140625" height="24"><div xmlns="http://www.w3.org/1999/xhtml" style="display: table-cell; white-space: nowrap; line-height: 1.5; max-width: 192px; text-align: center;"><span class="nodeLabel markdown-node-label" style=""><p>5d Sighting reports</p></span></div></foreignObject></g></g><g class="members-group text" transform="translate(-89.69140625, 12)"><g class="label" style="" transform="translate(0,-12)"><foreignObject width="103.8125" height="24"><div xmlns="http://www.w3.org/1999/xhtml" style="display: table-cell; white-space: nowrap; line-height: 1.5; max-width: 156px; text-align: center;"><span class="nodeLabel markdown-node-label" style=""><p>JSON-lines file</p></span></div></foreignObject></g></g><g class="methods-group text" transform="translate(-89.69140625, 60)"></g><g class="divider" style=""><path d="M-101.69140625 -12 C-38.72598491718619 -11.99969040932929, 24.239436415627623 -11.99938081865858, 101.69140625 -11.999 M-101.69140625 -12 C-38.42988296855128 -11.999688953444474, 24.831640312897434 -11.999377906888947, 101.69140625 -11.999" stroke="#1ac5da" stroke-width="1.3" fill="none" stroke-dasharray="0 0" style=""></path></g><g class="divider" style=""><path d="M-101.69140625 36 C-32.13937237613996 36.0003419759665, 37.41266149772008 36.000683951933, 101.69140625 36.001 M-101.69140625 36 C-40.36691962719225 36.000301522463324, 20.957566995615494 36.00060304492665, 101.69140625 36.001" stroke="#1ac5da" stroke-width="1.3" fill="none" stroke-dasharray="0 0" style=""></path></g></g><g class="node default" id="container-classId-5e Photo analysis-5" data-look="classic" transform="translate(468.953125, 751)"><g class="basic label-container outer-path"><path d="M-139.56640625 -63 L139.56640625 -63 L139.56640625 63 L-139.56640625 63" stroke="none" stroke-width="0" fill="#0b4261" style=""></path><path d="M-139.56640625 -63 C-72.36428201778013 -63, -5.162157785560254 -63, 139.56640625 -63 M-139.56640625 -63 C-44.83255848451522 -63, 49.901289280969564 -63, 139.56640625 -63 M139.56640625 -63 C139.56640625 -27.87117428213191, 139.56640625 7.257651435736179, 139.56640625 63 M139.56640625 -63 C139.56640625 -31.502917470551225, 139.56640625 -0.00583494110244942, 139.56640625 63 M139.56640625 63 C83.04971784114116 63, 26.533029432282305 63, -139.56640625 63 M139.56640625 63 C39.456827228957536 63, -60.65275179208493 63, -139.56640625 63 M-139.56640625 63 C-139.56640625 13.769209173211934, -139.56640625 -35.46158165357613, -139.56640625 -63 M-139.56640625 63 C-139.56640625 22.605819455559086, -139.56640625 -17.788361088881828, -139.56640625 -63" stroke="#1ac5da" stroke-width="1.3" fill="none" stroke-dasharray="0 0" style=""></path></g><g class="annotation-group text" transform="translate(0, -39)"></g><g class="label-group text" transform="translate(-69.4296875, -39)"><g class="label" style="font-weight: bolder" transform="translate(0,-12)"><foreignObject width="138.859375" height="24"><div xmlns="http://www.w3.org/1999/xhtml" style="display: table-cell; white-space: nowrap; line-height: 1.5; max-width: 180px; text-align: center;"><span class="nodeLabel markdown-node-label" style=""><p>5e Photo analysis</p></span></div></foreignObject></g></g><g class="members-group text" transform="translate(-127.56640625, 9)"></g><g class="methods-group text" transform="translate(-127.56640625, 39)"><g class="label" style="" transform="translate(0,-12)"><foreignObject width="185.703125" height="24"><div xmlns="http://www.w3.org/1999/xhtml" style="display: table-cell; white-space: nowrap; line-height: 1.5; max-width: 236px; text-align: center;"><span class="nodeLabel markdown-node-label" style=""><p>Multimodal Ollama(llava)</p></span></div></foreignObject></g></g><g class="divider" style=""><path d="M-139.56640625 -15 C-43.906405897818644 -14.999657295752888, 51.75359445436271 -14.999314591505776, 139.56640625 -14.999 M-139.56640625 -15 C-56.02642327832662 -14.999700716006036, 27.513559693346764 -14.999401432012071, 139.56640625 -14.999" stroke="#1ac5da" stroke-width="1.3" fill="none" stroke-dasharray="0 0" style=""></path></g><g class="divider" style=""><path d="M-139.56640625 9 C-32.18294888100198 9.00038470381324, 75.20050848799605 9.000769407626478, 139.56640625 9.001 M-139.56640625 9 C-66.17667789802856 9.000262920463182, 7.213050453942884 9.000525840926365, 139.56640625 9.001" stroke="#1ac5da" stroke-width="1.3" fill="none" stroke-dasharray="0 0" style=""></path></g></g><g class="node default" id="container-classId-5f Observability-6" data-look="classic" transform="translate(468.953125, 924)"><g class="basic label-container outer-path"><path d="M-147.3125 -60 L147.3125 -60 L147.3125 60 L-147.3125 60" stroke="none" stroke-width="0" fill="#0b4261" style=""></path><path d="M-147.3125 -60 C-39.12655031297412 -60, 69.05939937405176 -60, 147.3125 -60 M-147.3125 -60 C-70.99980552519224 -60, 5.3128889496155125 -60, 147.3125 -60 M147.3125 -60 C147.3125 -16.349846864114888, 147.3125 27.300306271770225, 147.3125 60 M147.3125 -60 C147.3125 -14.110443420320898, 147.3125 31.779113159358204, 147.3125 60 M147.3125 60 C54.0006777520602 60, -39.3111444958796 60, -147.3125 60 M147.3125 60 C69.89723445460633 60, -7.518031090787332 60, -147.3125 60 M-147.3125 60 C-147.3125 29.632841542434992, -147.3125 -0.734316915130016, -147.3125 -60 M-147.3125 60 C-147.3125 30.512479424461752, -147.3125 1.0249588489235038, -147.3125 -60" stroke="#1ac5da" stroke-width="1.3" fill="none" stroke-dasharray="0 0" style=""></path></g><g class="annotation-group text" transform="translate(0, -36)"></g><g class="label-group text" transform="translate(-63.3125, -36)"><g class="label" style="font-weight: bolder" transform="translate(0,-12)"><foreignObject width="126.625" height="24"><div xmlns="http://www.w3.org/1999/xhtml" style="display: table-cell; white-space: nowrap; line-height: 1.5; max-width: 168px; text-align: center;"><span class="nodeLabel markdown-node-label" style=""><p>5f Observability</p></span></div></foreignObject></g></g><g class="members-group text" transform="translate(-135.3125, 12)"><g class="label" style="" transform="translate(0,-12)"><foreignObject width="207.3125" height="24"><div xmlns="http://www.w3.org/1999/xhtml" style="display: table-cell; white-space: nowrap; line-height: 1.5; max-width: 258px; text-align: center;"><span class="nodeLabel markdown-node-label" style=""><p>Off, or OTLP to local MLflow</p></span></div></foreignObject></g></g><g class="methods-group text" transform="translate(-135.3125, 60)"></g><g class="divider" style=""><path d="M-147.3125 -12 C-71.89704115358191 -11.999744028989914, 3.5184176928361808 -11.99948805797983, 147.3125 -11.999 M-147.3125 -12 C-38.18291056093122 -11.999629598338773, 70.94667887813756 -11.999259196677546, 147.3125 -11.999" stroke="#1ac5da" stroke-width="1.3" fill="none" stroke-dasharray="0 0" style=""></path></g><g class="divider" style=""><path d="M-147.3125 36 C-49.130478774279666 36.00033324402622, 49.05154245144067 36.000666488052445, 147.3125 36.001 M-147.3125 36 C-45.977715265573565 36.000343944963035, 55.35706946885287 36.00068788992607, 147.3125 36.001" stroke="#1ac5da" stroke-width="1.3" fill="none" stroke-dasharray="0 0" style=""></path></g></g><g class="node default" id="container-classId-5g Bathing-water quality-7" data-look="classic" transform="translate(468.953125, 1094)"><g class="basic label-container outer-path"><path d="M-181.91015625 -60 L181.91015625 -60 L181.91015625 60 L-181.91015625 60" stroke="none" stroke-width="0" fill="#0b4261" style=""></path><path d="M-181.91015625 -60 C-65.13747096442768 -60, 51.635214321144645 -60, 181.91015625 -60 M-181.91015625 -60 C-90.21968163195503 -60, 1.470792986089947 -60, 181.91015625 -60 M181.91015625 -60 C181.91015625 -28.514998900780494, 181.91015625 2.970002198439012, 181.91015625 60 M181.91015625 -60 C181.91015625 -16.382762360323106, 181.91015625 27.234475279353788, 181.91015625 60 M181.91015625 60 C76.70741144001627 60, -28.495333369967454 60, -181.91015625 60 M181.91015625 60 C77.737038025541 60, -26.436080198918006 60, -181.91015625 60 M-181.91015625 60 C-181.91015625 19.31153581142558, -181.91015625 -21.376928377148843, -181.91015625 -60 M-181.91015625 60 C-181.91015625 25.898172613983412, -181.91015625 -8.203654772033175, -181.91015625 -60" stroke="#1ac5da" stroke-width="1.3" fill="none" stroke-dasharray="0 0" style=""></path></g><g class="annotation-group text" transform="translate(0, -36)"></g><g class="label-group text" transform="translate(-98.5546875, -36)"><g class="label" style="font-weight: bolder" transform="translate(0,-12)"><foreignObject width="197.109375" height="24"><div xmlns="http://www.w3.org/1999/xhtml" style="display: table-cell; white-space: nowrap; line-height: 1.5; max-width: 232px; text-align: center;"><span class="nodeLabel markdown-node-label" style=""><p>5g Bathing-water quality</p></span></div></foreignObject></g></g><g class="members-group text" transform="translate(-169.91015625, 12)"><g class="label" style="" transform="translate(0,-12)"><foreignObject width="241.265625" height="24"><div xmlns="http://www.w3.org/1999/xhtml" style="display: table-cell; white-space: nowrap; line-height: 1.5; max-width: 291px; text-align: center;"><span class="nodeLabel markdown-node-label" style=""><p>IMA/SC feed, auto-selected in SC</p></span></div></foreignObject></g></g><g class="methods-group text" transform="translate(-169.91015625, 60)"></g><g class="divider" style=""><path d="M-181.91015625 -12 C-81.24089218061665 -11.999723299495354, 19.42837188876669 -11.999446598990707, 181.91015625 -11.999 M-181.91015625 -12 C-101.22896047578168 -11.999778238891556, -20.547764701563352 -11.999556477783113, 181.91015625 -11.999" stroke="#1ac5da" stroke-width="1.3" fill="none" stroke-dasharray="0 0" style=""></path></g><g class="divider" style=""><path d="M-181.91015625 36 C-38.38524210910799 36.00039449395542, 105.13967203178402 36.000788987910845, 181.91015625 36.001 M-181.91015625 36 C-38.67592533589115 36.000393694980716, 104.5583055782177 36.00078738996143, 181.91015625 36.001" stroke="#1ac5da" stroke-width="1.3" fill="none" stroke-dasharray="0 0" style=""></path></g></g><g class="node default" id="container-classId-5h Ocean knowledge-8" data-look="classic" transform="translate(468.953125, 1264)"><g class="basic label-container outer-path"><path d="M-193.875 -60 L193.875 -60 L193.875 60 L-193.875 60" stroke="none" stroke-width="0" fill="#0b4261" style=""></path><path d="M-193.875 -60 C-68.54838354280336 -60, 56.77823291439327 -60, 193.875 -60 M-193.875 -60 C-66.66874819067087 -60, 60.53750361865826 -60, 193.875 -60 M193.875 -60 C193.875 -14.810887398400425, 193.875 30.37822520319915, 193.875 60 M193.875 -60 C193.875 -35.11605208793512, 193.875 -10.232104175870226, 193.875 60 M193.875 60 C47.731184585801515 60, -98.41263082839697 60, -193.875 60 M193.875 60 C115.97594321487456 60, 38.07688642974912 60, -193.875 60 M-193.875 60 C-193.875 22.401165133769595, -193.875 -15.19766973246081, -193.875 -60 M-193.875 60 C-193.875 16.30730461612179, -193.875 -27.38539076775642, -193.875 -60" stroke="#1ac5da" stroke-width="1.3" fill="none" stroke-dasharray="0 0" style=""></path></g><g class="annotation-group text" transform="translate(0, -36)"></g><g class="label-group text" transform="translate(-82.78125, -36)"><g class="label" style="font-weight: bolder" transform="translate(0,-12)"><foreignObject width="165.5625" height="24"><div xmlns="http://www.w3.org/1999/xhtml" style="display: table-cell; white-space: nowrap; line-height: 1.5; max-width: 206px; text-align: center;"><span class="nodeLabel markdown-node-label" style=""><p>5h Ocean knowledge</p></span></div></foreignObject></g></g><g class="members-group text" transform="translate(-181.875, 12)"><g class="label" style="" transform="translate(0,-12)"><foreignObject width="280.96875" height="24"><div xmlns="http://www.w3.org/1999/xhtml" style="display: table-cell; white-space: nowrap; line-height: 1.5; max-width: 331px; text-align: center;"><span class="nodeLabel markdown-node-label" style=""><p>Local RAG over knowledge markdown</p></span></div></foreignObject></g></g><g class="methods-group text" transform="translate(-181.875, 60)"></g><g class="divider" style=""><path d="M-193.875 -12 C-79.73079664065114 -11.99970562423376, 34.41340671869773 -11.99941124846752, 193.875 -11.999 M-193.875 -12 C-55.000583155734404 -11.99964184547558, 83.87383368853119 -11.999283690951158, 193.875 -11.999" stroke="#1ac5da" stroke-width="1.3" fill="none" stroke-dasharray="0 0" style=""></path></g><g class="divider" style=""><path d="M-193.875 36 C-61.62885883792646 36.00034106032537, 70.61728232414708 36.00068212065074, 193.875 36.001 M-193.875 36 C-107.92047020292536 36.0002216751252, -21.965940405850716 36.0004433502504, 193.875 36.001" stroke="#1ac5da" stroke-width="1.3" fill="none" stroke-dasharray="0 0" style=""></path></g></g></g></g></g><defs><filter id="container-drop-shadow" height="130%" width="130%"><feDropShadow dx="4" dy="4" stdDeviation="0" flood-opacity="0.06" flood-color="#000000"></feDropShadow></filter></defs><defs><filter id="container-drop-shadow-small" height="150%" width="150%"><feDropShadow dx="2" dy="2" stdDeviation="0" flood-opacity="0.06" flood-color="#000000"></feDropShadow></filter></defs><linearGradient id="container-gradient" gradientUnits="objectBoundingBox" x1="0%" y1="0%" x2="100%" y2="0%"><stop offset="0%" stop-color="#1ac5da" stop-opacity="1"></stop><stop offset="100%" stop-color="hsl(81.6279069767, 39.6296296296%, 11.1764705882%)" stop-opacity="1"></stop></linearGradient></svg>