<svg id="container" width="670.828125" xmlns="http://www.w3.org/2000/svg" class="classDiagram" height="1332" viewBox="0 0 670.828125 1332" role="graphics-document document" aria-roledescription="class"><style>#container{font-family:"Open Sans","trebuchet ms",verdana,arial,sans-serif;font-size:16px;fill:#ffffff;}@keyframes edge-animation-frame{from{stroke-dashoffset:0;}}@keyframes dash{to{stroke-dashoffset:0;}}#container .edge-animation-slow{stroke-dasharray:9,5!important;stroke-dashoffset:900;animation:dash 50s linear infinite;stroke-linecap:round;}#container .edge-animation-fast{stroke-dasharray:9,5!important;stroke-dashoffset:900;animation:dash 20s linear infinite;stroke-linecap:round;}#container .error-icon{fill:hsl(21.6279069767, 79.6296296296%, 26.1764705882%);}#container .error-text{fill:rgb(135.0972222224, 203.0833333335, 241.4027777778);stroke:rgb(135.0972222224, 203.0833333335, 241.4027777778);}#container .edge-thickness-normal{stroke-width:1px;}#container .edge-thickness-thick{stroke-width:3.5px;}#container .edge-pattern-solid{stroke-dasharray:0;}#container .edge-thickness-invisible{stroke-width:0;fill:none;}#container .edge-pattern-dashed{stroke-dasharray:3;}#container .edge-pattern-dotted{stroke-dasharray:2;}#container .marker{fill:#1ac5da;stroke:#1ac5da;}#container .marker.cross{stroke:#1ac5da;}#container svg{font-family:"Open Sans","trebuchet ms",verdana,arial,sans-serif;font-size:16px;}#container p{margin:0;}#container g.classGroup text{fill:#1ac5da;stroke:none;font-family:"Open Sans","trebuchet ms",verdana,arial,sans-serif;font-size:10px;}#container g.classGroup text .title{font-weight:bolder;}#container .cluster-label text{fill:rgb(135.0972222224, 203.0833333335, 241.4027777778);}#container .cluster-label span{color:rgb(135.0972222224, 203.0833333335, 241.4027777778);}#container .cluster-label span p{background-color:transparent;}#container .cluster rect{fill:hsl(21.6279069767, 79.6296296296%, 26.1764705882%);stroke:hsl(21.6279069767, 39.6296296296%, 16.1764705882%);stroke-width:1px;}#container .cluster text{fill:rgb(135.0972222224, 203.0833333335, 241.4027777778);}#container .cluster span{color:rgb(135.0972222224, 203.0833333335, 241.4027777778);}#container .nodeLabel,#container .edgeLabel{color:#ffffff;}#container .noteLabel .nodeLabel,#container .noteLabel .edgeLabel{color:#ffffff;}#container .edgeLabel .label rect{fill:#0b4261;}#container .label text{fill:#ffffff;}#container .labelBkg{background:#0b4261;}#container .edgeLabel .label span{background:#0b4261;}#container .classTitle{font-weight:bolder;}#container .node rect,#container .node circle,#container .node ellipse,#container .node polygon,#container .node path{fill:#0b4261;stroke:#1ac5da;stroke-width:1;}#container .divider{stroke:#1ac5da;stroke-width:1;}#container g.clickable{cursor:pointer;}#container g.classGroup rect{fill:#0b4261;stroke:#1ac5da;}#container g.classGroup line{stroke:#1ac5da;stroke-width:1;}#container .classLabel .box{stroke:none;stroke-width:0;fill:#0b4261;opacity:0.5;}#container .classLabel .label{fill:#1ac5da;font-size:10px;}#container .relation{stroke:#1ac5da;stroke-width:1;fill:none;}#container .dashed-line{stroke-dasharray:3;}#container .dotted-line{stroke-dasharray:1 2;}#container [id$="-compositionStart"],#container .composition{fill:#1ac5da!important;stroke:#1ac5da!important;stroke-width:1;}#container [id$="-compositionEnd"],#container .composition{fill:#1ac5da!important;stroke:#1ac5da!important;stroke-width:1;}#container [id$="-dependencyStart"],#container .dependency{fill:#1ac5da!important;stroke:#1ac5da!important;stroke-width:1;}#container [id$="-dependencyEnd"],#container .dependency{fill:#1ac5da!important;stroke:#1ac5da!important;stroke-width:1;}#container [id$="-extensionStart"],#container .extension{fill:transparent!important;stroke:#1ac5da!important;stroke-width:1;}#container [id$="-extensionEnd"],#container .extension{fill:transparent!important;stroke:#1ac5da!important;stroke-width:1;}#container [id$="-aggregationStart"],#container .aggregation{fill:transparent!important;stroke:#1ac5da!important;stroke-width:1;}#container [id$="-aggregationEnd"],#container .aggregation{fill:transparent!important;stroke:#1ac5da!important;stroke-width:1;}#container [id$="-lollipopStart"],#container .lollipop{fill:#0b4261!important;stroke:#1ac5da!important;stroke-width:1;}#container [id$="-lollipopEnd"],#container .lollipop{fill:#0b4261!important;stroke:#1ac5da!important;stroke-width:1;}#container .edgeTerminals{font-size:11px;line-height:initial;}#container .classTitleText{text-anchor:middle;font-size:18px;fill:#ffffff;}#container .edgeLabel[data-look="neo"]{background-color:#082f45;text-align:center;}#container .edgeLabel[data-look="neo"] p{background-color:#082f45;}#container .edgeLabel[data-look="neo"] rect{opacity:0.5;background-color:#082f45;fill:#082f45;}#container .label-icon{display:inline-block;height:1em;overflow:visible;vertical-align:-0.125em;}#container .node .label-icon path{fill:currentColor;stroke:revert;stroke-width:revert;}#container .node .neo-node{stroke:#1ac5da;}#container [data-look="neo"].node rect,#container [data-look="neo"].cluster rect,#container [data-look="neo"].node polygon{stroke:url(#container-gradient);filter:drop-shadow( 1px 2px 2px rgba(185,185,185,1));}#container [data-look="neo"].swimlane.cluster rect{filter:none;}#container [data-look="neo"].node path{stroke:url(#container-gradient);stroke-width:1px;}#container [data-look="neo"].node .outer-path{filter:drop-shadow( 1px 2px 2px rgba(185,185,185,1));}#container [data-look="neo"].node .neo-line path{stroke:#1ac5da;filter:none;}#container [data-look="neo"].node circle{stroke:url(#container-gradient);filter:drop-shadow( 1px 2px 2px rgba(185,185,185,1));}#container [data-look="neo"].node circle .state-start{fill:#000000;}#container [data-look="neo"].icon-shape .icon{fill:url(#container-gradient);filter:drop-shadow( 1px 2px 2px rgba(185,185,185,1));}#container [data-look="neo"].icon-shape .icon-neo path{stroke:url(#container-gradient);filter:drop-shadow( 1px 2px 2px rgba(185,185,185,1));}#container :root{--mermaid-font-family:"Open Sans","trebuchet ms",verdana,arial,sans-serif;}</style><g><defs><marker id="container_class-aggregationStart" class="marker aggregation class" refX="18" refY="7" markerWidth="190" markerHeight="240" orient="auto"><path d="M 18,7 L9,13 L1,7 L9,1 Z"></path></marker></defs><defs><marker id="container_class-aggregationEnd" class="marker aggregation class" refX="1" refY="7" markerWidth="20" markerHeight="28" orient="auto"><path d="M 18,7 L9,13 L1,7 L9,1 Z"></path></marker></defs><defs><marker id="container_class-aggregationStart-margin" class="marker aggregation class" refX="15" refY="7" markerWidth="190" markerHeight="240" orient="auto" markerUnits="userSpaceOnUse"><path d="M 18,7 L9,13 L1,7 L9,1 Z" style="stroke-width: 2;"></path></marker></defs><defs><marker id="container_class-aggregationEnd-margin" class="marker aggregation class" refX="1" refY="7" markerWidth="20" markerHeight="28" orient="auto" markerUnits="userSpaceOnUse"><path d="M 18,7 L9,13 L1,7 L9,1 Z" style="stroke-width: 2;"></path></marker></defs><defs><marker id="container_class-extensionStart" class="marker extension class" refX="18" refY="7" markerWidth="20" markerHeight="28" orient="auto" markerUnits="userSpaceOnUse"><path d="M 1,7 L18,13 V 1 Z"></path></marker></defs><defs><marker id="container_class-extensionEnd" class="marker extension class" refX="1" refY="7" markerWidth="20" markerHeight="28" orient="auto"><path d="M 1,1 V 13 L18,7 Z"></path></marker></defs><marker id="container_class-extensionStart-margin" class="marker extension class" refX="18" refY="7" markerWidth="20" markerHeight="28" orient="auto" markerUnits="userSpaceOnUse" viewBox="0 0 20 14"><polygon points="10,7 18,13 18,1" style="stroke-width: 2; stroke-dasharray: 0;"></polygon></marker><defs><marker id="container_class-extensionEnd-margin" class="marker extension class" refX="9" refY="7" markerWidth="20" markerHeight="28" orient="auto" markerUnits="userSpaceOnUse" viewBox="0 0 20 14"><polygon points="10,1 10,13 18,7" style="stroke-width: 2; stroke-dasharray: 0;"></polygon></marker></defs><defs><marker id="container_class-compositionStart" class="marker composition class" refX="18" refY="7" markerWidth="190" markerHeight="240" orient="auto"><path d="M 18,7 L9,13 L1,7 L9,1 Z"></path></marker></defs><defs><marker id="container_class-compositionEnd" class="marker composition class" refX="1" refY="7" markerWidth="20" markerHeight="28" orient="auto"><path d="M 18,7 L9,13 L1,7 L9,1 Z"></path></marker></defs><defs><marker id="container_class-compositionStart-margin" class="marker composition class" refX="15" refY="7" markerWidth="190" markerHeight="240" orient="auto" markerUnits="userSpaceOnUse"><path viewBox="0 0 15 15" d="M 18,7 L9,13 L1,7 L9,1 Z" style="stroke-width: 0;"></path></marker></defs><defs><marker id="container_class-compositionEnd-margin" class="marker composition class" refX="3.5" refY="7" markerWidth="20" markerHeight="28" orient="auto" markerUnits="userSpaceOnUse"><path d="M 18,7 L9,13 L1,7 L9,1 Z" style="stroke-width: 0;"></path></marker></defs><defs><marker id="container_class-dependencyStart" class="marker dependency class" refX="6" refY="7" markerWidth="190" markerHeight="240" orient="auto"><path d="M 5,7 L9,13 L1,7 L9,1 Z"></path></marker></defs><defs><marker id="container_class-dependencyEnd" class="marker dependency class" refX="13" refY="7" markerWidth="20" markerHeight="28" orient="auto"><path d="M 18,7 L9,13 L14,7 L9,1 Z"></path></marker></defs><defs><marker id="container_class-dependencyStart-margin" class="marker dependency class" refX="4" refY="7" markerWidth="190" markerHeight="240" orient="auto" markerUnits="userSpaceOnUse"><path d="M 5,7 L9,13 L1,7 L9,1 Z" style="stroke-width: 0;"></path></marker></defs><defs><marker id="container_class-dependencyEnd-margin" class="marker dependency class" refX="16" refY="7" markerWidth="20" markerHeight="28" orient="auto" markerUnits="userSpaceOnUse"><path d="M 18,7 L9,13 L14,7 L9,1 Z" style="stroke-width: 0;"></path></marker></defs><defs><marker id="container_class-lollipopStart" class="marker lollipop class" refX="13" refY="7" markerWidth="190" markerHeight="240" orient="auto"><circle fill="transparent" cx="7" cy="7" r="6"></circle></marker></defs><defs><marker id="container_class-lollipopEnd" class="marker lollipop class" refX="1" refY="7" markerWidth="190" markerHeight="240" orient="auto"><circle fill="transparent" cx="7" cy="7" r="6"></circle></marker></defs><defs><marker id="container_class-lollipopStart-margin" class="marker lollipop class" refX="13" refY="7" markerWidth="190" markerHeight="240" orient="auto" markerUnits="userSpaceOnUse"><circle fill="transparent" cx="7" cy="7" r="6" stroke-width="2"></circle></marker></defs><defs><marker id="container_class-lollipopEnd-margin" class="marker lollipop class" refX="1" refY="7" markerWidth="190" markerHeight="240" orient="auto" markerUnits="userSpaceOnUse"><circle fill="transparent" cx="7" cy="7" r="6" stroke-width="2"></circle></marker></defs><g class="root"><g class="clusters"></g><g class="edgePaths"><path d="M125.942,622.5L146.631,530.083C167.32,437.667,208.699,252.833,234.384,160.417C260.068,68,270.057,68,275.052,68L280.047,68" id="container-id_5 Pluggable integrations_5a Query synthesis_1" class="edge-thickness-normal edge-pattern-solid relation" style=";;;" data-edge="true" data-et="edge" data-id="id_5 Pluggable integrations_5a Query synthesis_1" data-points="W3sieCI6MTI1Ljk0MTY0NTI3NDUxODAyLCJ5Ijo2MjIuNX0seyJ4IjoyNTAuMDc4MTI1LCJ5Ijo2OH0seyJ4IjoyODYuMDQ2ODc1LCJ5Ijo2OH1d" data-look="classic" marker-end="url(#container_class-dependencyEnd)"></path><path d="M129.689,622.5L149.754,558.417C169.819,494.333,209.949,366.167,251.271,302.083C292.594,238,335.109,238,356.367,238L377.625,238" id="container-id_5 Pluggable integrations_5b Beach distance_2" class="edge-thickness-normal edge-pattern-solid relation" style=";;;" data-edge="true" data-et="edge" data-id="id_5 Pluggable integrations_5b Beach distance_2" data-points="W3sieCI6MTI5LjY4OTQ1MDgzNTI4NzIzLCJ5Ijo2MjIuNX0seyJ4IjoyNTAuMDc4MTI1LCJ5IjoyMzh9LHsieCI6MzgzLjYyNSwieSI6MjM4fV0=" data-look="classic" marker-end="url(#container_class-dependencyEnd)"></path><path d="M138.405,622.5L157.017,586.75C175.629,551,212.854,479.5,244.138,443.75C275.422,408,300.766,408,313.438,408L326.109,408" id="container-id_5 Pluggable integrations_5c Agentic tool access_3" class="edge-thickness-normal edge-pattern-solid relation" style=";;;" data-edge="true" data-et="edge" data-id="id_5 Pluggable integrations_5c Agentic tool access_3" data-points="W3sieCI6MTM4LjQwNTEwNzgyMTYzNzQyLCJ5Ijo2MjIuNX0seyJ4IjoyNTAuMDc4MTI1LCJ5Ijo0MDh9LHsieCI6MzMyLjEwOTM3NSwieSI6NDA4fV0=" data-look="classic" marker-end="url(#container_class-dependencyEnd)"></path><path d="M181.379,622.5L192.829,615.083C204.279,607.667,227.178,592.833,257.159,585.417C287.139,578,324.201,578,342.731,578L361.262,578" id="container-id_5 Pluggable integrations_5d Sighting reports_4" class="edge-thickness-normal edge-pattern-solid relation" style=";;;" data-edge="true" data-et="edge" data-id="id_5 Pluggable integrations_5d Sighting reports_4" data-points="W3sieCI6MTgxLjM3ODgzODUxMTU2MDY3LCJ5Ijo2MjIuNX0seyJ4IjoyNTAuMDc4MTI1LCJ5Ijo1Nzh9LHsieCI6MzY3LjI2MTcxODc1LCJ5Ijo1Nzh9XQ==" data-look="classic" marker-end="url(#container_class-dependencyEnd)"></path><path d="M181.379,706.5L192.829,713.917C204.279,721.333,227.178,736.167,250.846,743.583C274.514,751,298.951,751,311.169,751L323.387,751" id="container-id_5 Pluggable integrations_5e Photo analysis_5" class="edge-thickness-normal edge-pattern-solid relation" style=";;;" data-edge="true" data-et="edge" data-id="id_5 Pluggable integrations_5e Photo analysis_5" data-points="W3sieCI6MTgxLjM3ODgzODUxMTU2MDY3LCJ5Ijo3MDYuNX0seyJ4IjoyNTAuMDc4MTI1LCJ5Ijo3NTF9LHsieCI6MzI5LjM4NjcxODc1LCJ5Ijo3NTF9XQ==" data-look="classic" marker-end="url(#container_class-dependencyEnd)"></path><path d="M138.152,706.5L156.807,742.75C175.461,779,212.77,851.5,242.351,887.75C271.932,924,293.786,924,304.714,924L315.641,924" id="container-id_5 Pluggable integrations_5f Observability_6" class="edge-thickness-normal edge-pattern-solid relation" style=";;;" data-edge="true" data-et="edge" data-id="id_5 Pluggable integrations_5f Observability_6" data-points="W3sieCI6MTM4LjE1MjMyMTE3MDUyMDIyLCJ5Ijo3MDYuNX0seyJ4IjoyNTAuMDc4MTI1LCJ5Ijo5MjR9LHsieCI6MzIxLjY0MDYyNSwieSI6OTI0fV0=" data-look="classic" marker-end="url(#container_class-dependencyEnd)"></path><path d="M129.598,706.5L149.678,771.083C169.758,835.667,209.918,964.833,235.159,1029.417C260.4,1094,270.721,1094,275.882,1094L281.043,1094" id="container-id_5 Pluggable integrations_5g Bathing-water quality_7" class="edge-thickness-normal edge-pattern-solid relation" style=";;;" data-edge="true" data-et="edge" data-id="id_5 Pluggable integrations_5g Bathing-water quality_7" data-points="W3sieCI6MTI5LjU5NzU5NzEzMzI5NDUzLCJ5Ijo3MDYuNX0seyJ4IjoyNTAuMDc4MTI1LCJ5IjoxMDk0fSx7IngiOjI4Ny4wNDI5Njg3NSwieSI6MTA5NH1d" data-look="classic" marker-end="url(#container_class-dependencyEnd)"></path><path d="M125.895,706.5L146.592,799.417C167.289,892.333,208.684,1078.167,232.548,1171.083C256.411,1264,262.745,1264,265.911,1264L269.078,1264" id="container-id_5 Pluggable integrations_5h Ocean knowledge_8" class="edge-thickness-normal edge-pattern-solid relation" style=";;;" data-edge="true" data-et="edge" data-id="id_5 Pluggable integrations_5h Ocean knowledge_8" data-points="W3sieCI6MTI1Ljg5NDU5MzE1MDU0MjEyLCJ5Ijo3MDYuNX0seyJ4IjoyNTAuMDc4MTI1LCJ5IjoxMjY0fSx7IngiOjI3NS4wNzgxMjUsInkiOjEyNjR9XQ==" data-look="classic" marker-end="url(#container_class-dependencyEnd)"></path></g><g class="edgeLabels"><g class="edgeLabel"><g class="label" data-id="id_5 Pluggable integrations_5a Query synthesis_1" transform="translate(0, 0)"><foreignObject width="0" height="0"><div xmlns="http://www.w3.org/1999/xhtml" class="labelBkg" style="display: table-cell; white-space: nowrap; line-height: 1.5; max-width: 200px; text-align: center;"><span class="edgeLabel"></span></div></foreignObject></g></g><g class="edgeLabel"><g class="label" data-id="id_5 Pluggable integrations_5b Beach distance_2" transform="translate(0, 0)"><foreignObject width="0" height="0"><div xmlns="http://www.w3.org/1999/xhtml" class="labelBkg" style="display: table-cell; white-space: nowrap; line-height: 1.5; max-width: 200px; text-align: center;"><span class="edgeLabel"></span></div></foreignObject></g></g><g class="edgeLabel"><g class="label" data-id="id_5 Pluggable integrations_5c Agentic tool access_3" transform="translate(0, 0)"><foreignObject width="0" height="0"><div xmlns="http://www.w3.org/1999/xhtml" class="labelBkg" style="display: table-cell; white-space: nowrap; line-height: 1.5; max-width: 200px; text-align: center;"><span class="edgeLabel"></span></div></foreignObject></g></g><g class="edgeLabel"><g class="label" data-id="id_5 Pluggable integrations_5d Sighting reports_4" transform="translate(0, 0)"><foreignObject width="0" height="0"><div xmlns="http://www.w3.org/1999/xhtml" class="labelBkg" style="display: table-cell; white-space: nowrap; line-height: 1.5; max-width: 200px; text-align: center;"><span class="edgeLabel"></span></div></foreignObject></g></g><g class="edgeLabel"><g class="label" data-id="id_5 Pluggable integrations_5e Photo analysis_5" transform="translate(0, 0)"><foreignObject width="0" height="0"><div xmlns="http://www.w3.org/1999/xhtml" class="labelBkg" style="display: table-cell; white-space: nowrap; line-height: 1.5; max-width: 200px; text-align: center;"><span class="edgeLabel"></span></div></foreignObject></g></g><g class="edgeLabel"><g class="label" data-id="id_5 Pluggable integrations_5f Observability_6" transform="translate(0, 0)"><foreignObject width="0" height="0"><div xmlns="http://www.w3.org/1999/xhtml" class="labelBkg" style="display: table-cell; white-space: nowrap; line-height: 1.5; max-width: 200px; text-align: center;"><span class="edgeLabel"></span></div></foreignObject></g></g><g class="edgeLabel"><g class="label" data-id="id_5 Pluggable integrations_5g Bathing-water quality_7" transform="translate(0, 0)"><foreignObject width="0" height="0"><div xmlns="http://www.w3.org/1999/xhtml" class="labelBkg" style="display: table-cell; white-space: nowrap; line-height: 1.5; max-width: 200px; text-align: center;"><span class="edgeLabel"></span></div></foreignObject></g></g><g class="edgeLabel"><g class="label" data-id="id_5 Pluggable integrations_5h Ocean knowledge_8" transform="translate(0, 0)"><foreignObject width="0" height="0"><div xmlns="http://www.w3.org/1999/xhtml" class="labelBkg" style="display: table-cell; white-space: nowrap; line-height: 1.5; max-width: 200px; text-align: center;"><span class="edgeLabel"></span></div></foreignObject></g></g></g><g class="nodes"><g class="node default" id="container-classId-5 Pluggable integrations-0" data-look="classic" transform="translate(116.5390625, 664.5)"><g class="basic label-container outer-path"><path d="M-108.5390625 -42 L108.5390625 -42 L108.5390625 42 L-108.5390625 42" stroke="none" stroke-width="0" fill="#0b4261" style=""></path><path d="M-108.5390625 -42 C-59.12793351088262 -42, -9.71680452176524 -42, 108.5390625 -42 M-108.5390625 -42 C-44.634442162183774 -42, 19.270178175632452 -42, 108.5390625 -42 M108.5390625 -42 C108.5390625 -22.793439384205453, 108.5390625 -3.586878768410905, 108.5390625 42 M108.5390625 -42 C108.5390625 -10.835181910350208, 108.5390625 20.329636179299584, 108.5390625 42 M108.5390625 42 C22.250263772624734 42, -64.03853495475053 42, -108.5390625 42 M108.5390625 42 C47.93926877770499 42, -12.660524944590023 42, -108.5390625 42 M-108.5390625 42 C-108.5390625 15.290055961826468, -108.5390625 -11.419888076347064, -108.5390625 -42 M-108.5390625 42 C-108.5390625 18.35762121734242, -108.5390625 -5.284757565315161, -108.5390625 -42" stroke="#1ac5da" stroke-width="1.3" fill="none" stroke-dasharray="0 0" style=""></path></g><g class="annotation-group text" transform="translate(0, -18)"></g><g class="label-group text" transform="translate(-96.5390625, -18)"><g class="label" style="font-weight: bolder" transform="translate(0,-12)"><foreignObject width="193.078125" height="24"><div xmlns="http://www.w3.org/1999/xhtml" style="display: table-cell; white-space: nowrap; line-height: 1.5; max-width: 229px; text-align: center;"><span class="nodeLabel markdown-node-label" style=""><p>5 Pluggable integrations</p></span></div></foreignObject></g></g><g class="members-group text" transform="translate(-96.5390625, 30)"></g><g class="methods-group text" transform="translate(-96.5390625, 60)"></g><g class="divider" style=""><path d="M-108.5390625 6 C-56.66433200744991 6.000238968023575, -4.789601514899815 6.000477936047149, 108.5390625 6.001 M-108.5390625 6 C-39.59742886705324 6.000317589041424, 29.344204765893522 6.000635178082849, 108.5390625 6.001" stroke="#1ac5da" stroke-width="1.3" fill="none" stroke-dasharray="0 0" style=""></path></g><g class="divider" style=""><path d="M-108.5390625 24 C-23.9145709449257 24.000389834266144, 60.7099206101486 24.00077966853229, 108.5390625 24.001 M-108.5390625 24 C-25.050347484208103 24.000384602156554, 58.43836753158379 24.00076920431311, 108.5390625 24.001" stroke="#1ac5da" stroke-width="1.3" fill="none" stroke-dasharray="0 0" style=""></path></g></g><g class="node default" id="container-classId-5a Query synthesis-1" data-look="classic" transform="translate(468.953125, 68)"><g class="basic label-container outer-path"><path d="M-182.90625 -60 L182.90625 -60 L182.90625 60 L-182.90625 60" stroke="none" stroke-width="0" fill="#0b4261" style=""></path><path d="M-182.90625 -60 C-85.87539183745886 -60, 11.155466325082273 -60, 182.90625 -60 M-182.90625 -60 C-58.169300361534724 -60, 66.56764927693055 -60, 182.90625 -60 M182.90625 -60 C182.90625 -19.264574851762426, 182.90625 21.47085029647515, 182.90625 60 M182.90625 -60 C182.90625 -27.390008764497857, 182.90625 5.219982471004286, 182.90625 60 M182.90625 60 C50.52305824902572 60, -81.86013350194855 60, -182.90625 60 M182.90625 60 C64.31438165369254 60, -54.27748669261493 60, -182.90625 60 M-182.90625 60 C-182.90625 26.5323401208085, -182.90625 -6.935319758383002, -182.90625 -60 M-182.90625 60 C-182.90625 17.344852513843556, -182.90625 -25.31029497231289, -182.90625 -60" stroke="#1ac5da" stroke-width="1.3" fill="none" stroke-dasharray="0 0" style=""></path></g><g class="annotation-group text" transform="translate(0, -36)"></g><g class="label-group text" transform="translate(-75.734375, -36)"><g class="label" style="font-weight: bolder" transform="translate(0,-12)"><foreignObject width="151.46875" height="24"><div xmlns="http://www.w3.org/1999/xhtml" style="display: table-cell; white-space: nowrap; line-height: 1.5; max-width: 191px; text-align: center;"><span class="nodeLabel markdown-node-label" style=""><p>5a Query synthesis</p></span></div></foreignObject></g></g><g class="members-group text" transform="translate(-170.90625, 12)"><g class="label" style="" transform="translate(0,-12)"><foreignObject width="266.078125" height="24"><div xmlns="http://www.w3.org/1999/xhtml" style="display: table-cell; white-space: nowrap; line-height: 1.5; max-width: 316px; text-align: center;"><span class="nodeLabel markdown-node-label" style=""><p>Ollama-compatible chat completion</p></span></div></foreignObject></g></g><g class="methods-group text" transform="translate(-170.90625, 60)"></g><g class="divider" style=""><path d="M-182.90625 -12 C-88.8735293777829 -11.999742948311985, 5.159191244434197 -11.99948589662397, 182.90625 -11.999 M-182.90625 -12 C-101.04741982550883 -11.999776227356435, -19.18858965101765 -11.999552454712868, 182.90625 -11.999" stroke="#1ac5da" stroke-width="1.3" fill="none" stroke-dasharray="0 0" style=""></path></g><g class="divider" style=""><path d="M-182.90625 36 C-83.43946353441864 36.000271906472484, 16.02732293116273 36.00054381294497, 182.90625 36.001 M-182.90625 36 C-61.96177061066166 36.000330618771606, 58.98270877867668 36.00066123754322, 182.90625 36.001" stroke="#1ac5da" stroke-width="1.3" fill="none" stroke-dasharray="0 0" style=""></path></g></g><g class="node default" id="container-classId-5b Beach distance-2" data-look="classic" transform="translate(468.953125, 238)"><g class="basic label-container outer-path"><path d="M-85.328125 -60 L85.328125 -60 L85.328125 60 L-85.328125 60" stroke="none" stroke-width="0" fill="#0b4261" style=""></path><path d="M-85.328125 -60 C-21.937841779855006 -60, 41.45244144028999 -60, 85.328125 -60 M-85.328125 -60 C-37.31209069579813 -60, 10.703943608403733 -60, 85.328125 -60 M85.328125 -60 C85.328125 -29.187310524280413, 85.328125 1.625378951439174, 85.328125 60 M85.328125 -60 C85.328125 -21.453354501462023, 85.328125 17.093290997075954, 85.328125 60 M85.328125 60 C44.74612921729992 60, 4.164133434599833 60, -85.328125 60 M85.328125 60 C29.172342290970896 60, -26.98344041805821 60, -85.328125 60 M-85.328125 60 C-85.328125 33.923573649665514, -85.328125 7.847147299331027, -85.328125 -60 M-85.328125 60 C-85.328125 20.03268466160536, -85.328125 -19.934630676789283, -85.328125 -60" stroke="#1ac5da" stroke-width="1.3" fill="none" stroke-dasharray="0 0" style=""></path></g><g class="annotation-group text" transform="translate(0, -36)"></g><g class="label-group text" transform="translate(-71.984375, -36)"><g class="label" style="font-weight: bolder" transform="translate(0,-12)"><foreignObject width="143.96875" height="24"><div xmlns="http://www.w3.org/1999/xhtml" style="display: table-cell; white-space: nowrap; line-height: 1.5; max-width: 185px; text-align: center;"><span class="nodeLabel markdown-node-label" style=""><p>5b Beach distance</p></span></div></foreignObject></g></g><g class="members-group text" transform="translate(-73.328125, 12)"><g class="label" style="" transform="translate(0,-12)"><foreignObject width="74.671875" height="24"><div xmlns="http://www.w3.org/1999/xhtml" style="display: table-cell; white-space: nowrap; line-height: 1.5; max-width: 125px; text-align: center;"><span class="nodeLabel markdown-node-label" style=""><p>Haversine</p></span></div></foreignObject></g></g><g class="methods-group text" transform="translate(-73.328125, 60)"></g><g class="divider" style=""><path d="M-85.328125 -12 C-40.67135301578847 -11.999738323255174, 3.985418968423062 -11.999476646510349, 85.328125 -11.999 M-85.328125 -12 C-46.94342970093795 -11.999775075947708, -8.558734401875896 -11.999550151895415, 85.328125 -11.999" stroke="#1ac5da" stroke-width="1.3" fill="none" stroke-dasharray="0 0" style=""></path></g><g class="divider" style=""><path d="M-85.328125 36 C-30.145439888533247 36.000323355781646, 25.037245222933507 36.00064671156329, 85.328125 36.001 M-85.328125 36 C-29.848158687142543 36.00032509777001, 25.631807625714913 36.00065019554001, 85.328125 36.001" stroke="#1ac5da" stroke-width="1.3" fill="none" stroke-dasharray="0 0" style=""></path></g></g><g class="node default" id="container-classId-5c Agentic tool access-3" data-look="classic" transform="translate(468.953125, 408)"><g class="basic label-container outer-path"><path d="M-136.84375 -60 L136.84375 -60 L136.84375 60 L-136.84375 60" stroke="none" stroke-width="0" fill="#0b4261" style=""></path><path d="M-136.84375 -60 C-38.90530331759291 -60, 59.03314336481418 -60, 136.84375 -60 M-136.84375 -60 C-68.98963991413484 -60, -1.1355298282696822 -60, 136.84375 -60 M136.84375 -60 C136.84375 -27.942939396758362, 136.84375 4.114121206483276, 136.84375 60 M136.84375 -60 C136.84375 -33.66920271703701, 136.84375 -7.338405434074019, 136.84375 60 M136.84375 60 C68.0794870231109 60, -0.6847759537781997 60, -136.84375 60 M136.84375 60 C39.819151284881244 60, -57.20544743023751 60, -136.84375 60 M-136.84375 60 C-136.84375 32.29594965611892, -136.84375 4.591899312237842, -136.84375 -60 M-136.84375 60 C-136.84375 24.280183791505074, -136.84375 -11.439632416989852, -136.84375 -60" stroke="#1ac5da" stroke-width="1.3" fill="none" stroke-dasharray="0 0" style=""></path></g><g class="annotation-group text" transform="translate(0, -36)"></g><g class="label-group text" transform="translate(-86.53125, -36)"><g class="label" style="font-weight: bolder" transform="translate(0,-12)"><foreignObject width="173.0625" height="24"><div xmlns="http://www.w3.org/1999/xhtml" style="display: table-cell; white-space: nowrap; line-height: 1.5; max-width: 212px; text-align: center;"><span class="nodeLabel markdown-node-label" style=""><p>5c Agentic tool access</p></span></div></foreignObject></g></g><g class="members-group text" transform="translate(-124.84375, 12)"><g class="label" style="" transform="translate(0,-12)"><foreignObject width="163.15625" height="24"><div xmlns="http://www.w3.org/1999/xhtml" style="display: table-cell; white-space: nowrap; line-height: 1.5; max-width: 213px; text-align: center;"><span class="nodeLabel markdown-node-label" style=""><p>MCP server over stdio</p></span></div></foreignObject></g></g><g class="methods-group text" transform="translate(-124.84375, 60)"></g><g class="divider" style=""><path d="M-136.84375 -12 C-36.587756741580705 -11.999633684427465, 63.66823651683859 -11.999267368854929, 136.84375 -11.999 M-136.84375 -12 C-52.416619501042376 -11.999691519961639, 32.01051099791525 -11.999383039923279, 136.84375 -11.999" stroke="#1ac5da" stroke-width="1.3" fill="none" stroke-dasharray="0 0" style=""></path></g><g class="divider" style=""><path d="M-136.84375 36 C-45.52174524815868 36.00033367254534, 45.80025950368264 36.00066734509067, 136.84375 36.001 M-136.84375 36 C-79.81941151237545 36.00020835565558, -22.795073024750906 36.00041671131117, 136.84375 36.001" stroke="#1ac5da" stroke-width="1.3" fill="none" stroke-dasharray="0 0" style=""></path></g></g><g class="node default" id="container-classId-5d Sighting reports-4" data-look="classic" transform="translate(468.953125, 578)"><g class="basic label-container outer-path"><path d="M-101.69140625 -60 L101.69140625 -60 L101.69140625 60 L-101.69140625 60" stroke="none" stroke-width="0" fill="#0b4261" style=""></path><path d="M-101.69140625 -60 C-48.201085987853055 -60, 5.289234274293889 -60, 101.69140625 -60 M-101.69140625 -60 C-44.02098003737172 -60, 13.649446175256557 -60, 101.69140625 -60 M101.69140625 -60 C101.69140625 -16.597427915157446, 101.69140625 26.805144169685107, 101.69140625 60 M101.69140625 -60 C101.69140625 -15.633912745714902, 101.69140625 28.732174508570196, 101.69140625 60 M101.69140625 60 C32.48226273862453 60, -36.726880772750945 60, -101.69140625 60 M101.69140625 60 C37.92174171997849 60, -25.847922810043016 60, -101.69140625 60 M-101.69140625 60 C-101.69140625 35.76237500795672, -101.69140625 11.524750015913447, -101.69140625 -60 M-101.69140625 60 C-101.69140625 12.80690198794673, -101.69140625 -34.38619602410654, -101.69140625 -60" stroke="#1ac5da" stroke-width="1.3" fill="none" stroke-dasharray="0 0" style=""></path></g><g class="annotation-group text" transform="translate(0, -36)"></g><g class="label-group text" transform="translate(-75.5703125, -36)"><g class="label" style="font-weight: bolder" transform="translate(0,-12)"><foreignObject width="151.140625" height="24"><div xmlns="http://www.w3.org/1999/xhtml" style="display: table-cell; white-space: nowrap; line-height: 1.5; max-width: 192px; text-align: center;"><span class="nodeLabel markdown-node-label" style=""><p>5d Sighting reports</p></span></div></foreignObject></g></g><g class="members-group text" transform="translate(-89.69140625, 12)"><g class="label" style="" transform="translate(0,-12)"><foreignObject width="103.8125" height="24"><div xmlns="http://www.w3.org/1999/xhtml" style="display: table-cell; white-space: nowrap; line-height: 1.5; max-width: 156px; text-align: center;"><span class="nodeLabel markdown-node-label" style=""><p>JSON-lines file</p></span></div></foreignObject></g></g><g class="methods-group text" transform="translate(-89.69140625, 60)"></g><g class="divider" style=""><path d="M-101.69140625 -12 C-53.95346742631257 -11.9997652803684, -6.215528602625142 -11.999530560736801, 101.69140625 -11.999 M-101.69140625 -12 C-46.80876822196356 -11.999730151051835, 8.073869806072878 -11.99946030210367, 101.69140625 -11.999" stroke="#1ac5da" stroke-width="1.3" fill="none" stroke-dasharray="0 0" style=""></path></g><g class="divider" style=""><path d="M-101.69140625 36 C-52.12280825477873 36.00024372068311, -2.5542102595574647 36.00048744136622, 101.69140625 36.001 M-101.69140625 36 C-40.133042677128664 36.00030267239801, 21.425320895742672 36.000605344796014, 101.69140625 36.001" stroke="#1ac5da" stroke-width="1.3" fill="none" stroke-dasharray="0 0" style=""></path></g></g><g class="node default" id="container-classId-5e Photo analysis-5" data-look="classic" transform="translate(468.953125, 751)"><g class="basic label-container outer-path"><path d="M-139.56640625 -63 L139.56640625 -63 L139.56640625 63 L-139.56640625 63" stroke="none" stroke-width="0" fill="#0b4261" style=""></path><path d="M-139.56640625 -63 C-45.60208702360147 -63, 48.36223220279706 -63, 139.56640625 -63 M-139.56640625 -63 C-48.690757376974375 -63, 42.18489149605125 -63, 139.56640625 -63 M139.56640625 -63 C139.56640625 -32.740129894133965, 139.56640625 -2.4802597882679294, 139.56640625 63 M139.56640625 -63 C139.56640625 -14.158506465801196, 139.56640625 34.68298706839761, 139.56640625 63 M139.56640625 63 C75.67137460554271 63, 11.776342961085419 63, -139.56640625 63 M139.56640625 63 C62.425120427347935 63, -14.716165395304131 63, -139.56640625 63 M-139.56640625 63 C-139.56640625 22.64535105985569, -139.56640625 -17.709297880288617, -139.56640625 -63 M-139.56640625 63 C-139.56640625 17.84762803576905, -139.56640625 -27.304743928461903, -139.56640625 -63" stroke="#1ac5da" stroke-width="1.3" fill="none" stroke-dasharray="0 0" style=""></path></g><g class="annotation-group text" transform="translate(0, -39)"></g><g class="label-group text" transform="translate(-69.4296875, -39)"><g class="label" style="font-weight: bolder" transform="translate(0,-12)"><foreignObject width="138.859375" height="24"><div xmlns="http://www.w3.org/1999/xhtml" style="display: table-cell; white-space: nowrap; line-height: 1.5; max-width: 180px; text-align: center;"><span class="nodeLabel markdown-node-label" style=""><p>5e Photo analysis</p></span></div></foreignObject></g></g><g class="members-group text" transform="translate(-127.56640625, 9)"></g><g class="methods-group text" transform="translate(-127.56640625, 39)"><g class="label" style="" transform="translate(0,-12)"><foreignObject width="185.703125" height="24"><div xmlns="http://www.w3.org/1999/xhtml" style="display: table-cell; white-space: nowrap; line-height: 1.5; max-width: 236px; text-align: center;"><span class="nodeLabel markdown-node-label" style=""><p>Multimodal Ollama(llava)</p></span></div></foreignObject></g></g><g class="divider" style=""><path d="M-139.56640625 -15 C-80.42226348045095 -14.999788114689062, -21.278120710901902 -14.999576229378125, 139.56640625 -14.999 M-139.56640625 -15 C-66.36014302605626 -14.999737736805042, 6.846120197887473 -14.999475473610083, 139.56640625 -14.999" stroke="#1ac5da" stroke-width="1.3" fill="none" stroke-dasharray="0 0" style=""></path></g><g class="divider" style=""><path d="M-139.56640625 9 C-40.34442612925464 9.000355465125121, 58.877553991490714 9.000710930250243, 139.56640625 9.001 M-139.56640625 9 C-31.008884663579565 9.000388909926476, 77.54863692284087 9.000777819852951, 139.56640625 9.001" stroke="#1ac5da" stroke-width="1.3" fill="none" stroke-dasharray="0 0" style=""></path></g></g><g class="node default" id="container-classId-5f Observability-6" data-look="classic" transform="translate(468.953125, 924)"><g class="basic label-container outer-path"><path d="M-147.3125 -60 L147.3125 -60 L147.3125 60 L-147.3125 60" stroke="none" stroke-width="0" fill="#0b4261" style=""></path><path d="M-147.3125 -60 C-63.975028025422844 -60, 19.36244394915431 -60, 147.3125 -60 M-147.3125 -60 C-65.78685328546904 -60, 15.738793429061928 -60, 147.3125 -60 M147.3125 -60 C147.3125 -31.039974067227757, 147.3125 -2.0799481344555133, 147.3125 60 M147.3125 -60 C147.3125 -14.382555082604057, 147.3125 31.234889834791886, 147.3125 60 M147.3125 60 C52.74679885795504 60, -41.818902284089916 60, -147.3125 60 M147.3125 60 C40.451995522047824 60, -66.40850895590435 60, -147.3125 60 M-147.3125 60 C-147.3125 23.108514543489605, -147.3125 -13.78297091302079, -147.3125 -60 M-147.3125 60 C-147.3125 20.971344158677596, -147.3125 -18.05731168264481, -147.3125 -60" stroke="#1ac5da" stroke-width="1.3" fill="none" stroke-dasharray="0 0" style=""></path></g><g class="annotation-group text" transform="translate(0, -36)"></g><g class="label-group text" transform="translate(-63.3125, -36)"><g class="label" style="font-weight: bolder" transform="translate(0,-12)"><foreignObject width="126.625" height="24"><div xmlns="http://www.w3.org/1999/xhtml" style="display: table-cell; white-space: nowrap; line-height: 1.5; max-width: 168px; text-align: center;"><span class="nodeLabel markdown-node-label" style=""><p>5f Observability</p></span></div></foreignObject></g></g><g class="members-group text" transform="translate(-135.3125, 12)"><g class="label" style="" transform="translate(0,-12)"><foreignObject width="207.3125" height="24"><div xmlns="http://www.w3.org/1999/xhtml" style="display: table-cell; white-space: nowrap; line-height: 1.5; max-width: 258px; text-align: center;"><span class="nodeLabel markdown-node-label" style=""><p>Off, or OTLP to local MLflow</p></span></div></foreignObject></g></g><g class="methods-group text" transform="translate(-135.3125, 60)"></g><g class="divider" style=""><path d="M-147.3125 -12 C-44.216624208618825 -11.999650077638384, 58.87925158276235 -11.999300155276767, 147.3125 -11.999 M-147.3125 -12 C-44.76753102215065 -11.999651947496044, 57.7774379556987 -11.99930389499209, 147.3125 -11.999" stroke="#1ac5da" stroke-width="1.3" fill="none" stroke-dasharray="0 0" style=""></path></g><g class="divider" style=""><path d="M-147.3125 36 C-80.97134354172424 36.000225171511104, -14.630187083448476 36.0004503430222, 147.3125 36.001 M-147.3125 36 C-78.85374658957001 36.00023235894242, -10.394993179140016 36.00046471788484, 147.3125 36.001" stroke="#1ac5da" stroke-width="1.3" fill="none" stroke-dasharray="0 0" style=""></path></g></g><g class="node default" id="container-classId-5g Bathing-water quality-7" data-look="classic" transform="translate(468.953125, 1094)"><g class="basic label-container outer-path"><path d="M-181.91015625 -60 L181.91015625 -60 L181.91015625 60 L-181.91015625 60" stroke="none" stroke-width="0" fill="#0b4261" style=""></path><path d="M-181.91015625 -60 C-93.09752054222407 -60, -4.28488483444815 -60, 181.91015625 -60 M-181.91015625 -60 C-61.52328161484172 -60, 58.86359302031656 -60, 181.91015625 -60 M181.91015625 -60 C181.91015625 -22.157854857228543, 181.91015625 15.684290285542914, 181.91015625 60 M181.91015625 -60 C181.91015625 -25.37109269877235, 181.91015625 9.257814602455298, 181.91015625 60 M181.91015625 60 C85.18447229115978 60, -11.541211667680443 60, -181.91015625 60 M181.91015625 60 C61.421424523650686 60, -59.06730720269863 60, -181.91015625 60 M-181.91015625 60 C-181.91015625 31.049773414870018, -181.91015625 2.099546829740035, -181.91015625 -60 M-181.91015625 60 C-181.91015625 25.058304724263152, -181.91015625 -9.883390551473695, -181.91015625 -60" stroke="#1ac5da" stroke-width="1.3" fill="none" stroke-dasharray="0 0" style=""></path></g><g class="annotation-group text" transform="translate(0, -36)"></g><g class="label-group text" transform="translate(-98.5546875, -36)"><g class="label" style="font-weight: bolder" transform="translate(0,-12)"><foreignObject width="197.109375" height="24"><div xmlns="http://www.w3.org/1999/xhtml" style="display: table-cell; white-space: nowrap; line-height: 1.5; max-width: 232px; text-align: center;"><span class="nodeLabel markdown-node-label" style=""><p>5g Bathing-water quality</p></span></div></foreignObject></g></g><g class="members-group text" transform="translate(-169.91015625, 12)"><g class="label" style="" transform="translate(0,-12)"><foreignObject width="241.265625" height="24"><div xmlns="http://www.w3.org/1999/xhtml" style="display: table-cell; white-space: nowrap; line-height: 1.5; max-width: 291px; text-align: center;"><span class="nodeLabel markdown-node-label" style=""><p>IMA/SC feed, auto-selected in SC</p></span></div></foreignObject></g></g><g class="methods-group text" transform="translate(-169.91015625, 60)"></g><g class="divider" style=""><path d="M-181.91015625 -12 C-79.98761043980628 -11.999719854713142, 21.93493537038745 -11.999439709426284, 181.91015625 -11.999 M-181.91015625 -12 C-49.10291888504483 -11.999634964753747, 83.70431847991034 -11.999269929507497, 181.91015625 -11.999" stroke="#1ac5da" stroke-width="1.3" fill="none" stroke-dasharray="0 0" style=""></path></g><g class="divider" style=""><path d="M-181.91015625 36 C-105.80577507509963 36.000209181231945, -29.701393900199264 36.00041836246389, 181.91015625 36.001 M-181.91015625 36 C-47.49721485839092 36.000369448699736, 86.91572653321816 36.00073889739947, 181.91015625 36.001" stroke="#1ac5da" stroke-width="1.3" fill="none" stroke-dasharray="0 0" style=""></path></g></g><g class="node default" id="container-classId-5h Ocean knowledge-8" data-look="classic" transform="translate(468.953125, 1264)"><g class="basic label-container outer-path"><path d="M-193.875 -60 L193.875 -60 L193.875 60 L-193.875 60" stroke="none" stroke-width="0" fill="#0b4261" style=""></path><path d="M-193.875 -60 C-67.91227305620924 -60, 58.05045388758151 -60, 193.875 -60 M-193.875 -60 C-91.63620751846634 -60, 10.60258496306733 -60, 193.875 -60 M193.875 -60 C193.875 -35.21953320564394, 193.875 -10.439066411287882, 193.875 60 M193.875 -60 C193.875 -21.500624293060405, 193.875 16.99875141387919, 193.875 60 M193.875 60 C72.69465793198715 60, -48.4856841360257 60, -193.875 60 M193.875 60 C66.38626714423097 60, -61.10246571153806 60, -193.875 60 M-193.875 60 C-193.875 32.14450799451022, -193.875 4.289015989020442, -193.875 -60 M-193.875 60 C-193.875 15.871009758730146, -193.875 -28.257980482539708, -193.875 -60" stroke="#1ac5da" stroke-width="1.3" fill="none" stroke-dasharray="0 0" style=""></path></g><g class="annotation-group text" transform="translate(0, -36)"></g><g class="label-group text" transform="translate(-82.78125, -36)"><g class="label" style="font-weight: bolder" transform="translate(0,-12)"><foreignObject width="165.5625" height="24"><div xmlns="http://www.w3.org/1999/xhtml" style="display: table-cell; white-space: nowrap; line-height: 1.5; max-width: 206px; text-align: center;"><span class="nodeLabel markdown-node-label" style=""><p>5h Ocean knowledge</p></span></div></foreignObject></g></g><g class="members-group text" transform="translate(-181.875, 12)"><g class="label" style="" transform="translate(0,-12)"><foreignObject width="280.96875" height="24"><div xmlns="http://www.w3.org/1999/xhtml" style="display: table-cell; white-space: nowrap; line-height: 1.5; max-width: 331px; text-align: center;"><span class="nodeLabel markdown-node-label" style=""><p>Local RAG over knowledge markdown</p></span></div></foreignObject></g></g><g class="methods-group text" transform="translate(-181.875, 60)"></g><g class="divider" style=""><path d="M-193.875 -12 C-64.53818210314415 -11.999666442764934, 64.7986357937117 -11.999332885529869, 193.875 -11.999 M-193.875 -12 C-90.84284764528729 -11.999734282005532, 12.189304709425414 -11.999468564011066, 193.875 -11.999" stroke="#1ac5da" stroke-width="1.3" fill="none" stroke-dasharray="0 0" style=""></path></g><g class="divider" style=""><path d="M-193.875 36 C-50.179606906983196 36.00037058773202, 93.51578618603361 36.00074117546405, 193.875 36.001 M-193.875 36 C-53.488077411513416 36.00036205524845, 86.89884517697317 36.00072411049691, 193.875 36.001" stroke="#1ac5da" stroke-width="1.3" fill="none" stroke-dasharray="0 0" style=""></path></g></g></g></g></g><defs><filter id="container-drop-shadow" height="130%" width="130%"><feDropShadow dx="4" dy="4" stdDeviation="0" flood-opacity="0.06" flood-color="#000000"></feDropShadow></filter></defs><defs><filter id="container-drop-shadow-small" height="150%" width="150%"><feDropShadow dx="2" dy="2" stdDeviation="0" flood-opacity="0.06" flood-color="#000000"></feDropShadow></filter></defs><linearGradient id="container-gradient" gradientUnits="objectBoundingBox" x1="0%" y1="0%" x2="100%" y2="0%"><stop offset="0%" stop-color="#1ac5da" stop-opacity="1"></stop><stop offset="100%" stop-color="hsl(81.6279069767, 39.6296296296%, 11.1764705882%)" stop-opacity="1"></stop></linearGradient></svg>