<?xml version="1.0" encoding="UTF-8" standalone="no"?>
<!DOCTYPE svg PUBLIC "-//W3C//DTD SVG 1.1//EN"
 "http://www.w3.org/Graphics/SVG/1.1/DTD/svg11.dtd">
<!-- Generated by graphviz version 2.47.0 (20210316.0004)
 -->
<!-- Title: dbml Pages: 1 -->
<svg width="561pt" height="692pt"
 viewBox="0.00 0.00 560.96 692.48" xmlns="http://www.w3.org/2000/svg" xmlns:xlink="http://www.w3.org/1999/xlink">
<g id="graph0" class="graph" transform="scale(1 1) rotate(0) translate(4 688.48)">
<title>dbml</title>
<!-- point (1 of 2) -->
<g id="point (1 of 2)" class="node">
<title>point (1 of 2)</title>
<ellipse fill="none" stroke="black" stroke-width="0" cx="276.48" cy="-342.24" rx="276.46" ry="342.48"/>
<polygon fill="#1d71b8" stroke="transparent" points="83.48,-522.24 83.48,-582.24 470.48,-582.24 470.48,-522.24 83.48,-522.24"/>
<polygon fill="none" stroke="#29235c" points="83.48,-522.24 83.48,-582.24 470.48,-582.24 470.48,-522.24 83.48,-522.24"/>
<text text-anchor="start" x="124.93" y="-543.44" font-family="Helvetica,sans-Serif" font-weight="bold" font-size="32.00" fill="#ffffff"> &#160;&#160;&#160;&#160;&#160;&#160;point (1 of 2) &#160;&#160;&#160;&#160;&#160;&#160;</text>
<polygon fill="#e7e2dd" stroke="transparent" points="83.48,-462.24 83.48,-522.24 470.48,-522.24 470.48,-462.24 83.48,-462.24"/>
<polygon fill="none" stroke="#29235c" points="83.48,-462.24 83.48,-522.24 470.48,-522.24 470.48,-462.24 83.48,-462.24"/>
<text text-anchor="start" x="94.48" y="-483.44" font-family="Helvetica,sans-Serif" font-weight="bold" font-size="32.00" fill="#29235c">source_id</text>
<text text-anchor="start" x="233.18" y="-483.44" font-family="Helvetica,sans-Serif" font-size="32.00" fill="#29235c"> &#160;&#160;&#160;</text>
<text text-anchor="start" x="313.72" y="-483.44" font-family="Helvetica,sans-Serif" font-style="italic" font-size="32.00" fill="#29235c">varchar</text>
<text text-anchor="start" x="420.39" y="-483.44" font-family="Helvetica,sans-Serif" font-size="32.00" fill="#29235c"> </text>
<text text-anchor="start" x="429.28" y="-483.44" font-family="Helvetica,sans-Serif" font-weight="bold" font-size="32.00" fill="#29235c">(!)</text>
<polygon fill="#e7e2dd" stroke="transparent" points="83.48,-402.24 83.48,-462.24 470.48,-462.24 470.48,-402.24 83.48,-402.24"/>
<polygon fill="none" stroke="#29235c" points="83.48,-402.24 83.48,-462.24 470.48,-462.24 470.48,-402.24 83.48,-402.24"/>
<text text-anchor="start" x="94.48" y="-423.44" font-family="Helvetica,sans-Serif" font-weight="bold" font-size="32.00" fill="#29235c">point_key</text>
<text text-anchor="start" x="231.42" y="-423.44" font-family="Helvetica,sans-Serif" font-size="32.00" fill="#29235c"> &#160;&#160;&#160;</text>
<text text-anchor="start" x="313.72" y="-423.44" font-family="Helvetica,sans-Serif" font-style="italic" font-size="32.00" fill="#29235c">varchar</text>
<text text-anchor="start" x="420.39" y="-423.44" font-family="Helvetica,sans-Serif" font-size="32.00" fill="#29235c"> </text>
<text text-anchor="start" x="429.28" y="-423.44" font-family="Helvetica,sans-Serif" font-weight="bold" font-size="32.00" fill="#29235c">(!)</text>
<polygon fill="#e7e2dd" stroke="transparent" points="83.48,-342.24 83.48,-402.24 470.48,-402.24 470.48,-342.24 83.48,-342.24"/>
<polygon fill="none" stroke="#29235c" points="83.48,-342.24 83.48,-402.24 470.48,-402.24 470.48,-342.24 83.48,-342.24"/>
<text text-anchor="start" x="94.48" y="-362.44" font-family="Helvetica,sans-Serif" font-size="32.00" fill="#29235c">country &#160;&#160;&#160;</text>
<text text-anchor="start" x="313.72" y="-363.44" font-family="Helvetica,sans-Serif" font-style="italic" font-size="32.00" fill="#29235c">varchar</text>
<text text-anchor="start" x="420.39" y="-363.44" font-family="Helvetica,sans-Serif" font-size="32.00" fill="#29235c"> </text>
<text text-anchor="start" x="429.28" y="-363.44" font-family="Helvetica,sans-Serif" font-weight="bold" font-size="32.00" fill="#29235c">(!)</text>
<polygon fill="#e7e2dd" stroke="transparent" points="83.48,-282.24 83.48,-342.24 470.48,-342.24 470.48,-282.24 83.48,-282.24"/>
<polygon fill="none" stroke="#29235c" points="83.48,-282.24 83.48,-342.24 470.48,-342.24 470.48,-282.24 83.48,-282.24"/>
<text text-anchor="start" x="94.48" y="-302.44" font-family="Helvetica,sans-Serif" font-size="32.00" fill="#29235c">state &#160;&#160;&#160;</text>
<text text-anchor="start" x="313.72" y="-303.44" font-family="Helvetica,sans-Serif" font-style="italic" font-size="32.00" fill="#29235c">varchar</text>
<text text-anchor="start" x="420.39" y="-303.44" font-family="Helvetica,sans-Serif" font-size="32.00" fill="#29235c"> </text>
<text text-anchor="start" x="429.28" y="-303.44" font-family="Helvetica,sans-Serif" font-weight="bold" font-size="32.00" fill="#29235c">(!)</text>
<polygon fill="#e7e2dd" stroke="transparent" points="83.48,-222.24 83.48,-282.24 470.48,-282.24 470.48,-222.24 83.48,-222.24"/>
<polygon fill="none" stroke="#29235c" points="83.48,-222.24 83.48,-282.24 470.48,-282.24 470.48,-222.24 83.48,-222.24"/>
<text text-anchor="start" x="94.48" y="-242.44" font-family="Helvetica,sans-Serif" font-size="32.00" fill="#29235c">municipality &#160;&#160;&#160;</text>
<text text-anchor="start" x="313.72" y="-243.44" font-family="Helvetica,sans-Serif" font-style="italic" font-size="32.00" fill="#29235c">varchar</text>
<text text-anchor="start" x="420.39" y="-243.44" font-family="Helvetica,sans-Serif" font-size="32.00" fill="#29235c"> </text>
<text text-anchor="start" x="429.28" y="-243.44" font-family="Helvetica,sans-Serif" font-weight="bold" font-size="32.00" fill="#29235c">(!)</text>
<polygon fill="#e7e2dd" stroke="transparent" points="83.48,-162.24 83.48,-222.24 470.48,-222.24 470.48,-162.24 83.48,-162.24"/>
<polygon fill="none" stroke="#29235c" points="83.48,-162.24 83.48,-222.24 470.48,-222.24 470.48,-162.24 83.48,-162.24"/>
<text text-anchor="start" x="94.48" y="-182.44" font-family="Helvetica,sans-Serif" font-size="32.00" fill="#29235c">ibge_code &#160;&#160;&#160;</text>
<text text-anchor="start" x="352.81" y="-183.44" font-family="Helvetica,sans-Serif" font-style="italic" font-size="32.00" fill="#29235c">varchar</text>
<polygon fill="#e7e2dd" stroke="transparent" points="83.48,-102.24 83.48,-162.24 470.48,-162.24 470.48,-102.24 83.48,-102.24"/>
<polygon fill="none" stroke="#29235c" points="83.48,-102.24 83.48,-162.24 470.48,-162.24 470.48,-102.24 83.48,-102.24"/>
<text text-anchor="start" x="94.21" y="-122.44" font-family="Helvetica,sans-Serif" font-size="32.00" fill="#29235c">beach_name &#160;&#160;&#160;</text>
<text text-anchor="start" x="314.1" y="-123.44" font-family="Helvetica,sans-Serif" font-style="italic" font-size="32.00" fill="#29235c">varchar</text>
<text text-anchor="start" x="420.77" y="-123.44" font-family="Helvetica,sans-Serif" font-size="32.00" fill="#29235c"> </text>
<text text-anchor="start" x="429.66" y="-123.44" font-family="Helvetica,sans-Serif" font-weight="bold" font-size="32.00" fill="#29235c">(!)</text>
<polygon fill="none" stroke="#29235c" stroke-width="2" points="81.98,-101.24 81.98,-583.24 470.98,-583.24 470.98,-101.24 81.98,-101.24"/>
</g>
</g>
</svg>

