<svg id="container" width="760.578125" xmlns="http://www.w3.org/2000/svg" class="flowchart" height="318.5" viewBox="0 0 760.578125 318.5" role="graphics-document document" aria-roledescription="flowchart-v2"><style>#container{font-family:"Open Sans","trebuchet ms",verdana,arial,sans-serif;font-size:16px;fill:#ffffff;}@keyframes edge-animation-frame{from{stroke-dashoffset:0;}}@keyframes dash{to{stroke-dashoffset:0;}}#container .edge-animation-slow{stroke-dasharray:9,5!important;stroke-dashoffset:900;animation:dash 50s linear infinite;stroke-linecap:round;}#container .edge-animation-fast{stroke-dasharray:9,5!important;stroke-dashoffset:900;animation:dash 20s linear infinite;stroke-linecap:round;}#container .error-icon{fill:hsl(21.6279069767, 79.6296296296%, 26.1764705882%);}#container .error-text{fill:rgb(135.0972222224, 203.0833333335, 241.4027777778);stroke:rgb(135.0972222224, 203.0833333335, 241.4027777778);}#container .edge-thickness-normal{stroke-width:1px;}#container .edge-thickness-thick{stroke-width:3.5px;}#container .edge-pattern-solid{stroke-dasharray:0;}#container .edge-thickness-invisible{stroke-width:0;fill:none;}#container .edge-pattern-dashed{stroke-dasharray:3;}#container .edge-pattern-dotted{stroke-dasharray:2;}#container .marker{fill:#1ac5da;stroke:#1ac5da;}#container .marker.cross{stroke:#1ac5da;}#container svg{font-family:"Open Sans","trebuchet ms",verdana,arial,sans-serif;font-size:16px;}#container p{margin:0;}#container .label{font-family:"Open Sans","trebuchet ms",verdana,arial,sans-serif;color:#ffffff;}#container .cluster-label text{fill:rgb(135.0972222224, 203.0833333335, 241.4027777778);}#container .cluster-label span{color:rgb(135.0972222224, 203.0833333335, 241.4027777778);}#container .cluster-label span p{background-color:transparent;}#container .label text,#container span{fill:#ffffff;color:#ffffff;}#container .node rect,#container .node circle,#container .node ellipse,#container .node polygon,#container .node path{fill:#0b4261;stroke:#1ac5da;stroke-width:1px;}#container .rough-node .label text,#container .node .label text,#container .image-shape .label,#container .icon-shape .label{text-anchor:middle;}#container .node .katex path{fill:#000;stroke:#000;stroke-width:1px;}#container .rough-node .label,#container .node .label,#container .image-shape .label,#container .icon-shape .label{text-align:center;}#container .node.clickable{cursor:pointer;}#container .root .anchor path{fill:#1ac5da!important;stroke-width:0;stroke:#1ac5da;}#container .arrowheadPath{fill:rgba(255, 255, 255, 0);}#container .edgePath .path{stroke:#1ac5da;stroke-width:1px;}#container .flowchart-link{stroke:#1ac5da;fill:none;}#container .edgeLabel{background-color:#082f45;text-align:center;}#container .edgeLabel p{background-color:#082f45;}#container .edgeLabel rect{opacity:0.5;background-color:#082f45;fill:#082f45;}#container .labelBkg{background-color:rgba(8, 47, 69, 0.5);}#container .cluster rect{fill:hsl(21.6279069767, 79.6296296296%, 26.1764705882%);stroke:hsl(21.6279069767, 39.6296296296%, 16.1764705882%);stroke-width:1px;}#container .cluster text{fill:rgb(135.0972222224, 203.0833333335, 241.4027777778);}#container .cluster span{color:rgb(135.0972222224, 203.0833333335, 241.4027777778);}#container div.mermaidTooltip{position:absolute;text-align:center;max-width:200px;padding:2px;font-family:"Open Sans","trebuchet ms",verdana,arial,sans-serif;font-size:12px;background:hsl(21.6279069767, 79.6296296296%, 26.1764705882%);border:1px solid hsl(21.6279069767, 39.6296296296%, 16.1764705882%);border-radius:2px;pointer-events:none;z-index:100;}#container .flowchartTitleText{text-anchor:middle;font-size:18px;fill:#ffffff;}#container rect.text{fill:none;stroke-width:0;}#container .icon-shape,#container .image-shape{background-color:#082f45;text-align:center;}#container .icon-shape p,#container .image-shape p{background-color:#082f45;padding:2px;}#container .icon-shape .label rect,#container .image-shape .label rect{opacity:0.5;background-color:#082f45;fill:#082f45;}#container .label-icon{display:inline-block;height:1em;overflow:visible;vertical-align:-0.125em;}#container .node .label-icon path{fill:currentColor;stroke:revert;stroke-width:revert;}#container .node .neo-node{stroke:#1ac5da;}#container [data-look="neo"].node rect,#container [data-look="neo"].cluster rect,#container [data-look="neo"].node polygon{stroke:url(#container-gradient);filter:drop-shadow( 1px 2px 2px rgba(185,185,185,1));}#container [data-look="neo"].swimlane.cluster rect{filter:none;}#container [data-look="neo"].node path{stroke:url(#container-gradient);stroke-width:1px;}#container [data-look="neo"].node .outer-path{filter:drop-shadow( 1px 2px 2px rgba(185,185,185,1));}#container [data-look="neo"].node .neo-line path{stroke:#1ac5da;filter:none;}#container [data-look="neo"].node circle{stroke:url(#container-gradient);filter:drop-shadow( 1px 2px 2px rgba(185,185,185,1));}#container [data-look="neo"].node circle .state-start{fill:#000000;}#container [data-look="neo"].icon-shape .icon{fill:url(#container-gradient);filter:drop-shadow( 1px 2px 2px rgba(185,185,185,1));}#container [data-look="neo"].icon-shape .icon-neo path{stroke:url(#container-gradient);filter:drop-shadow( 1px 2px 2px rgba(185,185,185,1));}#container :root{--mermaid-font-family:"Open Sans","trebuchet ms",verdana,arial,sans-serif;}</style><g><marker id="container_flowchart-v2-pointEnd" class="marker flowchart-v2" viewBox="0 0 10 10" refX="5" refY="5" markerUnits="userSpaceOnUse" markerWidth="8" markerHeight="8" orient="auto"><path d="M 0 0 L 10 5 L 0 10 z" class="arrowMarkerPath" style="stroke-width: 1; stroke-dasharray: 1, 0;"></path></marker><marker id="container_flowchart-v2-pointStart" class="marker flowchart-v2" viewBox="0 0 10 10" refX="4.5" refY="5" markerUnits="userSpaceOnUse" markerWidth="8" markerHeight="8" orient="auto"><path d="M 0 5 L 10 10 L 10 0 z" class="arrowMarkerPath" style="stroke-width: 1; stroke-dasharray: 1, 0;"></path></marker><marker id="container_flowchart-v2-pointEnd-margin" class="marker flowchart-v2" viewBox="0 0 11.5 14" refX="11.5" refY="7" markerUnits="userSpaceOnUse" markerWidth="10.5" markerHeight="14" orient="auto"><path d="M 0 0 L 11.5 7 L 0 14 z" class="arrowMarkerPath" style="stroke-width: 0; stroke-dasharray: 1, 0;"></path></marker><marker id="container_flowchart-v2-pointStart-margin" class="marker flowchart-v2" viewBox="0 0 11.5 14" refX="1" refY="7" markerUnits="userSpaceOnUse" markerWidth="11.5" markerHeight="14" orient="auto"><polygon points="0,7 11.5,14 11.5,0" class="arrowMarkerPath" style="stroke-width: 0; stroke-dasharray: 1, 0;"></polygon></marker><marker id="container_flowchart-v2-circleEnd" class="marker flowchart-v2" viewBox="0 0 10 10" refX="11" refY="5" markerUnits="userSpaceOnUse" markerWidth="11" markerHeight="11" orient="auto"><circle cx="5" cy="5" r="5" class="arrowMarkerPath" style="stroke-width: 1; stroke-dasharray: 1, 0;"></circle></marker><marker id="container_flowchart-v2-circleStart" class="marker flowchart-v2" viewBox="0 0 10 10" refX="-1" refY="5" markerUnits="userSpaceOnUse" markerWidth="11" markerHeight="11" orient="auto"><circle cx="5" cy="5" r="5" class="arrowMarkerPath" style="stroke-width: 1; stroke-dasharray: 1, 0;"></circle></marker><marker id="container_flowchart-v2-circleEnd-margin" class="marker flowchart-v2" viewBox="0 0 10 10" refY="5" refX="12.25" markerUnits="userSpaceOnUse" markerWidth="14" markerHeight="14" orient="auto"><circle cx="5" cy="5" r="5" class="arrowMarkerPath" style="stroke-width: 0; stroke-dasharray: 1, 0;"></circle></marker><marker id="container_flowchart-v2-circleStart-margin" class="marker flowchart-v2" viewBox="0 0 10 10" refX="-2" refY="5" markerUnits="userSpaceOnUse" markerWidth="14" markerHeight="14" orient="auto"><circle cx="5" cy="5" r="5" class="arrowMarkerPath" style="stroke-width: 0; stroke-dasharray: 1, 0;"></circle></marker><marker id="container_flowchart-v2-crossEnd" class="marker cross flowchart-v2" viewBox="0 0 11 11" refX="12" refY="5.2" markerUnits="userSpaceOnUse" markerWidth="11" markerHeight="11" orient="auto"><path d="M 1,1 l 9,9 M 10,1 l -9,9" class="arrowMarkerPath" style="stroke-width: 2; stroke-dasharray: 1, 0;"></path></marker><marker id="container_flowchart-v2-crossStart" class="marker cross flowchart-v2" viewBox="0 0 11 11" refX="-1" refY="5.2" markerUnits="userSpaceOnUse" markerWidth="11" markerHeight="11" orient="auto"><path d="M 1,1 l 9,9 M 10,1 l -9,9" class="arrowMarkerPath" style="stroke-width: 2; stroke-dasharray: 1, 0;"></path></marker><marker id="container_flowchart-v2-crossEnd-margin" class="marker cross flowchart-v2" viewBox="0 0 15 15" refX="17.7" refY="7.5" markerUnits="userSpaceOnUse" markerWidth="12" markerHeight="12" orient="auto"><path d="M 1,1 L 14,14 M 1,14 L 14,1" class="arrowMarkerPath" style="stroke-width: 2.5;"></path></marker><marker id="container_flowchart-v2-crossStart-margin" class="marker cross flowchart-v2" viewBox="0 0 15 15" refX="-3.5" refY="7.5" markerUnits="userSpaceOnUse" markerWidth="12" markerHeight="12" orient="auto"><path d="M 1,1 L 14,14 M 1,14 L 14,1" class="arrowMarkerPath" style="stroke-width: 2.5; stroke-dasharray: 1, 0;"></path></marker><g class="root"><g class="clusters"></g><g class="edgePaths"><path d="M204.938,35L232.044,35C259.151,35,313.365,35,366.318,36.622C419.271,38.243,470.964,41.487,496.81,43.109L522.656,44.73" id="container-L_any_hosted_0" class="edge-thickness-normal edge-pattern-solid edge-thickness-normal edge-pattern-solid flowchart-link" style=";" data-edge="true" data-et="edge" data-id="L_any_hosted_0" data-points="W3sieCI6MjA0LjkzNzUsInkiOjM1fSx7IngiOjM2Ny41NzgxMjUsInkiOjM1fSx7IngiOjUyNi42NDg0Mzc1LCJ5Ijo0NC45ODA4ODIzNTI5NDExOH1d" data-look="classic" marker-end="url(#container_flowchart-v2-pointEnd)"></path><path d="M242.578,156.809L263.411,157.841C284.245,158.873,325.911,160.936,366.955,169.616C407.998,178.296,448.417,193.592,468.627,201.24L488.837,208.888" id="container-L_gpu_desk_0" class="edge-thickness-normal edge-pattern-solid edge-thickness-normal edge-pattern-solid flowchart-link" style=";" data-edge="true" data-et="edge" data-id="L_gpu_desk_0" data-points="W3sieCI6MjQyLjU3ODEyNSwieSI6MTU2LjgwOTA0NzgxODY1Njd9LHsieCI6MzY3LjU3ODEyNSwieSI6MTYzfSx7IngiOjQ5Mi41NzgxMjUsInkiOjIxMC4zMDM5MjE1Njg2Mjc0Nn1d" data-look="classic" marker-end="url(#container_flowchart-v2-pointEnd)"></path><path d="M153.582,242.277L189.248,219.398C224.914,196.518,296.246,150.759,357.772,122.403C419.297,94.048,471.016,83.095,496.876,77.619L522.735,72.143" id="container-L_fork_hosted_0" class="edge-thickness-normal edge-pattern-dotted edge-thickness-normal edge-pattern-solid flowchart-link" style=";" data-edge="true" data-et="edge" data-id="L_fork_hosted_0" data-points="W3sieCI6MTUzLjU4MjA0MDQ4ODg4NTY0LCJ5IjoyNDIuMjc3MzA1MjM2MjQ5MjV9LHsieCI6MzY3LjU3ODEyNSwieSI6MTA1fSx7IngiOjUyNi42NDg0Mzc1LCJ5Ijo3MS4zMTQ1MjIwNTg4MjM1M31d" data-look="classic" marker-end="url(#container_flowchart-v2-pointEnd)"></path><path d="M164.87,261.936L198.655,263.53C232.44,265.124,300.009,268.312,354.627,268.926C409.245,269.539,450.911,267.578,471.745,266.598L492.578,265.618" id="container-L_fork_desk_0" class="edge-thickness-normal edge-pattern-dotted edge-thickness-normal edge-pattern-solid flowchart-link" style=";" data-edge="true" data-et="edge" data-id="L_fork_desk_0" data-points="W3sieCI6MTY0Ljg3MDQ5NzU1NzkwOTQzLCJ5IjoyNjEuOTM1NjEwMzY0OTc0Mzd9LHsieCI6MzY3LjU3ODEyNSwieSI6MjcxLjV9LHsieCI6NDkyLjU3ODEyNSwieSI6MjY1LjYxNzY0NzA1ODgyMzU0fV0=" data-look="classic" marker-end="url(#container_flowchart-v2-crossEnd)"></path></g><g class="edgeLabels"><g class="edgeLabel"><g class="label" data-id="L_any_hosted_0" transform="translate(0, 0)"><foreignObject width="0" height="0"><div xmlns="http://www.w3.org/1999/xhtml" class="labelBkg" style="display: table-cell; white-space: nowrap; line-height: 1.5; max-width: 200px; text-align: center;"><span class="edgeLabel"></span></div></foreignObject></g></g><g class="edgeLabel"><g class="label" data-id="L_gpu_desk_0" transform="translate(0, 0)"><foreignObject width="0" height="0"><div xmlns="http://www.w3.org/1999/xhtml" class="labelBkg" style="display: table-cell; white-space: nowrap; line-height: 1.5; max-width: 200px; text-align: center;"><span class="edgeLabel"></span></div></foreignObject></g></g><g class="edgeLabel" transform="translate(329.00939, 129.74163)"><g class="label" data-id="L_fork_hosted_0" transform="translate(-54.0859375, -12)"><foreignObject width="108.171875" height="24"><div xmlns="http://www.w3.org/1999/xhtml" class="labelBkg" style="display: table-cell; white-space: nowrap; line-height: 1.5; max-width: 200px; text-align: center;"><span class="edgeLabel"><p>approval, then</p></span></div></foreignObject></g></g><g class="edgeLabel" transform="translate(328.72395, 269.66674)"><g class="label" data-id="L_fork_desk_0" transform="translate(-100, -24)"><foreignObject width="200" height="48"><div xmlns="http://www.w3.org/1999/xhtml" class="labelBkg" style="display: table; white-space: break-spaces; line-height: 1.5; max-width: 200px; text-align: center; width: 200px;"><span class="edgeLabel"><p>blocked by workflow-runners</p></span></div></foreignObject></g></g></g><g class="nodes"><g class="node default" id="container-flowchart-any-0" data-look="classic" transform="translate(125.2890625, 35)"><rect class="basic label-container" style="" x="-79.6484375" y="-27" width="159.296875" height="54"></rect><g class="label" style="" transform="translate(-49.6484375, -12)"><rect></rect><foreignObject width="99.296875" height="24"><div xmlns="http://www.w3.org/1999/xhtml" style="display: table-cell; white-space: nowrap; line-height: 1.5; max-width: 200px; text-align: center;"><span class="nodeLabel"><p>any workflow</p></span></div></foreignObject></g></g><g class="node default" id="container-flowchart-hosted-1" data-look="classic" transform="translate(622.578125, 51)"><rect class="basic label-container" style="" x="-95.9296875" y="-39" width="191.859375" height="78"></rect><g class="label" style="" transform="translate(-65.9296875, -24)"><rect></rect><foreignObject width="131.859375" height="48"><div xmlns="http://www.w3.org/1999/xhtml" style="display: table-cell; white-space: nowrap; line-height: 1.5; max-width: 200px; text-align: center;"><span class="nodeLabel"><p>ubuntu-latest<br/>(free, public repo)</p></span></div></foreignObject></g></g><g class="node default" id="container-flowchart-gpu-2" data-look="classic" transform="translate(125.2890625, 151)"><rect class="basic label-container" style="" x="-117.2890625" y="-39" width="234.578125" height="78"></rect><g class="label" style="" transform="translate(-87.2890625, -24)"><rect></rect><foreignObject width="174.578125" height="48"><div xmlns="http://www.w3.org/1999/xhtml" style="display: table-cell; white-space: nowrap; line-height: 1.5; max-width: 200px; text-align: center;"><span class="nodeLabel"><p>marola-sea-publish.yml<br/>workflow_dispatch only</p></span></div></foreignObject></g></g><g class="node default" id="container-flowchart-desk-3" data-look="classic" transform="translate(622.578125, 259.5)"><rect class="basic label-container" style="" x="-130" y="-51" width="260" height="102"></rect><g class="label" style="" transform="translate(-100, -36)"><rect></rect><foreignObject width="200" height="72"><div xmlns="http://www.w3.org/1999/xhtml" style="display: table; white-space: break-spaces; line-height: 1.5; max-width: 200px; text-align: center; width: 200px;"><span class="nodeLabel"><p>[self-hosted, marola-sea]<br/>the maintainer's GPU desktop</p></span></div></foreignObject></g></g><g class="node default" id="container-flowchart-fork-4" data-look="classic" transform="translate(125.2890625, 259.5)"><g class="basic label-container outer-path"><path d="M-19.6796875 -19.5 C-4.476186955692686 -19.5, 10.727313588614628 -19.5, 19.6796875 -19.5 C19.6796875 -19.5, 19.6796875 -19.5, 19.6796875 -19.5 C19.952464044440923 -19.491252587147113, 20.225240588881846 -19.48250517429423, 20.9290567896239 -19.45993515863156 C21.41912254558802 -19.412659104544, 21.909188301552145 -19.365383050456444, 22.173292152847864 -19.3399052695533 C22.470093359925063 -19.291920752120795, 22.76689456700226 -19.24393623468829, 23.40728075967676 -19.140403561325776 C23.8356735364527 -19.04262570555079, 24.26406631322864 -18.944847849775805, 24.62595188623539 -18.862249829261074 C25.014778941348833 -18.746848000298268, 25.40360599646227 -18.631446171335458, 25.824297751460602 -18.50658706670804 C26.113294142987787 -18.400233723172676, 26.40229053451497 -18.293880379637315, 26.997394095147794 -18.074876768247425 C27.27400904403421 -17.952427535866324, 27.550623992920624 -17.829978303485227, 28.14042041279238 -17.568892924097174 C28.417797789203334 -17.424185324492267, 28.69517516561429 -17.27947772488736, 29.248679764076783 -16.990714730406097 C29.622504616328456 -16.764099908132454, 29.99632946858013 -16.537485085858812, 30.317618073605697 -16.342718045390892 C30.703428176900566 -16.073593618782585, 31.089238280195435 -15.804469192174276, 31.342842844578712 -15.627565626425154 C31.598461129726537 -15.42371684630801, 31.85407941487436 -15.219868066190864, 32.320141208501866 -14.848196188198123 C32.62691267344951 -14.569594460460856, 32.933684138397155 -14.290992732723588, 33.24549723676799 -14.007812326905688 C33.51734550882627 -13.727106666847295, 33.78919378088455 -13.446401006788903, 34.11510844296865 -13.10986736009568 C34.43180216544288 -12.73786089329414, 34.74849588791712 -12.365854426492598, 34.92540140812658 -12.158051136245305 C35.148395813200025 -11.85925894865512, 35.37139021827346 -11.560466761064932, 35.673046464640635 -11.156274872382312 C35.90483216413511 -10.800189794783623, 36.13661786362958 -10.444104717184935, 36.35497137860425 -10.108655082055241 C36.50736166584202 -9.8380706958747, 36.659751953079784 -9.56748630969416, 36.968373974273504 -9.019496659696287 C37.141589564137504 -8.659810781123792, 37.314805154001505 -8.300124902551296, 37.51073364880834 -7.893275190886684 C37.67985720872937 -7.475536728100144, 37.84898076865041 -7.057798265313604, 37.979821729970325 -6.734618561215508 C38.12991615992619 -6.282558052488233, 38.28001058988205 -5.830497543760958, 38.37371063421488 -5.548287939305138 C38.45999263969085 -5.219257257567544, 38.54627464516682 -4.89022657582995, 38.69078178754556 -4.339158212148133 C38.75045495647013 -4.032749101649205, 38.81012812539469 -3.7263399911502777, 38.929732276581774 -3.1121979531509023 C38.97094068850077 -2.792593647828541, 39.01214910041976 -2.4729893425061804, 39.08958020250937 -1.872449005199798 C39.107788612724704 -1.588838318531772, 39.125997022940034 -1.3052276318637461, 39.16966871591342 -0.6250057626472757 C39.16966871591342 -0.25230479958877877, 39.16966871591342 0.12039616346971815, 39.16966871591342 0.625005762647271 C39.14154768359651 1.0630135398719318, 39.11342665127959 1.5010213170965923, 39.08958020250937 1.8724490051997846 C39.02833535027907 2.3474519849339397, 38.967090498048776 2.822454964668095, 38.929732276581774 3.1121979531508885 C38.83767111266013 3.584912572754643, 38.74560994873849 4.057627192358398, 38.69078178754556 4.339158212148129 C38.62038958150268 4.607594201964721, 38.549997375459796 4.8760301917813145, 38.37371063421489 5.548287939305125 C38.23929483018137 5.953126924804071, 38.10487902614786 6.357965910303015, 37.979821729970325 6.734618561215495 C37.88418555064554 6.97084177314746, 37.788549371320755 7.207064985079425, 37.51073364880834 7.893275190886679 C37.29605089864659 8.339068515072542, 37.08136814848485 8.784861839258404, 36.968373974273504 9.019496659696284 C36.84171592517247 9.244390851393382, 36.71505787607145 9.469285043090482, 36.35497137860425 10.108655082055236 C36.15721515685084 10.412461743649411, 35.95945893509743 10.716268405243584, 35.67304646464064 11.156274872382301 C35.509951041895846 11.374807880561649, 35.34685561915106 11.593340888740997, 34.92540140812658 12.158051136245302 C34.71757031668867 12.402181362172389, 34.50973922525076 12.646311588099476, 34.11510844296866 13.10986736009567 C33.903235350070524 13.328643723617432, 33.69136225717238 13.547420087139194, 33.24549723676799 14.007812326905684 C32.93967933083369 14.285548057576822, 32.63386142489939 14.563283788247961, 32.32014120850189 14.848196188198111 C31.952633778636304 15.14127358373248, 31.585126348770725 15.434350979266847, 31.342842844578715 15.627565626425152 C30.968974520794045 15.88835998459845, 30.59510619700938 16.149154342771748, 30.317618073605708 16.34271804539089 C30.032685274938828 16.515445982393736, 29.747752476271952 16.688173919396583, 29.248679764076787 16.990714730406093 C28.828353431224755 17.209998709023132, 28.40802709837272 17.42928268764017, 28.140420412792388 17.56889292409717 C27.904063991251885 17.673520900649017, 27.667707569711382 17.778148877200863, 26.997394095147804 18.07487676824742 C26.613898251688454 18.216006783637177, 26.230402408229104 18.357136799026932, 25.824297751460616 18.506587066708033 C25.44937507165448 18.61786215006519, 25.074452391848343 18.729137233422346, 24.625951886235413 18.86224982926107 C24.207101738765008 18.957849642168544, 23.788251591294603 19.053449455076013, 23.407280759676766 19.140403561325773 C23.056747172895292 19.197075113208037, 22.70621358611382 19.2537466650903, 22.17329215284788 19.3399052695533 C21.84255140978529 19.371811431262607, 21.511810666722702 19.403717592971915, 20.9290567896239 19.45993515863156 C20.652618616465777 19.468799992790476, 20.376180443307657 19.477664826949397, 19.679687500000004 19.5 C19.679687500000004 19.5, 19.6796875 19.5, 19.6796875 19.5 C9.543069735315163 19.5, -0.5935480293696749 19.5, -19.679687499999996 19.5 C-20.11064571435231 19.486180008875, -20.541603928704617 19.472360017749995, -20.929056789623893 19.45993515863156 C-21.399630382815655 19.414539490043897, -21.870203976007417 19.369143821456234, -22.17329215284787 19.3399052695533 C-22.448632051851664 19.295390449975173, -22.723971950855457 19.250875630397047, -23.40728075967676 19.140403561325773 C-23.76934796171619 19.057764085169573, -24.131415163755616 18.975124609013374, -24.625951886235388 18.862249829261074 C-24.87254842837337 18.789061269966187, -25.119144970511353 18.715872710671295, -25.82429775146059 18.506587066708043 C-26.175639959497772 18.37728988637859, -26.526982167534953 18.247992706049143, -26.997394095147797 18.074876768247425 C-27.359567319465285 17.914553425329057, -27.721740543782772 17.754230082410686, -28.14042041279238 17.568892924097174 C-28.546531054446483 17.357025262472508, -28.952641696100585 17.145157600847845, -29.24867976407678 16.990714730406097 C-29.481927145642565 16.849318796987156, -29.71517452720835 16.707922863568218, -30.317618073605686 16.3427180453909 C-30.720617514585346 16.061603080928116, -31.123616955565005 15.780488116465335, -31.342842844578712 15.627565626425156 C-31.621319247419407 15.405488105728002, -31.899795650260106 15.183410585030849, -32.320141208501866 14.848196188198125 C-32.5518121159822 14.6377987997008, -32.78348302346254 14.427401411203475, -33.245497236767974 14.007812326905697 C-33.56326803272112 13.67968789061653, -33.881038828674264 13.351563454327364, -34.115108442968655 13.109867360095677 C-34.322081451641594 12.86674508701062, -34.529054460314526 12.623622813925563, -34.925401408126575 12.158051136245307 C-35.10549862208774 11.916737276731077, -35.28559583604889 11.675423417216845, -35.673046464640635 11.156274872382316 C-35.82358003681322 10.925014881601214, -35.9741136089858 10.693754890820111, -36.35497137860425 10.108655082055249 C-36.537582314101265 9.784410874717938, -36.72019324959828 9.460166667380628, -36.968373974273504 9.019496659696289 C-37.1596109097143 8.62238907143854, -37.35084784515511 8.225281483180792, -37.51073364880834 7.893275190886686 C-37.683230262461215 7.46720522016894, -37.85572687611409 7.0411352494511945, -37.979821729970325 6.73461856121551 C-38.06996349595243 6.463125924217411, -38.160105261934525 6.191633287219313, -38.37371063421488 5.5482879393051325 C-38.498228363953054 5.07344786948804, -38.62274609369123 4.598607799670947, -38.69078178754556 4.339158212148136 C-38.7386253268765 4.093491749419354, -38.78646886620745 3.8478252866905724, -38.929732276581774 3.112197953150904 C-38.96539554275967 2.8356007031836215, -39.001058808937564 2.559003453216339, -39.08958020250937 1.872449005199809 C-39.11280611127675 1.510686728531784, -39.13603202004412 1.1489244518637587, -39.16966871591342 0.6250057626472781 C-39.16966871591342 0.19115813527956643, -39.16966871591342 -0.24268949208814528, -39.16966871591342 -0.6250057626472687 C-39.14157740912665 -1.0625505407459648, -39.11348610233987 -1.5000953188446609, -39.08958020250937 -1.8724490051997822 C-39.051225575684526 -2.1699199168755094, -39.012870948859685 -2.4673908285512365, -38.929732276581774 -3.112197953150895 C-38.86814374208658 -3.4284420610423485, -38.80655520759139 -3.744686168933802, -38.69078178754556 -4.339158212148126 C-38.59665810915892 -4.69809259129665, -38.50253443077228 -5.057026970445173, -38.37371063421489 -5.548287939305123 C-38.23170331556286 -5.975991357291445, -38.089695996910834 -6.403694775277766, -37.97982172997033 -6.734618561215485 C-37.84243888716526 -7.07395683906058, -37.70505604436019 -7.413295116905674, -37.51073364880834 -7.893275190886676 C-37.31966228978469 -8.290038956171452, -37.128590930761035 -8.686802721456226, -36.968373974273504 -9.019496659696282 C-36.7855999862642 -9.344030383280007, -36.6028259982549 -9.668564106863732, -36.35497137860425 -10.108655082055243 C-36.19335258436674 -10.356944950726978, -36.03173379012924 -10.605234819398715, -35.67304646464064 -11.156274872382308 C-35.45052285601572 -11.454436235621916, -35.227999247390805 -11.752597598861522, -34.92540140812659 -12.158051136245302 C-34.7370616537389 -12.3792857285847, -34.548721899351214 -12.600520320924096, -34.11510844296866 -13.10986736009567 C-33.92806483115152 -13.303005245862995, -33.74102121933437 -13.496143131630319, -33.245497236767996 -14.007812326905677 C-33.014089283264504 -14.217970907558616, -32.782681329761004 -14.428129488211553, -32.32014120850189 -14.848196188198107 C-32.06361109886455 -15.052772124080972, -31.80708098922721 -15.257348059963837, -31.34284284457872 -15.627565626425149 C-31.044809479848098 -15.83546080000481, -30.746776115117477 -16.04335597358447, -30.31761807360571 -16.342718045390885 C-29.954594413412256 -16.562785121563984, -29.5915707532188 -16.782852197737085, -29.24867976407679 -16.99071473040609 C-29.02055428042071 -17.10972764910812, -28.79242879676463 -17.228740567810153, -28.140420412792388 -17.56889292409717 C-27.849358530262585 -17.697737385449138, -27.55829664773278 -17.826581846801105, -26.997394095147804 -18.07487676824742 C-26.719223792000633 -18.177246011183673, -26.441053488853463 -18.27961525411993, -25.82429775146062 -18.506587066708033 C-25.409936634914178 -18.62956727107313, -24.995575518367737 -18.75254747543823, -24.625951886235413 -18.862249829261067 C-24.147006042179722 -18.97156609275306, -23.668060198124035 -19.080882356245056, -23.407280759676766 -19.140403561325773 C-23.12606738625882 -19.185867958697706, -22.844854012840877 -19.231332356069636, -22.173292152847882 -19.3399052695533 C-21.91422374069528 -19.36489728769831, -21.655155328542683 -19.38988930584332, -20.929056789623903 -19.45993515863156 C-20.561876428004418 -19.47170991815548, -20.19469606638493 -19.4834846776794, -19.679687500000007 -19.5 C-19.679687500000004 -19.5, -19.679687500000004 -19.5, -19.6796875 -19.5" stroke="none" stroke-width="0" fill="#0b4261" style=""></path><path d="M-19.6796875 -19.5 C-4.15167846846375 -19.5, 11.3763305630725 -19.5, 19.6796875 -19.5 M-19.6796875 -19.5 C-11.506940193606095 -19.5, -3.3341928872121898 -19.5, 19.6796875 -19.5 M19.6796875 -19.5 C19.6796875 -19.5, 19.6796875 -19.5, 19.6796875 -19.5 M19.6796875 -19.5 C19.6796875 -19.5, 19.6796875 -19.5, 19.6796875 -19.5 M19.6796875 -19.5 C19.98846425020699 -19.490098130618346, 20.297241000413983 -19.480196261236692, 20.9290567896239 -19.45993515863156 M19.6796875 -19.5 C19.9878272251203 -19.49011855877298, 20.2959669502406 -19.480237117545965, 20.9290567896239 -19.45993515863156 M20.9290567896239 -19.45993515863156 C21.384554022573734 -19.41599388838446, 21.840051255523566 -19.37205261813736, 22.173292152847864 -19.3399052695533 M20.9290567896239 -19.45993515863156 C21.205648785110576 -19.433252661477503, 21.48224078059725 -19.406570164323444, 22.173292152847864 -19.3399052695533 M22.173292152847864 -19.3399052695533 C22.519116449116833 -19.283995079240004, 22.8649407453858 -19.228084888926713, 23.40728075967676 -19.140403561325776 M22.173292152847864 -19.3399052695533 C22.478091124809247 -19.290627735517912, 22.782890096770625 -19.24135020148253, 23.40728075967676 -19.140403561325776 M23.40728075967676 -19.140403561325776 C23.699864908089328 -19.073623138740608, 23.9924490565019 -19.00684271615544, 24.62595188623539 -18.862249829261074 M23.40728075967676 -19.140403561325776 C23.716619809546902 -19.069798941818867, 24.025958859417045 -18.999194322311958, 24.62595188623539 -18.862249829261074 M24.62595188623539 -18.862249829261074 C25.076925378403494 -18.728403263993748, 25.5278988705716 -18.59455669872642, 25.824297751460602 -18.50658706670804 M24.62595188623539 -18.862249829261074 C25.03606307878413 -18.740530980030186, 25.446174271332875 -18.6188121307993, 25.824297751460602 -18.50658706670804 M25.824297751460602 -18.50658706670804 C26.083853588332207 -18.411068119431434, 26.343409425203813 -18.315549172154828, 26.997394095147794 -18.074876768247425 M25.824297751460602 -18.50658706670804 C26.281221953973212 -18.33843473642237, 26.738146156485822 -18.170282406136703, 26.997394095147794 -18.074876768247425 M26.997394095147794 -18.074876768247425 C27.32837003654455 -17.92836353704355, 27.659345977941303 -17.78185030583967, 28.14042041279238 -17.568892924097174 M26.997394095147794 -18.074876768247425 C27.429236352832305 -17.883713010915923, 27.861078610516817 -17.692549253584417, 28.14042041279238 -17.568892924097174 M28.14042041279238 -17.568892924097174 C28.574055270358635 -17.34266589666124, 29.007690127924892 -17.11643886922531, 29.248679764076783 -16.990714730406097 M28.14042041279238 -17.568892924097174 C28.45943047234949 -17.402465580361927, 28.778440531906597 -17.23603823662668, 29.248679764076783 -16.990714730406097 M29.248679764076783 -16.990714730406097 C29.514469372839027 -16.82959150762131, 29.78025898160127 -16.66846828483652, 30.317618073605697 -16.342718045390892 M29.248679764076783 -16.990714730406097 C29.59142133208578 -16.78294277770602, 29.93416290009478 -16.57517082500594, 30.317618073605697 -16.342718045390892 M30.317618073605697 -16.342718045390892 C30.71057347865863 -16.068609365591286, 31.10352888371156 -15.794500685791682, 31.342842844578712 -15.627565626425154 M30.317618073605697 -16.342718045390892 C30.60558020670725 -16.14184812701908, 30.893542339808803 -15.94097820864727, 31.342842844578712 -15.627565626425154 M31.342842844578712 -15.627565626425154 C31.68253887041027 -15.356667085515376, 32.02223489624183 -15.085768544605598, 32.320141208501866 -14.848196188198123 M31.342842844578712 -15.627565626425154 C31.634982513885554 -15.394592014316043, 31.92712218319239 -15.161618402206932, 32.320141208501866 -14.848196188198123 M32.320141208501866 -14.848196188198123 C32.643390244112744 -14.554629966757137, 32.966639279723616 -14.26106374531615, 33.24549723676799 -14.007812326905688 M32.320141208501866 -14.848196188198123 C32.60819701969274 -14.586591522013691, 32.89625283088361 -14.324986855829259, 33.24549723676799 -14.007812326905688 M33.24549723676799 -14.007812326905688 C33.532057494650864 -13.7119153336069, 33.81861775253375 -13.416018340308112, 34.11510844296865 -13.10986736009568 M33.24549723676799 -14.007812326905688 C33.51382103569444 -13.730745974720536, 33.78214483462089 -13.453679622535386, 34.11510844296865 -13.10986736009568 M34.11510844296865 -13.10986736009568 C34.42584063774819 -12.74486364294487, 34.73657283252772 -12.379859925794058, 34.92540140812658 -12.158051136245305 M34.11510844296865 -13.10986736009568 C34.343497000329364 -12.841589164942718, 34.57188555769008 -12.573310969789754, 34.92540140812658 -12.158051136245305 M34.92540140812658 -12.158051136245305 C35.111256491734665 -11.90902225595691, 35.29711157534275 -11.659993375668515, 35.673046464640635 -11.156274872382312 M34.92540140812658 -12.158051136245305 C35.124193505484904 -11.891687836117791, 35.32298560284322 -11.625324535990277, 35.673046464640635 -11.156274872382312 M35.673046464640635 -11.156274872382312 C35.937915255302194 -10.749365282697118, 36.202784045963746 -10.342455693011926, 36.35497137860425 -10.108655082055241 M35.673046464640635 -11.156274872382312 C35.92763884704489 -10.765152605382331, 36.182231229449144 -10.374030338382351, 36.35497137860425 -10.108655082055241 M36.35497137860425 -10.108655082055241 C36.50594431903137 -9.840587338658922, 36.6569172594585 -9.572519595262602, 36.968373974273504 -9.019496659696287 M36.35497137860425 -10.108655082055241 C36.50824376760753 -9.836504434867544, 36.66151615661081 -9.564353787679845, 36.968373974273504 -9.019496659696287 M36.968373974273504 -9.019496659696287 C37.13376750723643 -8.676053449644085, 37.29916104019935 -8.332610239591883, 37.51073364880834 -7.893275190886684 M36.968373974273504 -9.019496659696287 C37.129248037517016 -8.68543822521761, 37.29012210076052 -8.351379790738932, 37.51073364880834 -7.893275190886684 M37.51073364880834 -7.893275190886684 C37.67386951845923 -7.4903264388315245, 37.837005388110114 -7.087377686776366, 37.979821729970325 -6.734618561215508 M37.51073364880834 -7.893275190886684 C37.62365435107211 -7.614358873121908, 37.73657505333588 -7.335442555357133, 37.979821729970325 -6.734618561215508 M37.979821729970325 -6.734618561215508 C38.07916160623435 -6.435422681568104, 38.178501482498376 -6.1362268019207, 38.37371063421488 -5.548287939305138 M37.979821729970325 -6.734618561215508 C38.09777128822607 -6.379373284459211, 38.215720846481815 -6.024128007702915, 38.37371063421488 -5.548287939305138 M38.37371063421488 -5.548287939305138 C38.4748347805135 -5.162657741986267, 38.57595892681211 -4.777027544667397, 38.69078178754556 -4.339158212148133 M38.37371063421488 -5.548287939305138 C38.442802714622964 -5.284809892012034, 38.511894795031054 -5.021331844718931, 38.69078178754556 -4.339158212148133 M38.69078178754556 -4.339158212148133 C38.76020752669068 -3.982671714773118, 38.829633265835795 -3.6261852173981026, 38.929732276581774 -3.1121979531509023 M38.69078178754556 -4.339158212148133 C38.76577629819069 -3.9540772500808363, 38.84077080883581 -3.5689962880135395, 38.929732276581774 -3.1121979531509023 M38.929732276581774 -3.1121979531509023 C38.9673558754737 -2.8203967497650684, 39.004979474365626 -2.5285955463792344, 39.08958020250937 -1.872449005199798 M38.929732276581774 -3.1121979531509023 C38.96909736392527 -2.806890109230458, 39.00846245126878 -2.501582265310014, 39.08958020250937 -1.872449005199798 M39.08958020250937 -1.872449005199798 C39.108211171266575 -1.5822566281589894, 39.12684214002378 -1.2920642511181806, 39.16966871591342 -0.6250057626472757 M39.08958020250937 -1.872449005199798 C39.10964004341589 -1.5600007910686555, 39.1296998843224 -1.2475525769375133, 39.16966871591342 -0.6250057626472757 M39.16966871591342 -0.6250057626472757 C39.16966871591342 -0.29438353500357217, 39.16966871591342 0.036238692640131354, 39.16966871591342 0.625005762647271 M39.16966871591342 -0.6250057626472757 C39.16966871591342 -0.3619190041909991, 39.16966871591342 -0.09883224573472249, 39.16966871591342 0.625005762647271 M39.16966871591342 0.625005762647271 C39.13880125165458 1.1057914342474335, 39.10793378739573 1.5865771058475961, 39.08958020250937 1.8724490051997846 M39.16966871591342 0.625005762647271 C39.14975954280864 0.9351072041494792, 39.12985036970386 1.2452086456516875, 39.08958020250937 1.8724490051997846 M39.08958020250937 1.8724490051997846 C39.041174784528096 2.247871868331555, 38.99276936654683 2.623294731463325, 38.929732276581774 3.1121979531508885 M39.08958020250937 1.8724490051997846 C39.04431486344368 2.223518036341016, 38.999049524377995 2.5745870674822475, 38.929732276581774 3.1121979531508885 M38.929732276581774 3.1121979531508885 C38.85805149543823 3.480263614584524, 38.78637071429469 3.848329276018159, 38.69078178754556 4.339158212148129 M38.929732276581774 3.1121979531508885 C38.853849563736446 3.501839645794619, 38.77796685089112 3.89148133843835, 38.69078178754556 4.339158212148129 M38.69078178754556 4.339158212148129 C38.62679880579648 4.583153051957077, 38.5628158240474 4.8271478917660255, 38.37371063421489 5.548287939305125 M38.69078178754556 4.339158212148129 C38.62469033264859 4.591193573888021, 38.55859887775162 4.843228935627914, 38.37371063421489 5.548287939305125 M38.37371063421489 5.548287939305125 C38.25896398852608 5.893886553724634, 38.14421734283726 6.239485168144144, 37.979821729970325 6.734618561215495 M38.37371063421489 5.548287939305125 C38.28649993244631 5.810952677893748, 38.199289230677735 6.073617416482369, 37.979821729970325 6.734618561215495 M37.979821729970325 6.734618561215495 C37.85253805700478 7.049011694302804, 37.72525438403923 7.363404827390113, 37.51073364880834 7.893275190886679 M37.979821729970325 6.734618561215495 C37.79870262487297 7.181986252505632, 37.61758351977562 7.629353943795769, 37.51073364880834 7.893275190886679 M37.51073364880834 7.893275190886679 C37.38359022553033 8.15729122975693, 37.25644680225231 8.421307268627183, 36.968373974273504 9.019496659696284 M37.51073364880834 7.893275190886679 C37.31429018708244 8.30119424237725, 37.11784672535654 8.709113293867821, 36.968373974273504 9.019496659696284 M36.968373974273504 9.019496659696284 C36.82046461487863 9.282124704748616, 36.67255525548376 9.54475274980095, 36.35497137860425 10.108655082055236 M36.968373974273504 9.019496659696284 C36.7476093132435 9.411486670201054, 36.526844652213505 9.803476680705822, 36.35497137860425 10.108655082055236 M36.35497137860425 10.108655082055236 C36.15351870977892 10.418140478986894, 35.952066040953596 10.727625875918553, 35.67304646464064 11.156274872382301 M36.35497137860425 10.108655082055236 C36.178347534338975 10.379996736989726, 36.0017236900737 10.651338391924215, 35.67304646464064 11.156274872382301 M35.67304646464064 11.156274872382301 C35.42769402475325 11.485024789764307, 35.18234158486586 11.813774707146314, 34.92540140812658 12.158051136245302 M35.67304646464064 11.156274872382301 C35.49398680474758 11.396198503968403, 35.31492714485452 11.636122135554505, 34.92540140812658 12.158051136245302 M34.92540140812658 12.158051136245302 C34.71452777839496 12.405755300777514, 34.50365414866334 12.653459465309728, 34.11510844296866 13.10986736009567 M34.92540140812658 12.158051136245302 C34.668179262534075 12.460198904812971, 34.410957116941574 12.762346673380643, 34.11510844296866 13.10986736009567 M34.11510844296866 13.10986736009567 C33.80008300865463 13.435156985094068, 33.48505757434061 13.760446610092464, 33.24549723676799 14.007812326905684 M34.11510844296866 13.10986736009567 C33.83439446119045 13.399727593328196, 33.553680479412236 13.689587826560722, 33.24549723676799 14.007812326905684 M33.24549723676799 14.007812326905684 C32.913201069988204 14.309594913500304, 32.58090490320842 14.611377500094925, 32.32014120850189 14.848196188198111 M33.24549723676799 14.007812326905684 C32.91798909738711 14.305246553700883, 32.590480958006225 14.60268078049608, 32.32014120850189 14.848196188198111 M32.32014120850189 14.848196188198111 C32.02008803293119 15.087480610965398, 31.720034857360503 15.326765033732686, 31.342842844578715 15.627565626425152 M32.32014120850189 14.848196188198111 C32.027320066622146 15.081713256549367, 31.734498924742397 15.315230324900622, 31.342842844578715 15.627565626425152 M31.342842844578715 15.627565626425152 C31.12490479312383 15.77958977673389, 30.906966741668942 15.931613927042626, 30.317618073605708 16.34271804539089 M31.342842844578715 15.627565626425152 C31.01184359089945 15.858456377065055, 30.680844337220183 16.089347127704958, 30.317618073605708 16.34271804539089 M30.317618073605708 16.34271804539089 C30.08641836728346 16.48287266604372, 29.855218660961214 16.62302728669655, 29.248679764076787 16.990714730406093 M30.317618073605708 16.34271804539089 C30.083792018060695 16.4844647743767, 29.849965962515686 16.626211503362516, 29.248679764076787 16.990714730406093 M29.248679764076787 16.990714730406093 C28.93517305464606 17.154270979905473, 28.621666345215335 17.317827229404852, 28.140420412792388 17.56889292409717 M29.248679764076787 16.990714730406093 C28.907482682097623 17.16871702952746, 28.566285600118462 17.346719328648827, 28.140420412792388 17.56889292409717 M28.140420412792388 17.56889292409717 C27.910481227172927 17.67068018066731, 27.68054204155347 17.772467437237452, 26.997394095147804 18.07487676824742 M28.140420412792388 17.56889292409717 C27.685252193162 17.770382392842038, 27.23008397353161 17.971871861586905, 26.997394095147804 18.07487676824742 M26.997394095147804 18.07487676824742 C26.673164426048388 18.19419628362221, 26.34893475694897 18.313515798997003, 25.824297751460616 18.506587066708033 M26.997394095147804 18.07487676824742 C26.727124948963837 18.17433831238372, 26.45685580277987 18.27379985652002, 25.824297751460616 18.506587066708033 M25.824297751460616 18.506587066708033 C25.46286761913512 18.613857632796762, 25.101437486809626 18.72112819888549, 24.625951886235413 18.86224982926107 M25.824297751460616 18.506587066708033 C25.554990096527536 18.586516165067444, 25.285682441594453 18.666445263426855, 24.625951886235413 18.86224982926107 M24.625951886235413 18.86224982926107 C24.309834639776582 18.934401527907482, 23.993717393317752 19.00655322655389, 23.407280759676766 19.140403561325773 M24.625951886235413 18.86224982926107 C24.176704014741127 18.964787724313304, 23.72745614324684 19.06732561936554, 23.407280759676766 19.140403561325773 M23.407280759676766 19.140403561325773 C22.956314489890914 19.213312290529096, 22.505348220105063 19.28622101973242, 22.17329215284788 19.3399052695533 M23.407280759676766 19.140403561325773 C23.03447702240102 19.200675578432353, 22.66167328512528 19.260947595538934, 22.17329215284788 19.3399052695533 M22.17329215284788 19.3399052695533 C21.87801806922213 19.368390005281633, 21.58274398559638 19.396874741009967, 20.9290567896239 19.45993515863156 M22.17329215284788 19.3399052695533 C21.868992073447483 19.369260732238665, 21.564691994047084 19.39861619492403, 20.9290567896239 19.45993515863156 M20.9290567896239 19.45993515863156 C20.670026599357566 19.468241752661722, 20.41099640909123 19.476548346691885, 19.679687500000004 19.5 M20.9290567896239 19.45993515863156 C20.609105636439157 19.470195369367055, 20.289154483254418 19.48045558010255, 19.679687500000004 19.5 M19.679687500000004 19.5 C19.679687500000004 19.5, 19.6796875 19.5, 19.6796875 19.5 M19.679687500000004 19.5 C19.679687500000004 19.5, 19.6796875 19.5, 19.6796875 19.5 M19.6796875 19.5 C6.048523461573424 19.5, -7.5826405768531515 19.5, -19.679687499999996 19.5 M19.6796875 19.5 C11.312543103678914 19.5, 2.9453987073578283 19.5, -19.679687499999996 19.5 M-19.679687499999996 19.5 C-20.153063332360166 19.484819758426372, -20.62643916472033 19.46963951685274, -20.929056789623893 19.45993515863156 M-19.679687499999996 19.5 C-20.030654306897883 19.48874517761823, -20.38162111379577 19.477490355236466, -20.929056789623893 19.45993515863156 M-20.929056789623893 19.45993515863156 C-21.193639708141788 19.434411162689653, -21.458222626659683 19.408887166747746, -22.17329215284787 19.3399052695533 M-20.929056789623893 19.45993515863156 C-21.23722988700518 19.43020607055956, -21.54540298438647 19.400476982487564, -22.17329215284787 19.3399052695533 M-22.17329215284787 19.3399052695533 C-22.535103084380836 19.28141048402873, -22.896914015913804 19.222915698504156, -23.40728075967676 19.140403561325773 M-22.17329215284787 19.3399052695533 C-22.63633201685389 19.265044575268583, -23.09937188085991 19.190183880983863, -23.40728075967676 19.140403561325773 M-23.40728075967676 19.140403561325773 C-23.675857543375738 19.079102663073787, -23.944434327074717 19.0178017648218, -24.625951886235388 18.862249829261074 M-23.40728075967676 19.140403561325773 C-23.68886842890426 19.076133013355864, -23.970456098131763 19.011862465385953, -24.625951886235388 18.862249829261074 M-24.625951886235388 18.862249829261074 C-25.020200163803846 18.745239009930195, -25.414448441372304 18.628228190599316, -25.82429775146059 18.506587066708043 M-24.625951886235388 18.862249829261074 C-24.918250255088978 18.775497207690776, -25.21054862394257 18.688744586120478, -25.82429775146059 18.506587066708043 M-25.82429775146059 18.506587066708043 C-26.210411741388334 18.36449354921604, -26.596525731316074 18.222400031724032, -26.997394095147797 18.074876768247425 M-25.82429775146059 18.506587066708043 C-26.10634664530593 18.402790466541564, -26.38839553915127 18.29899386637509, -26.997394095147797 18.074876768247425 M-26.997394095147797 18.074876768247425 C-27.376862003975663 17.9068975815249, -27.75632991280353 17.738918394802372, -28.14042041279238 17.568892924097174 M-26.997394095147797 18.074876768247425 C-27.23708218258615 17.96877396203296, -27.476770270024502 17.86267115581849, -28.14042041279238 17.568892924097174 M-28.14042041279238 17.568892924097174 C-28.41238151276436 17.42701099244119, -28.68434261273634 17.28512906078521, -29.24867976407678 16.990714730406097 M-28.14042041279238 17.568892924097174 C-28.46163626834287 17.401314818005062, -28.782852123893353 17.233736711912947, -29.24867976407678 16.990714730406097 M-29.24867976407678 16.990714730406097 C-29.635433659180084 16.756262246376306, -30.022187554283388 16.521809762346518, -30.317618073605686 16.3427180453909 M-29.24867976407678 16.990714730406097 C-29.513801622143127 16.8299963020173, -29.778923480209478 16.669277873628502, -30.317618073605686 16.3427180453909 M-30.317618073605686 16.3427180453909 C-30.549610977870437 16.180889838186776, -30.781603882135183 16.01906163098265, -31.342842844578712 15.627565626425156 M-30.317618073605686 16.3427180453909 C-30.54101648601983 16.186884983652202, -30.764414898433976 16.0310519219135, -31.342842844578712 15.627565626425156 M-31.342842844578712 15.627565626425156 C-31.60609207963806 15.417631366821677, -31.869341314697404 15.207697107218198, -32.320141208501866 14.848196188198125 M-31.342842844578712 15.627565626425156 C-31.653402138453806 15.379902853889655, -31.963961432328905 15.132240081354155, -32.320141208501866 14.848196188198125 M-32.320141208501866 14.848196188198125 C-32.643736894421316 14.554315148118754, -32.967332580340766 14.260434108039382, -33.245497236767974 14.007812326905697 M-32.320141208501866 14.848196188198125 C-32.629360728765725 14.56737120139466, -32.938580249029584 14.286546214591198, -33.245497236767974 14.007812326905697 M-33.245497236767974 14.007812326905697 C-33.50344134549689 13.741463857037921, -33.761385454225795 13.475115387170145, -34.115108442968655 13.109867360095677 M-33.245497236767974 14.007812326905697 C-33.53540263812099 13.708461198332603, -33.82530803947402 13.40911006975951, -34.115108442968655 13.109867360095677 M-34.115108442968655 13.109867360095677 C-34.354312355210226 12.828884833688535, -34.5935162674518 12.547902307281392, -34.925401408126575 12.158051136245307 M-34.115108442968655 13.109867360095677 C-34.357371639638956 12.825291224120335, -34.59963483630926 12.54071508814499, -34.925401408126575 12.158051136245307 M-34.925401408126575 12.158051136245307 C-35.21796520701523 11.766042298844894, -35.51052900590389 11.374033461444482, -35.673046464640635 11.156274872382316 M-34.925401408126575 12.158051136245307 C-35.15714494094972 11.847535914532456, -35.388888473772866 11.537020692819606, -35.673046464640635 11.156274872382316 M-35.673046464640635 11.156274872382316 C-35.849311496346964 10.885484449893026, -36.02557652805329 10.614694027403738, -36.35497137860425 10.108655082055249 M-35.673046464640635 11.156274872382316 C-35.8850433585534 10.830590714195461, -36.09704025246617 10.504906556008606, -36.35497137860425 10.108655082055249 M-36.35497137860425 10.108655082055249 C-36.52401848673463 9.808494823693852, -36.69306559486502 9.508334565332456, -36.968373974273504 9.019496659696289 M-36.35497137860425 10.108655082055249 C-36.53378471880235 9.791153889719386, -36.712598059000456 9.473652697383523, -36.968373974273504 9.019496659696289 M-36.968373974273504 9.019496659696289 C-37.10132393365783 8.743423224361312, -37.23427389304216 8.467349789026335, -37.51073364880834 7.893275190886686 M-36.968373974273504 9.019496659696289 C-37.14976085051824 8.642842930116672, -37.33114772676298 8.266189200537054, -37.51073364880834 7.893275190886686 M-37.51073364880834 7.893275190886686 C-37.6378322035851 7.579339303304703, -37.76493075836186 7.265403415722721, -37.979821729970325 6.73461856121551 M-37.51073364880834 7.893275190886686 C-37.62207676537979 7.618255540282498, -37.733419881951235 7.34323588967831, -37.979821729970325 6.73461856121551 M-37.979821729970325 6.73461856121551 C-38.128223619696456 6.287655713990523, -38.27662550942259 5.8406928667655365, -38.37371063421488 5.5482879393051325 M-37.979821729970325 6.73461856121551 C-38.076587961098014 6.443174090664094, -38.1733541922257 6.151729620112677, -38.37371063421488 5.5482879393051325 M-38.37371063421488 5.5482879393051325 C-38.49914561877751 5.069949979301638, -38.624580603340135 4.591612019298144, -38.69078178754556 4.339158212148136 M-38.37371063421488 5.5482879393051325 C-38.449483414316276 5.2593334886478935, -38.525256194417665 4.970379037990654, -38.69078178754556 4.339158212148136 M-38.69078178754556 4.339158212148136 C-38.74401915070306 4.0657956040550545, -38.79725651386056 3.7924329959619736, -38.929732276581774 3.112197953150904 M-38.69078178754556 4.339158212148136 C-38.7696200102321 3.934340601117001, -38.848458232918645 3.529522990085866, -38.929732276581774 3.112197953150904 M-38.929732276581774 3.112197953150904 C-38.970721904773626 2.794290491212514, -39.01171153296548 2.476383029274124, -39.08958020250937 1.872449005199809 M-38.929732276581774 3.112197953150904 C-38.974113347626485 2.7679871301619143, -39.01849441867119 2.4237763071729246, -39.08958020250937 1.872449005199809 M-39.08958020250937 1.872449005199809 C-39.12054868038007 1.3900899650582708, -39.15151715825076 0.9077309249167326, -39.16966871591342 0.6250057626472781 M-39.08958020250937 1.872449005199809 C-39.10751088752984 1.5931641126174716, -39.125441572550315 1.3138792200351341, -39.16966871591342 0.6250057626472781 M-39.16966871591342 0.6250057626472781 C-39.16966871591342 0.185401606512605, -39.16966871591342 -0.2542025496220681, -39.16966871591342 -0.6250057626472687 M-39.16966871591342 0.6250057626472781 C-39.16966871591342 0.28592621297574095, -39.16966871591342 -0.05315333669579625, -39.16966871591342 -0.6250057626472687 M-39.16966871591342 -0.6250057626472687 C-39.14226292696103 -1.0518730471353421, -39.114857138008645 -1.4787403316234156, -39.08958020250937 -1.8724490051997822 M-39.16966871591342 -0.6250057626472687 C-39.13879144400536 -1.1059441963004975, -39.10791417209731 -1.5868826299537262, -39.08958020250937 -1.8724490051997822 M-39.08958020250937 -1.8724490051997822 C-39.041800328796796 -2.243020270511191, -38.99402045508423 -2.613591535822599, -38.929732276581774 -3.112197953150895 M-39.08958020250937 -1.8724490051997822 C-39.0403959665173 -2.253912227028296, -38.99121173052523 -2.6353754488568097, -38.929732276581774 -3.112197953150895 M-38.929732276581774 -3.112197953150895 C-38.87448389759224 -3.3958867025131063, -38.81923551860271 -3.6795754518753174, -38.69078178754556 -4.339158212148126 M-38.929732276581774 -3.112197953150895 C-38.83479132118566 -3.5996996933319236, -38.73985036578954 -4.087201433512952, -38.69078178754556 -4.339158212148126 M-38.69078178754556 -4.339158212148126 C-38.58095886529704 -4.75796061223733, -38.471135943048516 -5.176763012326534, -38.37371063421489 -5.548287939305123 M-38.69078178754556 -4.339158212148126 C-38.61603923027019 -4.624183976668362, -38.54129667299482 -4.909209741188597, -38.37371063421489 -5.548287939305123 M-38.37371063421489 -5.548287939305123 C-38.292536735467856 -5.792770789026795, -38.211362836720824 -6.037253638748467, -37.97982172997033 -6.734618561215485 M-38.37371063421489 -5.548287939305123 C-38.27545974909531 -5.844203951132608, -38.17720886397574 -6.140119962960092, -37.97982172997033 -6.734618561215485 M-37.97982172997033 -6.734618561215485 C-37.851382409022285 -7.051866167162506, -37.72294308807423 -7.369113773109527, -37.51073364880834 -7.893275190886676 M-37.97982172997033 -6.734618561215485 C-37.853585554568454 -7.046424355068534, -37.72734937916658 -7.358230148921583, -37.51073364880834 -7.893275190886676 M-37.51073364880834 -7.893275190886676 C-37.30521136443981 -8.32004661185035, -37.099689080071286 -8.746818032814025, -36.968373974273504 -9.019496659696282 M-37.51073364880834 -7.893275190886676 C-37.29388466082273 -8.343566754263863, -37.07703567283711 -8.79385831764105, -36.968373974273504 -9.019496659696282 M-36.968373974273504 -9.019496659696282 C-36.74783149961071 -9.411092155807268, -36.52728902494792 -9.802687651918253, -36.35497137860425 -10.108655082055243 M-36.968373974273504 -9.019496659696282 C-36.78990497110611 -9.336386446766209, -36.611435967938725 -9.653276233836136, -36.35497137860425 -10.108655082055243 M-36.35497137860425 -10.108655082055243 C-36.09901135702271 -10.501878410094074, -35.84305133544117 -10.895101738132906, -35.67304646464064 -11.156274872382308 M-36.35497137860425 -10.108655082055243 C-36.13850625866424 -10.441203635306625, -35.92204113872424 -10.773752188558007, -35.67304646464064 -11.156274872382308 M-35.67304646464064 -11.156274872382308 C-35.41326687259692 -11.504355859313195, -35.1534872805532 -11.852436846244082, -34.92540140812659 -12.158051136245302 M-35.67304646464064 -11.156274872382308 C-35.40148561623382 -11.520141669545213, -35.129924767827006 -11.884008466708117, -34.92540140812659 -12.158051136245302 M-34.92540140812659 -12.158051136245302 C-34.67210379057209 -12.455588930867556, -34.41880617301759 -12.75312672548981, -34.11510844296866 -13.10986736009567 M-34.92540140812659 -12.158051136245302 C-34.67372377618461 -12.4536860035873, -34.42204614424263 -12.749320870929298, -34.11510844296866 -13.10986736009567 M-34.11510844296866 -13.10986736009567 C-33.81570605226768 -13.419024909887867, -33.51630366156669 -13.728182459680063, -33.245497236767996 -14.007812326905677 M-34.11510844296866 -13.10986736009567 C-33.77075719857104 -13.46543829169916, -33.426405954173426 -13.82100922330265, -33.245497236767996 -14.007812326905677 M-33.245497236767996 -14.007812326905677 C-32.95235219895731 -14.27403889405267, -32.65920716114662 -14.540265461199661, -32.32014120850189 -14.848196188198107 M-33.245497236767996 -14.007812326905677 C-32.87912183600617 -14.340544772115667, -32.51274643524434 -14.673277217325657, -32.32014120850189 -14.848196188198107 M-32.32014120850189 -14.848196188198107 C-32.09388373095278 -15.028630505579178, -31.867626253403674 -15.20906482296025, -31.34284284457872 -15.627565626425149 M-32.32014120850189 -14.848196188198107 C-32.040874724464935 -15.070903777624332, -31.76160824042798 -15.293611367050557, -31.34284284457872 -15.627565626425149 M-31.34284284457872 -15.627565626425149 C-31.055252233411508 -15.82817638717849, -30.7676616222443 -16.02878714793183, -30.31761807360571 -16.342718045390885 M-31.34284284457872 -15.627565626425149 C-31.037725229219202 -15.84040246657126, -30.732607613859685 -16.053239306717373, -30.31761807360571 -16.342718045390885 M-30.31761807360571 -16.342718045390885 C-29.99977981570424 -16.535393465155686, -29.681941557802773 -16.728068884920482, -29.24867976407679 -16.99071473040609 M-30.31761807360571 -16.342718045390885 C-30.06230802492603 -16.497488497268893, -29.806997976246347 -16.6522589491469, -29.24867976407679 -16.99071473040609 M-29.24867976407679 -16.99071473040609 C-28.968324680992126 -17.13697579767536, -28.68796959790746 -17.283236864944627, -28.140420412792388 -17.56889292409717 M-29.24867976407679 -16.99071473040609 C-28.832008846074878 -17.208091681437228, -28.415337928072965 -17.425468632468366, -28.140420412792388 -17.56889292409717 M-28.140420412792388 -17.56889292409717 C-27.69596114039008 -17.7656418595738, -27.251501867987773 -17.96239079505043, -26.997394095147804 -18.07487676824742 M-28.140420412792388 -17.56889292409717 C-27.90846790585949 -17.671571418289716, -27.67651539892659 -17.77424991248226, -26.997394095147804 -18.07487676824742 M-26.997394095147804 -18.07487676824742 C-26.743700518227374 -18.168238349671856, -26.490006941306945 -18.261599931096292, -25.82429775146062 -18.506587066708033 M-26.997394095147804 -18.07487676824742 C-26.664474677549666 -18.197394191396896, -26.33155525995153 -18.31991161454637, -25.82429775146062 -18.506587066708033 M-25.82429775146062 -18.506587066708033 C-25.508280605241872 -18.600379296897906, -25.192263459023124 -18.694171527087782, -24.625951886235413 -18.862249829261067 M-25.82429775146062 -18.506587066708033 C-25.552183989890366 -18.587349002787803, -25.280070228320113 -18.66811093886757, -24.625951886235413 -18.862249829261067 M-24.625951886235413 -18.862249829261067 C-24.171460819116454 -18.965984449499587, -23.716969751997496 -19.069719069738102, -23.407280759676766 -19.140403561325773 M-24.625951886235413 -18.862249829261067 C-24.29011120518442 -18.9389032731457, -23.954270524133428 -19.015556717030332, -23.407280759676766 -19.140403561325773 M-23.407280759676766 -19.140403561325773 C-23.11665026565506 -19.18739044572606, -22.82601977163336 -19.234377330126346, -22.173292152847882 -19.3399052695533 M-23.407280759676766 -19.140403561325773 C-23.075463430621998 -19.194049213805528, -22.743646101567233 -19.247694866285286, -22.173292152847882 -19.3399052695533 M-22.173292152847882 -19.3399052695533 C-21.700343205789 -19.385530085671743, -21.227394258730115 -19.431154901790183, -20.929056789623903 -19.45993515863156 M-22.173292152847882 -19.3399052695533 C-21.75153113264731 -19.380592047930207, -21.329770112446745 -19.42127882630712, -20.929056789623903 -19.45993515863156 M-20.929056789623903 -19.45993515863156 C-20.448357966421487 -19.475350234268163, -19.96765914321907 -19.490765309904766, -19.679687500000007 -19.5 M-20.929056789623903 -19.45993515863156 C-20.677740086581323 -19.467994396139847, -20.426423383538744 -19.476053633648135, -19.679687500000007 -19.5 M-19.679687500000007 -19.5 C-19.679687500000004 -19.5, -19.679687500000004 -19.5, -19.6796875 -19.5 M-19.679687500000007 -19.5 C-19.679687500000004 -19.5, -19.679687500000004 -19.5, -19.6796875 -19.5" stroke="#1ac5da" stroke-width="1.3" fill="none" stroke-dasharray="0 0" style=""></path></g><g class="label" style="" transform="translate(-26.8046875, -12)"><rect></rect><foreignObject width="53.609375" height="24"><div xmlns="http://www.w3.org/1999/xhtml" style="display: table-cell; white-space: nowrap; line-height: 1.5; max-width: 200px; text-align: center;"><span class="nodeLabel"><p>fork PR</p></span></div></foreignObject></g></g></g></g></g><defs><filter id="container-drop-shadow" height="130%" width="130%"><feDropShadow dx="4" dy="4" stdDeviation="0" flood-opacity="0.06" flood-color="#000000"></feDropShadow></filter></defs><defs><filter id="container-drop-shadow-small" height="150%" width="150%"><feDropShadow dx="2" dy="2" stdDeviation="0" flood-opacity="0.06" flood-color="#000000"></feDropShadow></filter></defs><linearGradient id="container-gradient" gradientUnits="objectBoundingBox" x1="0%" y1="0%" x2="100%" y2="0%"><stop offset="0%" stop-color="#1ac5da" stop-opacity="1"></stop><stop offset="100%" stop-color="hsl(81.6279069767, 39.6296296296%, 11.1764705882%)" stop-opacity="1"></stop></linearGradient></svg>